<mxfile host="Electron" agent="Mozilla/5.0 (Windows NT 10.0; Win64; x64) AppleWebKit/537.36 (KHTML, like Gecko) draw.io/24.7.8 Chrome/128.0.6613.36 Electron/32.0.1 Safari/537.36" version="24.7.8" pages="3">
  <diagram id="L9_c-Qdb3t9Jh-_eT_LP" name="Basic Usage">
    <mxGraphModel dx="1595" dy="1125" grid="0" gridSize="10" guides="1" tooltips="1" connect="1" arrows="1" fold="1" page="0" pageScale="1" pageWidth="827" pageHeight="1169" math="0" shadow="0">
      <root>
        <mxCell id="0" />
        <mxCell id="1" parent="0" />
        <mxCell id="PqCmQ-qybaU1zqL3LrbR-41" style="edgeStyle=orthogonalEdgeStyle;rounded=1;orthogonalLoop=1;jettySize=auto;html=1;exitX=1;exitY=0.75;exitDx=0;exitDy=0;startArrow=oval;startFill=1;endArrow=oval;endFill=1;curved=0;fillColor=#ffe6cc;strokeColor=#d79b00;strokeWidth=2;" parent="1" source="PqCmQ-qybaU1zqL3LrbR-1" target="PqCmQ-qybaU1zqL3LrbR-40" edge="1">
          <mxGeometry relative="1" as="geometry">
            <Array as="points">
              <mxPoint x="550" y="240" />
              <mxPoint x="550" y="370" />
            </Array>
          </mxGeometry>
        </mxCell>
        <mxCell id="PqCmQ-qybaU1zqL3LrbR-3" style="edgeStyle=orthogonalEdgeStyle;rounded=1;orthogonalLoop=1;jettySize=auto;html=1;entryX=1;entryY=0.5;entryDx=0;entryDy=0;endArrow=oval;endFill=1;startArrow=oval;startFill=1;curved=0;fillColor=#60a917;strokeColor=#2D7600;strokeWidth=2;" parent="1" source="IurtWjAl5oobckh0VeO4-4" target="PqCmQ-qybaU1zqL3LrbR-1" edge="1">
          <mxGeometry relative="1" as="geometry" />
        </mxCell>
        <mxCell id="PqCmQ-qybaU1zqL3LrbR-2" style="edgeStyle=orthogonalEdgeStyle;rounded=1;orthogonalLoop=1;jettySize=auto;html=1;entryX=1;entryY=0.25;entryDx=0;entryDy=0;endArrow=oval;endFill=1;startArrow=oval;startFill=1;curved=0;fillColor=#1ba1e2;strokeColor=#006EAF;strokeWidth=2;" parent="1" source="OOMBXD3BXPfqDJGDftCW-7" target="PqCmQ-qybaU1zqL3LrbR-1" edge="1">
          <mxGeometry relative="1" as="geometry" />
        </mxCell>
        <mxCell id="PqCmQ-qybaU1zqL3LrbR-4" style="edgeStyle=orthogonalEdgeStyle;rounded=0;orthogonalLoop=1;jettySize=auto;html=1;entryX=0;entryY=0.5;entryDx=0;entryDy=0;endArrow=oval;endFill=1;startArrow=oval;startFill=1;strokeWidth=2;" parent="1" source="OOMBXD3BXPfqDJGDftCW-8" target="PqCmQ-qybaU1zqL3LrbR-1" edge="1">
          <mxGeometry relative="1" as="geometry" />
        </mxCell>
        <mxCell id="PqCmQ-qybaU1zqL3LrbR-40" value="Your Consumer" style="verticalLabelPosition=bottom;html=1;verticalAlign=top;strokeWidth=1;align=center;outlineConnect=0;dashed=0;outlineConnect=0;shape=mxgraph.aws3d.application;fillColor=#ffe6cc;strokeColor=#d79b00;aspect=fixed;" parent="1" vertex="1">
          <mxGeometry x="631.13" y="319.99999999999994" width="85.07" height="94.4" as="geometry" />
        </mxCell>
        <mxCell id="PqCmQ-qybaU1zqL3LrbR-1" value="" style="rounded=1;whiteSpace=wrap;html=1;" parent="1" vertex="1">
          <mxGeometry x="356" y="150" width="120" height="120" as="geometry" />
        </mxCell>
        <mxCell id="IurtWjAl5oobckh0VeO4-2" value="" style="shape=image;verticalLabelPosition=bottom;verticalAlign=top;imageAspect=0;aspect=fixed;image=data:image/svg+xml,PHN2ZyB4bWxucz0iaHR0cDovL3d3dy53My5vcmcvMjAwMC9zdmciIHZpZXdCb3g9IjAgMCAxMjggMTI4Ij48cGF0aCBmaWxsPSIjZmY2NjAwIiBkPSJNMTE5LjUxNyA1MS4xODhINzkuMjkxYTMuNjQxIDMuNjQxIDAgMCAxLTMuNjQtMy42NDJWNS42MkE1LjYwNSA1LjYwNSAwIDAgMCA3MC4wMjggMEg1NS42NmE1LjYwNiA1LjYwNiAwIDAgMC01LjYyNyA1LjYydjQxLjY0NmEzLjkxMyAzLjkxMyAwIDAgMS0zLjkyIDMuOTI1bC0xMy4xODguMDQ3Yy0yLjE3NiAwLTMuOTcyLTEuNzUtMy45MjYtMy45MjZsLjA5NC00MS42ODdBNS42MDYgNS42MDYgMCAwIDAgMjMuNDY3IDBIOS4xYTUuNjEgNS42MSAwIDAgMC01LjYyNiA1LjYyNVYxMjIuOTljMCAyLjczNyAyLjIyIDUuMDEgNS4wMSA1LjAxaDExMS4wMzNhNS4wMTQgNS4wMTQgMCAwIDAgNS4wMDgtNS4wMTFWNTYuMTk1YTQuOTc1IDQuOTc1IDAgMCAwLTUuMDA4LTUuMDA3ek0xMDAuNjYgOTUuMjQyYTYuNTQ1IDYuNTQ1IDAgMCAxLTYuNTI1IDYuNTI0SDgyLjc5MWE2LjU0NSA2LjU0NSAwIDAgMS02LjUyMy02LjUyNFY4My45YTYuNTQ1IDYuNTQ1IDAgMCAxIDYuNTIzLTYuNTI0aDExLjM0M2E2LjU0NSA2LjU0NSAwIDAgMSA2LjUyNSA2LjUyM3ptMCAwIi8+PC9zdmc+" parent="1" vertex="1">
          <mxGeometry x="378.38" y="163.25" width="75.25" height="75.25" as="geometry" />
        </mxCell>
        <mxCell id="IurtWjAl5oobckh0VeO4-4" value="" style="shape=image;verticalLabelPosition=bottom;verticalAlign=top;imageAspect=0;aspect=fixed;image=data:image/svg+xml,PHN2ZyB4bWxucz0iaHR0cDovL3d3dy53My5vcmcvMjAwMC9zdmciIHhtbG5zOnhsaW5rPSJodHRwOi8vd3d3LnczLm9yZy8xOTk5L3hsaW5rIiB2aWV3Qm94PSIwIDAgMTI4IDEyOCI+PGRlZnM+PHBhdGggaWQ9ImdvLW9yaWdpbmFsLWEiIGQ9Ik0xOC44IDFoOTAuNXYxMjZIMTguOHoiLz48L2RlZnM+PGNsaXBQYXRoIGlkPSJnby1vcmlnaW5hbC1iIj48dXNlIHhsaW5rOmhyZWY9IiNnby1vcmlnaW5hbC1hIiBvdmVyZmxvdz0idmlzaWJsZSIvPjwvY2xpcFBhdGg+PHBhdGggZmlsbC1ydWxlPSJldmVub2RkIiBjbGlwLXJ1bGU9ImV2ZW5vZGQiIGZpbGw9IiNGNkQyQTIiIGQ9Ik0yMS4xIDY4LjdjLjIgMy41IDMuNyAxLjkgNS4zLjggMS41LTEuMSAyLS4yIDIuMS0yLjMuMS0xLjQuMi0yLjcuMi00LjEtMi4zLS4yLTQuOC4zLTYuNyAxLjctLjkuNy0yLjggMy0uOSAzLjkiIGNsaXAtcGF0aD0idXJsKCNnby1vcmlnaW5hbC1iKSIvPjxwYXRoIGQ9Ik0yMyA3MS4yYy0uNyAwLTItLjMtMi4yLTIuMy0uNi0uNC0uOC0uOS0uOC0xLjItLjEtMS4yIDEuMi0yLjYgMS45LTMuMSAxLjYtMS4yIDMuNy0xLjggNS45LTEuOGgxLjN2LjNjLjEgMS4xIDAgMi4yLS4xIDMuMiAwIC4zIDAgLjYtLjEuOS0uMSAxLjUtLjQgMS43LTEuMSAyLS4zLjEtLjYuMi0xLjEuNi0uNS4zLTIuMiAxLjQtMy43IDEuNHptNC44LTcuOGMtMi4xIDAtNCAuNi01LjUgMS43LS43LjUtMS43IDEuNy0xLjYgMi41IDAgLjMuMi42LjYuOGwuMi4xdi4yYy4xIDEuNi45IDEuOCAxLjUgMS44IDEgMCAyLjQtLjcgMy4zLTEuMy42LS40IDEtLjUgMS4zLS42LjUtLjIuNi0uMi43LTEuNCAwLS4zIDAtLjYuMS0uOS4xLS45LjEtMS45LjEtMi44LS4zLS4xLS41LS4xLS43LS4xeiIgY2xpcC1wYXRoPSJ1cmwoI2dvLW9yaWdpbmFsLWIpIi8+PHBhdGggZmlsbC1ydWxlPSJldmVub2RkIiBjbGlwLXJ1bGU9ImV2ZW5vZGQiIGZpbGw9IiNDNkIxOTgiIGQ9Ik0yMS4xIDY4LjdjLjUtLjIgMS4xLS4zIDEuNC0uOCIgY2xpcC1wYXRoPSJ1cmwoI2dvLW9yaWdpbmFsLWIpIi8+PHBhdGggZD0iTTIxLjEgNjljLS4xIDAtLjMtLjEtLjMtLjItLjEtLjIgMC0uNC4yLS40LjEgMCAuMi0uMS4yLS4xLjQtLjIuOC0uMyAxLS42LjEtLjEuMy0uMi41LS4xLjEuMS4yLjMuMS41LS40LjUtLjkuNy0xLjMuOGwtLjIuMWgtLjJ6IiBjbGlwLXBhdGg9InVybCgjZ28tb3JpZ2luYWwtYikiLz48cGF0aCBmaWxsLXJ1bGU9ImV2ZW5vZGQiIGNsaXAtcnVsZT0iZXZlbm9kZCIgZmlsbD0iIzZBRDdFNSIgZD0iTTI5LjMgMjYuNGMtMTMuNi0zLjgtMy41LTIxLjEgNy40LTE0bC03LjQgMTR6IiBjbGlwLXBhdGg9InVybCgjZ28tb3JpZ2luYWwtYikiLz48cGF0aCBkPSJNMjkuNSAyNi44bC0uMy0uMWMtNy0yLTYuOS03LTYuNy04LjUuNS0zLjggNC4xLTcuOCA4LjktNy44IDEuOSAwIDMuNy42IDUuNSAxLjhsLjMuMi03LjcgMTQuNHptMS45LTE1LjdjLTQuNSAwLTcuOCAzLjctOC4zIDcuMi0uNSAzLjYgMS43IDYuNCA2IDcuN2w3LjEtMTMuNWMtMS41LS45LTMuMS0xLjQtNC44LTEuNHoiIGNsaXAtcGF0aD0idXJsKCNnby1vcmlnaW5hbC1iKSIvPjxwYXRoIGZpbGwtcnVsZT0iZXZlbm9kZCIgY2xpcC1ydWxlPSJldmVub2RkIiBmaWxsPSIjNkFEN0U1IiBkPSJNODkuNiAxMS4xYzEwLjctNy41IDIwLjUgOS41IDggMTMuOGwtOC0xMy44eiIgY2xpcC1wYXRoPSJ1cmwoI2dvLW9yaWdpbmFsLWIpIi8+PHBhdGggZD0iTTk3LjUgMjUuM0w4OS4yIDExbC4zLS4yYzEuOS0xLjMgMy44LTIgNS43LTIgNC42IDAgNy45IDMuOCA4LjYgNy41LjMgMS41LjYgNi42LTYgOC44bC0uMy4yem0tNy40LTE0bDcuNyAxMy4zYzMuOS0xLjQgNS45LTQuNCA1LjMtOC0uNi0zLjQtMy43LTYuOS03LjktNi45LTEuNy0uMS0zLjQuNC01LjEgMS42eiIgY2xpcC1wYXRoPSJ1cmwoI2dvLW9yaWdpbmFsLWIpIi8+PHBhdGggZmlsbC1ydWxlPSJldmVub2RkIiBjbGlwLXJ1bGU9ImV2ZW5vZGQiIGZpbGw9IiNGNkQyQTIiIGQ9Ik05MiAxMTIuM2MyLjcgMS43IDcuNyA2LjggMy42IDkuMy0zLjkgMy42LTYuMS00LTkuNi01IDEuNS0yIDMuNC0zLjkgNi00LjMiIGNsaXAtcGF0aD0idXJsKCNnby1vcmlnaW5hbC1iKSIvPjxwYXRoIGQ9Ik05My41IDEyMi45Yy0xLjYgMC0zLTEuNi00LjItMy4xLTEuMS0xLjItMi4yLTIuNS0zLjQtMi45bC0uNS0uMS4zLS40YzEuMi0xLjcgMy4yLTMuOSA2LjItNC40aC4xbC4xLjFjMS43IDEuMSA1LjQgNC4yIDUuMyA3LjEgMCAxLjEtLjYgMi0xLjcgMi43LS43LjctMS40IDEtMi4yIDF6bS03LTYuNWMxLjIuNSAyLjIgMS44IDMuMiAyLjkgMS4yIDEuNSAyLjQgMi44IDMuNyAyLjguNiAwIDEuMi0uMyAxLjgtLjloLjFjLjktLjYgMS40LTEuMyAxLjQtMi4yIDAtMi4zLTIuOS01LjItNC45LTYuNS0xLjguNS0zLjYgMS43LTUuMyAzLjl6bTkuMSA1LjVjLS4xIDAtLjItLjEtLjMtLjItLjItLjQtLjQtLjktLjUtMS4zLS4zLS44LS42LTEuNi0xLjItMi4yLS4xLS4xLS4xLS4zIDAtLjUuMS0uMS4zLS4xLjUgMCAuNy43IDEuMSAxLjYgMS40IDIuNWwuNSAxLjJjLjEuMiAwIC40LS4xLjVoLS4zeiIgY2xpcC1wYXRoPSJ1cmwoI2dvLW9yaWdpbmFsLWIpIi8+PHBhdGggZmlsbC1ydWxlPSJldmVub2RkIiBjbGlwLXJ1bGU9ImV2ZW5vZGQiIGZpbGw9IiNGNkQyQTIiIGQ9Ik00My4yIDExOC4xYy0zLjIuNS01IDMuNC03LjcgNC45LTIuNSAxLjUtMy41LS41LTMuNy0uOS0uNC0uMi0uNC4yLTEtLjQtMi4zLTMuNyAyLjQtNi40IDQuOS04LjIgMy41LS44IDUuNyAyLjIgNy41IDQuNiIgY2xpcC1wYXRoPSJ1cmwoI2dvLW9yaWdpbmFsLWIpIi8+PHBhdGggZD0iTTMzLjggMTIzLjhjLTEuMyAwLTItMS4xLTIuMi0xLjVoLS4xYy0uMyAwLS41LS4xLS45LS41di0uMWMtMi4yLTMuNSAxLjYtNi4yIDQuMS04bC45LS42aC4yYy40LS4xLjctLjEgMS4xLS4xIDMgMCA0LjkgMi42IDYuNSA0LjdsLjUuNy0uNi4xYy0xLjkuMy0zLjMgMS41LTQuNyAyLjctLjkuOC0xLjggMS41LTIuOCAyLjEtLjguMy0xLjQuNS0yIC41em0tMi4yLTIuMWMuMSAwIC4yIDAgLjQuMWguMWwuMS4xYy4yLjMuNyAxLjIgMS43IDEuMi41IDAgMS0uMiAxLjUtLjUgMS0uNSAxLjktMS4zIDIuNy0yIDEuMy0xLjEgMi43LTIuMyA0LjUtMi44LTEuNS0yLTMuMy00LjItNS44LTQuMi0uMyAwLS42IDAtLjkuMWwtLjguNmMtMi42IDEuOC01LjggNC4xLTMuOSA3LjEuMS4yLjIuMy40LjN6bS4yLjdjLS4yIDAtLjQtLjItLjMtLjQuMS0xIC42LTEuNyAxLjEtMi41LjMtLjQuNS0uOC43LTEuMi4xLS4yLjMtLjIuNC0uMi4yLjEuMi4zLjIuNC0uMi41LS41LjktLjggMS4zLS41LjctLjkgMS4zLTEgMi4xIDAgLjQtLjEuNS0uMy41eiIgY2xpcC1wYXRoPSJ1cmwoI2dvLW9yaWdpbmFsLWIpIi8+PHBhdGggZmlsbC1ydWxlPSJldmVub2RkIiBjbGlwLXJ1bGU9ImV2ZW5vZGQiIGQ9Ik0yOS45IDIxLjdjLTEuOC0uOS0zLjEtMi4yLTItNC4zIDEtMS45IDIuOS0xLjcgNC43LS44bC0yLjcgNS4xem02NC45LTEuOGMxLjgtLjkgMy4xLTIuMiAyLTQuMy0xLTEuOS0yLjktMS43LTQuNy0uOGwyLjcgNS4xeiIgY2xpcC1wYXRoPSJ1cmwoI2dvLW9yaWdpbmFsLWIpIi8+PHBhdGggZmlsbC1ydWxlPSJldmVub2RkIiBjbGlwLXJ1bGU9ImV2ZW5vZGQiIGZpbGw9IiNGNkQyQTIiIGQ9Ik0xMDcuMSA2OC4yYy0uMiAzLjUtMy43IDEuOS01LjMuOC0xLjUtMS4xLTItLjItMi4xLTIuMy0uMS0xLjQtLjItMi43LS4yLTQuMSAyLjMtLjIgNC44LjMgNi43IDEuNyAxIC44IDIuOCAzIC45IDMuOSIgY2xpcC1wYXRoPSJ1cmwoI2dvLW9yaWdpbmFsLWIpIi8+PHBhdGggZD0iTTEwNS4zIDcwLjdjLTEuNSAwLTMuMi0xLjEtMy43LTEuNC0uNS0uMy0uOC0uNS0xLjEtLjYtLjgtLjMtMS0uNS0xLjEtMiAwLS4zIDAtLjYtLjEtLjktLjEtMS0uMi0yLjEtLjEtMy4ydi0uM2gxLjNjMi4yIDAgNC4zLjYgNS45IDEuOC43LjUgMiAxLjkgMS45IDMuMSAwIC40LS4yLjktLjggMS4yLS4yIDItMS41IDIuMy0yLjIgMi4zek05OS44IDYzYzAgLjkgMCAxLjkuMSAyLjggMCAuMyAwIC42LjEuOS4xIDEuMi4yIDEuMi43IDEuNC4zLjEuNy4zIDEuMy42LjkuNiAyLjMgMS4zIDMuMyAxLjMuNiAwIDEuNC0uMiAxLjUtMS44VjY4bC4yLS4xYy40LS4yLjYtLjQuNi0uOC4xLS44LS45LTItMS42LTIuNS0xLjUtMS4xLTMuNS0xLjctNS41LTEuNy0uMi4xLS40LjEtLjcuMXoiIGNsaXAtcGF0aD0idXJsKCNnby1vcmlnaW5hbC1iKSIvPjxwYXRoIGZpbGwtcnVsZT0iZXZlbm9kZCIgY2xpcC1ydWxlPSJldmVub2RkIiBmaWxsPSIjQzZCMTk4IiBkPSJNMTA3LjEgNjguMmMtLjUtLjItMS4xLS4zLTEuNC0uOCIgY2xpcC1wYXRoPSJ1cmwoI2dvLW9yaWdpbmFsLWIpIi8+PHBhdGggZD0iTTEwNy4xIDY4LjZoLS4xbC0uMi0uMWMtLjUtLjItMS0uMy0xLjMtLjgtLjEtLjEtLjEtLjQuMS0uNS4xLS4xLjQtLjEuNS4xLjIuMy42LjQgMSAuNi4xIDAgLjIuMS4yLjEuMi4xLjMuMy4yLjQtLjEuMS0uMy4yLS40LjJ6IiBjbGlwLXBhdGg9InVybCgjZ28tb3JpZ2luYWwtYikiLz48cGF0aCBmaWxsLXJ1bGU9ImV2ZW5vZGQiIGNsaXAtcnVsZT0iZXZlbm9kZCIgZmlsbD0iIzZBRDdFNSIgZD0iTTYyLjggNGMxMy42IDAgMjYuMyAxLjkgMzMgMTUgNiAxNC42IDMuOCAzMC40IDQuOCA0NS45LjggMTMuMyAyLjUgMjguNi0zLjYgNDAuOS02LjUgMTIuOS0yMi43IDE2LjItMzYgMTUuNy0xMC41LS40LTIzLjEtMy44LTI5LjEtMTMuNC02LjktMTEuMi0zLjctMjcuOS0zLjItNDAuNC42LTE0LjgtNC0yOS43LjktNDQuMUMzNC41IDguNSA0OC4xIDUuMSA2Mi44IDQiIGNsaXAtcGF0aD0idXJsKCNnby1vcmlnaW5hbC1iKSIvPjxwYXRoIGQ9Ik02My4zIDEyMS45aC0yLjVjLTQuMS0uMS0xMC4zLS44LTE2LjQtMy4zLTUuOS0yLjQtMTAuMi01LjgtMTMtMTAuMy01LjYtOS4xLTQuNi0yMS42LTMuNy0zMi43LjItMi44LjQtNS40LjUtNy45LjItNS4yLS4yLTEwLjYtLjctMTUuNy0uOC05LjQtMS42LTE5LjEgMS41LTI4LjUgMi40LTcgNi43LTEyIDEzLjItMTUuMiA1LjEtMi41IDExLjQtMy45IDIwLjQtNC42Qzc2IDMuNiA4OS4zIDUuNSA5NiAxOC44YzQuNCAxMC43IDQuNCAyMi4yIDQuNSAzMy4zIDAgNC4yIDAgOC41LjMgMTIuNy4xIDEuMy4yIDIuNi4yIDMuOS44IDEyLjIgMS43IDI2LTMuOSAzNy4yLTIuOCA1LjctNy43IDkuOS0xNC40IDEyLjYtNS40IDIuMi0xMi4yIDMuNC0xOS40IDMuNHpNNjIuOCA0LjNjLTE0LjEgMS4xLTI3LjkgNC4yLTMzIDE5LjQtMy4xIDkuMy0yLjMgMTguOS0xLjUgMjguMi40IDUuMi45IDEwLjUuNyAxNS44LS4xIDIuNS0uMyA1LjEtLjUgNy45LS45IDExLTEuOSAyMy40IDMuNiAzMi4zIDIuMyAzLjcgOS43IDEyLjUgMjguOCAxMy4yaDIuNWMyMi4xIDAgMzAuMy05LjggMzMuMy0xNS42IDUuNS0xMSA0LjYtMjQuOCAzLjktMzYuOS0uMS0xLjMtLjItMi42LS4yLTMuOS0uMi00LjItLjMtOC41LS4zLTEyLjctLjEtMTEtLjEtMjIuNS00LjQtMzMuMUM5Mi43IDEzIDg4LjIgOSA4MiA2LjdjLTYuNC0yLjEtMTMuNi0yLjQtMTkuMi0yLjR6IiBjbGlwLXBhdGg9InVybCgjZ28tb3JpZ2luYWwtYikiLz48cGF0aCBmaWxsLXJ1bGU9ImV2ZW5vZGQiIGNsaXAtcnVsZT0iZXZlbm9kZCIgZmlsbD0iI2ZmZiIgZD0iTTY1LjIgMjIuMmMyLjQgMTQuMiAyNS42IDEwLjQgMjIuMy0zLjktMy0xMi44LTIzLjEtOS4yLTIyLjMgMy45IiBjbGlwLXBhdGg9InVybCgjZ28tb3JpZ2luYWwtYikiLz48cGF0aCBkPSJNNzYuMiAzMS41Yy00LjUgMC0xMC4yLTIuNC0xMS40LTkuMi0uMi0zLjIuOC02LjEgMi45LTguMyAyLjMtMi41IDUuOC0zLjkgOS40LTMuOSA0LjIgMCA5LjIgMi4yIDEwLjYgOC4zLjggMy40LjIgNi40LTEuNyA4LjgtMi4xIDIuNi01LjggNC4zLTkuOCA0LjN6bS0xMC43LTkuM2MuNSAyLjggMS44IDUgMy45IDYuNiAxLjggMS40IDQuMyAyLjEgNi44IDIuMSAzLjcgMCA3LjMtMS42IDkuMy00LjEgMS44LTIuMiAyLjMtNS4xIDEuNi04LjMtMS4zLTUuNy02LTcuNy0xMC03LjctMy40IDAtNi43IDEuNC04LjkgMy43LTEuOSAyLTIuOSA0LjctMi43IDcuN3oiIGNsaXAtcGF0aD0idXJsKCNnby1vcmlnaW5hbC1iKSIvPjxwYXRoIGZpbGwtcnVsZT0iZXZlbm9kZCIgY2xpcC1ydWxlPSJldmVub2RkIiBmaWxsPSIjZmZmIiBkPSJNMzcuNSAyNC41YzMuMiAxMi4zIDIyLjkgOS4yIDIyLjItMy4yLS45LTE0LjgtMjUuMy0xMi0yMi4yIDMuMiIgY2xpcC1wYXRoPSJ1cmwoI2dvLW9yaWdpbmFsLWIpIi8+PHBhdGggZD0iTTQ4IDMyLjdjLTQuMyAwLTkuMy0yLjEtMTAuOS04LjEtLjctMy41IDAtNi43IDItOS4xIDIuMi0yLjcgNS44LTQuMyA5LjctNC4zIDUuMiAwIDEwLjcgMy4xIDExLjEgMTAuMS4yIDIuOS0uNyA1LjUtMi43IDcuNi0yLjEgMi4zLTUuNiAzLjgtOS4yIDMuOHptLjgtMjAuOGMtMy43IDAtNy4xIDEuNS05LjIgNC0xLjkgMi4zLTIuNSA1LjItMS44IDguNUMzOS4yIDMwIDQ0IDMyIDQ4IDMyYzMuNCAwIDYuNy0xLjMgOC44LTMuNiAxLjgtMS45IDIuNy00LjQgMi41LTcuMS0uMi00LjMtMy4xLTkuNC0xMC41LTkuNHoiIGNsaXAtcGF0aD0idXJsKCNnby1vcmlnaW5hbC1iKSIvPjxwYXRoIGZpbGwtcnVsZT0iZXZlbm9kZCIgY2xpcC1ydWxlPSJldmVub2RkIiBmaWxsPSIjZmZmIiBkPSJNNjggMzkuMmMwIDEuOC40IDMuOS4xIDUuOS0uNS45LTEuNCAxLTIuMiAxLjMtMS4xLS4yLTItLjktMi41LTEuOS0uMy0yLjIuMS00LjQuMi02LjZsNC40IDEuM3oiIGNsaXAtcGF0aD0idXJsKCNnby1vcmlnaW5hbC1iKSIvPjxwYXRoIGQ9Ik02NS45IDQ2LjhjLTEuMy0uMi0yLjMtMS0yLjgtMi4xLS4yLTEuNi0uMS0zLjEgMC00LjYuMS0uNy4xLTEuNC4xLTIuMXYtLjRsNS4xIDEuNnYuMmMwIC42LjEgMS4yLjEgMS45LjEgMS4zLjIgMi43IDAgNHYuMWMtLjQuOC0xLjEgMS0xLjggMS4zLS4yLS4xLS40IDAtLjcuMXptLTIuMi0yLjRjLjQuOSAxLjIgMS41IDIuMSAxLjcuMi0uMS40LS4xLjUtLjIuNi0uMiAxLjEtLjQgMS40LS45LjItMS4yLjEtMi41IDAtMy44IDAtLjYtLjEtMS4yLS4xLTEuN2wtMy44LTEuMmMwIC42LS4xIDEuMi0uMSAxLjctLjEgMS42LS4yIDMgMCA0LjR6IiBjbGlwLXBhdGg9InVybCgjZ28tb3JpZ2luYWwtYikiLz48cGF0aCBmaWxsLXJ1bGU9ImV2ZW5vZGQiIGNsaXAtcnVsZT0iZXZlbm9kZCIgZD0iTTQ2LjMgMjIuNWMwIDItMS41IDMuNi0zLjMgMy42LTEuOCAwLTMuMy0xLjYtMy4zLTMuNnMxLjUtMy42IDMuMy0zLjZjMS44IDAgMy4zIDEuNiAzLjMgMy42IiBjbGlwLXBhdGg9InVybCgjZ28tb3JpZ2luYWwtYikiLz48cGF0aCBmaWxsLXJ1bGU9ImV2ZW5vZGQiIGNsaXAtcnVsZT0iZXZlbm9kZCIgZmlsbD0iI2ZmZiIgZD0iTTQ1LjIgMjMuM2MwIC41LS40LjktLjguOXMtLjgtLjQtLjgtLjkuNC0uOS44LS45Yy41IDAgLjguNC44LjkiIGNsaXAtcGF0aD0idXJsKCNnby1vcmlnaW5hbC1iKSIvPjxwYXRoIGZpbGwtcnVsZT0iZXZlbm9kZCIgY2xpcC1ydWxlPSJldmVub2RkIiBkPSJNNzQuMiAyMS42YzAgMi0xLjUgMy42LTMuMyAzLjYtMS44IDAtMy4zLTEuNi0zLjMtMy42czEuNS0zLjYgMy4zLTMuNmMxLjggMCAzLjMgMS42IDMuMyAzLjYiIGNsaXAtcGF0aD0idXJsKCNnby1vcmlnaW5hbC1iKSIvPjxwYXRoIGZpbGwtcnVsZT0iZXZlbm9kZCIgY2xpcC1ydWxlPSJldmVub2RkIiBmaWxsPSIjZmZmIiBkPSJNNzMuMiAyMi40YzAgLjUtLjMuOS0uOC45LS40IDAtLjgtLjQtLjgtLjlzLjMtLjkuOC0uOWMuNCAwIC44LjQuOC45TTU4LjQgMzljLTEuNSAzLjUuOCAxMC42IDQuOCA1LjQtLjMtMi4yLjEtNC40LjItNi42bC01IDEuMnoiIGNsaXAtcGF0aD0idXJsKCNnby1vcmlnaW5hbC1iKSIvPjxwYXRoIGQ9Ik02MC41IDQ2LjZjLS43IDAtMS40LS40LTEuOS0xLjItMS4xLTEuNi0xLjMtNC42LS41LTYuNWwuMS0uMiA1LjUtMS40di40bC0uMSAyLjJjLS4xIDEuNS0uMiAyLjkgMCA0LjR2LjFsLS4xLjFjLTEgMS40LTIgMi4xLTMgMi4xem0tMS44LTcuM2MtLjYgMS43LS40IDQuNC41IDUuNy40LjYuOC45IDEuMy45LjcgMCAxLjUtLjYgMi4zLTEuNi0uMi0xLjUtLjEtMyAuMS00LjRsLjEtMS43LTQuMyAxLjF6IiBjbGlwLXBhdGg9InVybCgjZ28tb3JpZ2luYWwtYikiLz48cGF0aCBmaWxsLXJ1bGU9ImV2ZW5vZGQiIGNsaXAtcnVsZT0iZXZlbm9kZCIgZmlsbD0iI0Y2RDJBMiIgZD0iTTU4LjkgMzIuMmMtMi43LjItNC45IDMuNS0zLjUgNiAxLjkgMy40IDYtLjMgOC42IDAgMyAuMSA1LjQgMy4yIDcuOC42IDIuNy0yLjktMS4yLTUuNy00LjEtN2wtOC44LjR6IiBjbGlwLXBhdGg9InVybCgjZ28tb3JpZ2luYWwtYikiLz48cGF0aCBmaWxsPSIjMjMxRjIwIiBkPSJNNjkuNyA0MC4yYy0uOSAwLTEuOC0uNC0yLjctLjgtLjktLjQtMS45LS44LTMtLjhoLS4zYy0uOCAwLTEuNy4zLTIuNy43LTEuMS40LTIuMi43LTMuMi43LTEuMiAwLTIuMS0uNS0yLjctMS42LS43LTEuMi0uNi0yLjYuMS0zLjkuOC0xLjUgMi4yLTIuNCAzLjctMi42bDguOS0uNGguMWMyLjIuOSA0LjcgMi42IDUuMiA0LjYuMiAxLS4xIDItLjkgMi45LS44LjktMS42IDEuMi0yLjUgMS4yek02NC4xIDM4YzEuMSAwIDIuMi41IDMuMi45LjkuNCAxLjcuNyAyLjUuNy43IDAgMS4zLS4zIDEuOS0uOS43LS43LjktMS41LjgtMi4zLS40LTEuNy0yLjgtMy4zLTQuNy00LjFsLTguNy40Yy0xLjMuMS0yLjUgMS0zLjIgMi4yLS42IDEuMS0uNiAyLjMtLjEgMy4zLjUuOSAxLjEgMS4zIDIuMSAxLjMuOSAwIDEuOS0uNCAyLjktLjcgMS4xLS40IDItLjcgMy0uNyAwLS4yLjEtLjIuMy0uMXoiIGNsaXAtcGF0aD0idXJsKCNnby1vcmlnaW5hbC1iKSIvPjxwYXRoIGZpbGwtcnVsZT0iZXZlbm9kZCIgY2xpcC1ydWxlPSJldmVub2RkIiBkPSJNNTguNiAzMi4xYy0uMi00LjcgOC44LTUuMyA5LjgtMS40IDEuMSA0LTkuNCA0LjktOS44IDEuNCIgY2xpcC1wYXRoPSJ1cmwoI2dvLW9yaWdpbmFsLWIpIi8+PC9zdmc+" parent="1" vertex="1">
          <mxGeometry x="629.66" y="166" width="88" height="88" as="geometry" />
        </mxCell>
        <mxCell id="OOMBXD3BXPfqDJGDftCW-7" value="" style="shape=image;verticalLabelPosition=bottom;verticalAlign=top;imageAspect=0;aspect=fixed;image=data:image/svg+xml,PHN2ZyB4bWxucz0iaHR0cDovL3d3dy53My5vcmcvMjAwMC9zdmciIHhtbG5zOnhsaW5rPSJodHRwOi8vd3d3LnczLm9yZy8xOTk5L3hsaW5rIiB2aWV3Qm94PSIwIDAgMTI4IDEyOCI+PGRlZnM+PHBhdGggaWQ9ImdvLW9yaWdpbmFsLWEiIGQ9Ik0xOC44IDFoOTAuNXYxMjZIMTguOHoiLz48L2RlZnM+PGNsaXBQYXRoIGlkPSJnby1vcmlnaW5hbC1iIj48dXNlIHhsaW5rOmhyZWY9IiNnby1vcmlnaW5hbC1hIiBvdmVyZmxvdz0idmlzaWJsZSIvPjwvY2xpcFBhdGg+PHBhdGggZmlsbC1ydWxlPSJldmVub2RkIiBjbGlwLXJ1bGU9ImV2ZW5vZGQiIGZpbGw9IiNGNkQyQTIiIGQ9Ik0yMS4xIDY4LjdjLjIgMy41IDMuNyAxLjkgNS4zLjggMS41LTEuMSAyLS4yIDIuMS0yLjMuMS0xLjQuMi0yLjcuMi00LjEtMi4zLS4yLTQuOC4zLTYuNyAxLjctLjkuNy0yLjggMy0uOSAzLjkiIGNsaXAtcGF0aD0idXJsKCNnby1vcmlnaW5hbC1iKSIvPjxwYXRoIGQ9Ik0yMyA3MS4yYy0uNyAwLTItLjMtMi4yLTIuMy0uNi0uNC0uOC0uOS0uOC0xLjItLjEtMS4yIDEuMi0yLjYgMS45LTMuMSAxLjYtMS4yIDMuNy0xLjggNS45LTEuOGgxLjN2LjNjLjEgMS4xIDAgMi4yLS4xIDMuMiAwIC4zIDAgLjYtLjEuOS0uMSAxLjUtLjQgMS43LTEuMSAyLS4zLjEtLjYuMi0xLjEuNi0uNS4zLTIuMiAxLjQtMy43IDEuNHptNC44LTcuOGMtMi4xIDAtNCAuNi01LjUgMS43LS43LjUtMS43IDEuNy0xLjYgMi41IDAgLjMuMi42LjYuOGwuMi4xdi4yYy4xIDEuNi45IDEuOCAxLjUgMS44IDEgMCAyLjQtLjcgMy4zLTEuMy42LS40IDEtLjUgMS4zLS42LjUtLjIuNi0uMi43LTEuNCAwLS4zIDAtLjYuMS0uOS4xLS45LjEtMS45LjEtMi44LS4zLS4xLS41LS4xLS43LS4xeiIgY2xpcC1wYXRoPSJ1cmwoI2dvLW9yaWdpbmFsLWIpIi8+PHBhdGggZmlsbC1ydWxlPSJldmVub2RkIiBjbGlwLXJ1bGU9ImV2ZW5vZGQiIGZpbGw9IiNDNkIxOTgiIGQ9Ik0yMS4xIDY4LjdjLjUtLjIgMS4xLS4zIDEuNC0uOCIgY2xpcC1wYXRoPSJ1cmwoI2dvLW9yaWdpbmFsLWIpIi8+PHBhdGggZD0iTTIxLjEgNjljLS4xIDAtLjMtLjEtLjMtLjItLjEtLjIgMC0uNC4yLS40LjEgMCAuMi0uMS4yLS4xLjQtLjIuOC0uMyAxLS42LjEtLjEuMy0uMi41LS4xLjEuMS4yLjMuMS41LS40LjUtLjkuNy0xLjMuOGwtLjIuMWgtLjJ6IiBjbGlwLXBhdGg9InVybCgjZ28tb3JpZ2luYWwtYikiLz48cGF0aCBmaWxsLXJ1bGU9ImV2ZW5vZGQiIGNsaXAtcnVsZT0iZXZlbm9kZCIgZmlsbD0iIzZBRDdFNSIgZD0iTTI5LjMgMjYuNGMtMTMuNi0zLjgtMy41LTIxLjEgNy40LTE0bC03LjQgMTR6IiBjbGlwLXBhdGg9InVybCgjZ28tb3JpZ2luYWwtYikiLz48cGF0aCBkPSJNMjkuNSAyNi44bC0uMy0uMWMtNy0yLTYuOS03LTYuNy04LjUuNS0zLjggNC4xLTcuOCA4LjktNy44IDEuOSAwIDMuNy42IDUuNSAxLjhsLjMuMi03LjcgMTQuNHptMS45LTE1LjdjLTQuNSAwLTcuOCAzLjctOC4zIDcuMi0uNSAzLjYgMS43IDYuNCA2IDcuN2w3LjEtMTMuNWMtMS41LS45LTMuMS0xLjQtNC44LTEuNHoiIGNsaXAtcGF0aD0idXJsKCNnby1vcmlnaW5hbC1iKSIvPjxwYXRoIGZpbGwtcnVsZT0iZXZlbm9kZCIgY2xpcC1ydWxlPSJldmVub2RkIiBmaWxsPSIjNkFEN0U1IiBkPSJNODkuNiAxMS4xYzEwLjctNy41IDIwLjUgOS41IDggMTMuOGwtOC0xMy44eiIgY2xpcC1wYXRoPSJ1cmwoI2dvLW9yaWdpbmFsLWIpIi8+PHBhdGggZD0iTTk3LjUgMjUuM0w4OS4yIDExbC4zLS4yYzEuOS0xLjMgMy44LTIgNS43LTIgNC42IDAgNy45IDMuOCA4LjYgNy41LjMgMS41LjYgNi42LTYgOC44bC0uMy4yem0tNy40LTE0bDcuNyAxMy4zYzMuOS0xLjQgNS45LTQuNCA1LjMtOC0uNi0zLjQtMy43LTYuOS03LjktNi45LTEuNy0uMS0zLjQuNC01LjEgMS42eiIgY2xpcC1wYXRoPSJ1cmwoI2dvLW9yaWdpbmFsLWIpIi8+PHBhdGggZmlsbC1ydWxlPSJldmVub2RkIiBjbGlwLXJ1bGU9ImV2ZW5vZGQiIGZpbGw9IiNGNkQyQTIiIGQ9Ik05MiAxMTIuM2MyLjcgMS43IDcuNyA2LjggMy42IDkuMy0zLjkgMy42LTYuMS00LTkuNi01IDEuNS0yIDMuNC0zLjkgNi00LjMiIGNsaXAtcGF0aD0idXJsKCNnby1vcmlnaW5hbC1iKSIvPjxwYXRoIGQ9Ik05My41IDEyMi45Yy0xLjYgMC0zLTEuNi00LjItMy4xLTEuMS0xLjItMi4yLTIuNS0zLjQtMi45bC0uNS0uMS4zLS40YzEuMi0xLjcgMy4yLTMuOSA2LjItNC40aC4xbC4xLjFjMS43IDEuMSA1LjQgNC4yIDUuMyA3LjEgMCAxLjEtLjYgMi0xLjcgMi43LS43LjctMS40IDEtMi4yIDF6bS03LTYuNWMxLjIuNSAyLjIgMS44IDMuMiAyLjkgMS4yIDEuNSAyLjQgMi44IDMuNyAyLjguNiAwIDEuMi0uMyAxLjgtLjloLjFjLjktLjYgMS40LTEuMyAxLjQtMi4yIDAtMi4zLTIuOS01LjItNC45LTYuNS0xLjguNS0zLjYgMS43LTUuMyAzLjl6bTkuMSA1LjVjLS4xIDAtLjItLjEtLjMtLjItLjItLjQtLjQtLjktLjUtMS4zLS4zLS44LS42LTEuNi0xLjItMi4yLS4xLS4xLS4xLS4zIDAtLjUuMS0uMS4zLS4xLjUgMCAuNy43IDEuMSAxLjYgMS40IDIuNWwuNSAxLjJjLjEuMiAwIC40LS4xLjVoLS4zeiIgY2xpcC1wYXRoPSJ1cmwoI2dvLW9yaWdpbmFsLWIpIi8+PHBhdGggZmlsbC1ydWxlPSJldmVub2RkIiBjbGlwLXJ1bGU9ImV2ZW5vZGQiIGZpbGw9IiNGNkQyQTIiIGQ9Ik00My4yIDExOC4xYy0zLjIuNS01IDMuNC03LjcgNC45LTIuNSAxLjUtMy41LS41LTMuNy0uOS0uNC0uMi0uNC4yLTEtLjQtMi4zLTMuNyAyLjQtNi40IDQuOS04LjIgMy41LS44IDUuNyAyLjIgNy41IDQuNiIgY2xpcC1wYXRoPSJ1cmwoI2dvLW9yaWdpbmFsLWIpIi8+PHBhdGggZD0iTTMzLjggMTIzLjhjLTEuMyAwLTItMS4xLTIuMi0xLjVoLS4xYy0uMyAwLS41LS4xLS45LS41di0uMWMtMi4yLTMuNSAxLjYtNi4yIDQuMS04bC45LS42aC4yYy40LS4xLjctLjEgMS4xLS4xIDMgMCA0LjkgMi42IDYuNSA0LjdsLjUuNy0uNi4xYy0xLjkuMy0zLjMgMS41LTQuNyAyLjctLjkuOC0xLjggMS41LTIuOCAyLjEtLjguMy0xLjQuNS0yIC41em0tMi4yLTIuMWMuMSAwIC4yIDAgLjQuMWguMWwuMS4xYy4yLjMuNyAxLjIgMS43IDEuMi41IDAgMS0uMiAxLjUtLjUgMS0uNSAxLjktMS4zIDIuNy0yIDEuMy0xLjEgMi43LTIuMyA0LjUtMi44LTEuNS0yLTMuMy00LjItNS44LTQuMi0uMyAwLS42IDAtLjkuMWwtLjguNmMtMi42IDEuOC01LjggNC4xLTMuOSA3LjEuMS4yLjIuMy40LjN6bS4yLjdjLS4yIDAtLjQtLjItLjMtLjQuMS0xIC42LTEuNyAxLjEtMi41LjMtLjQuNS0uOC43LTEuMi4xLS4yLjMtLjIuNC0uMi4yLjEuMi4zLjIuNC0uMi41LS41LjktLjggMS4zLS41LjctLjkgMS4zLTEgMi4xIDAgLjQtLjEuNS0uMy41eiIgY2xpcC1wYXRoPSJ1cmwoI2dvLW9yaWdpbmFsLWIpIi8+PHBhdGggZmlsbC1ydWxlPSJldmVub2RkIiBjbGlwLXJ1bGU9ImV2ZW5vZGQiIGQ9Ik0yOS45IDIxLjdjLTEuOC0uOS0zLjEtMi4yLTItNC4zIDEtMS45IDIuOS0xLjcgNC43LS44bC0yLjcgNS4xem02NC45LTEuOGMxLjgtLjkgMy4xLTIuMiAyLTQuMy0xLTEuOS0yLjktMS43LTQuNy0uOGwyLjcgNS4xeiIgY2xpcC1wYXRoPSJ1cmwoI2dvLW9yaWdpbmFsLWIpIi8+PHBhdGggZmlsbC1ydWxlPSJldmVub2RkIiBjbGlwLXJ1bGU9ImV2ZW5vZGQiIGZpbGw9IiNGNkQyQTIiIGQ9Ik0xMDcuMSA2OC4yYy0uMiAzLjUtMy43IDEuOS01LjMuOC0xLjUtMS4xLTItLjItMi4xLTIuMy0uMS0xLjQtLjItMi43LS4yLTQuMSAyLjMtLjIgNC44LjMgNi43IDEuNyAxIC44IDIuOCAzIC45IDMuOSIgY2xpcC1wYXRoPSJ1cmwoI2dvLW9yaWdpbmFsLWIpIi8+PHBhdGggZD0iTTEwNS4zIDcwLjdjLTEuNSAwLTMuMi0xLjEtMy43LTEuNC0uNS0uMy0uOC0uNS0xLjEtLjYtLjgtLjMtMS0uNS0xLjEtMiAwLS4zIDAtLjYtLjEtLjktLjEtMS0uMi0yLjEtLjEtMy4ydi0uM2gxLjNjMi4yIDAgNC4zLjYgNS45IDEuOC43LjUgMiAxLjkgMS45IDMuMSAwIC40LS4yLjktLjggMS4yLS4yIDItMS41IDIuMy0yLjIgMi4zek05OS44IDYzYzAgLjkgMCAxLjkuMSAyLjggMCAuMyAwIC42LjEuOS4xIDEuMi4yIDEuMi43IDEuNC4zLjEuNy4zIDEuMy42LjkuNiAyLjMgMS4zIDMuMyAxLjMuNiAwIDEuNC0uMiAxLjUtMS44VjY4bC4yLS4xYy40LS4yLjYtLjQuNi0uOC4xLS44LS45LTItMS42LTIuNS0xLjUtMS4xLTMuNS0xLjctNS41LTEuNy0uMi4xLS40LjEtLjcuMXoiIGNsaXAtcGF0aD0idXJsKCNnby1vcmlnaW5hbC1iKSIvPjxwYXRoIGZpbGwtcnVsZT0iZXZlbm9kZCIgY2xpcC1ydWxlPSJldmVub2RkIiBmaWxsPSIjQzZCMTk4IiBkPSJNMTA3LjEgNjguMmMtLjUtLjItMS4xLS4zLTEuNC0uOCIgY2xpcC1wYXRoPSJ1cmwoI2dvLW9yaWdpbmFsLWIpIi8+PHBhdGggZD0iTTEwNy4xIDY4LjZoLS4xbC0uMi0uMWMtLjUtLjItMS0uMy0xLjMtLjgtLjEtLjEtLjEtLjQuMS0uNS4xLS4xLjQtLjEuNS4xLjIuMy42LjQgMSAuNi4xIDAgLjIuMS4yLjEuMi4xLjMuMy4yLjQtLjEuMS0uMy4yLS40LjJ6IiBjbGlwLXBhdGg9InVybCgjZ28tb3JpZ2luYWwtYikiLz48cGF0aCBmaWxsLXJ1bGU9ImV2ZW5vZGQiIGNsaXAtcnVsZT0iZXZlbm9kZCIgZmlsbD0iIzZBRDdFNSIgZD0iTTYyLjggNGMxMy42IDAgMjYuMyAxLjkgMzMgMTUgNiAxNC42IDMuOCAzMC40IDQuOCA0NS45LjggMTMuMyAyLjUgMjguNi0zLjYgNDAuOS02LjUgMTIuOS0yMi43IDE2LjItMzYgMTUuNy0xMC41LS40LTIzLjEtMy44LTI5LjEtMTMuNC02LjktMTEuMi0zLjctMjcuOS0zLjItNDAuNC42LTE0LjgtNC0yOS43LjktNDQuMUMzNC41IDguNSA0OC4xIDUuMSA2Mi44IDQiIGNsaXAtcGF0aD0idXJsKCNnby1vcmlnaW5hbC1iKSIvPjxwYXRoIGQ9Ik02My4zIDEyMS45aC0yLjVjLTQuMS0uMS0xMC4zLS44LTE2LjQtMy4zLTUuOS0yLjQtMTAuMi01LjgtMTMtMTAuMy01LjYtOS4xLTQuNi0yMS42LTMuNy0zMi43LjItMi44LjQtNS40LjUtNy45LjItNS4yLS4yLTEwLjYtLjctMTUuNy0uOC05LjQtMS42LTE5LjEgMS41LTI4LjUgMi40LTcgNi43LTEyIDEzLjItMTUuMiA1LjEtMi41IDExLjQtMy45IDIwLjQtNC42Qzc2IDMuNiA4OS4zIDUuNSA5NiAxOC44YzQuNCAxMC43IDQuNCAyMi4yIDQuNSAzMy4zIDAgNC4yIDAgOC41LjMgMTIuNy4xIDEuMy4yIDIuNi4yIDMuOS44IDEyLjIgMS43IDI2LTMuOSAzNy4yLTIuOCA1LjctNy43IDkuOS0xNC40IDEyLjYtNS40IDIuMi0xMi4yIDMuNC0xOS40IDMuNHpNNjIuOCA0LjNjLTE0LjEgMS4xLTI3LjkgNC4yLTMzIDE5LjQtMy4xIDkuMy0yLjMgMTguOS0xLjUgMjguMi40IDUuMi45IDEwLjUuNyAxNS44LS4xIDIuNS0uMyA1LjEtLjUgNy45LS45IDExLTEuOSAyMy40IDMuNiAzMi4zIDIuMyAzLjcgOS43IDEyLjUgMjguOCAxMy4yaDIuNWMyMi4xIDAgMzAuMy05LjggMzMuMy0xNS42IDUuNS0xMSA0LjYtMjQuOCAzLjktMzYuOS0uMS0xLjMtLjItMi42LS4yLTMuOS0uMi00LjItLjMtOC41LS4zLTEyLjctLjEtMTEtLjEtMjIuNS00LjQtMzMuMUM5Mi43IDEzIDg4LjIgOSA4MiA2LjdjLTYuNC0yLjEtMTMuNi0yLjQtMTkuMi0yLjR6IiBjbGlwLXBhdGg9InVybCgjZ28tb3JpZ2luYWwtYikiLz48cGF0aCBmaWxsLXJ1bGU9ImV2ZW5vZGQiIGNsaXAtcnVsZT0iZXZlbm9kZCIgZmlsbD0iI2ZmZiIgZD0iTTY1LjIgMjIuMmMyLjQgMTQuMiAyNS42IDEwLjQgMjIuMy0zLjktMy0xMi44LTIzLjEtOS4yLTIyLjMgMy45IiBjbGlwLXBhdGg9InVybCgjZ28tb3JpZ2luYWwtYikiLz48cGF0aCBkPSJNNzYuMiAzMS41Yy00LjUgMC0xMC4yLTIuNC0xMS40LTkuMi0uMi0zLjIuOC02LjEgMi45LTguMyAyLjMtMi41IDUuOC0zLjkgOS40LTMuOSA0LjIgMCA5LjIgMi4yIDEwLjYgOC4zLjggMy40LjIgNi40LTEuNyA4LjgtMi4xIDIuNi01LjggNC4zLTkuOCA0LjN6bS0xMC43LTkuM2MuNSAyLjggMS44IDUgMy45IDYuNiAxLjggMS40IDQuMyAyLjEgNi44IDIuMSAzLjcgMCA3LjMtMS42IDkuMy00LjEgMS44LTIuMiAyLjMtNS4xIDEuNi04LjMtMS4zLTUuNy02LTcuNy0xMC03LjctMy40IDAtNi43IDEuNC04LjkgMy43LTEuOSAyLTIuOSA0LjctMi43IDcuN3oiIGNsaXAtcGF0aD0idXJsKCNnby1vcmlnaW5hbC1iKSIvPjxwYXRoIGZpbGwtcnVsZT0iZXZlbm9kZCIgY2xpcC1ydWxlPSJldmVub2RkIiBmaWxsPSIjZmZmIiBkPSJNMzcuNSAyNC41YzMuMiAxMi4zIDIyLjkgOS4yIDIyLjItMy4yLS45LTE0LjgtMjUuMy0xMi0yMi4yIDMuMiIgY2xpcC1wYXRoPSJ1cmwoI2dvLW9yaWdpbmFsLWIpIi8+PHBhdGggZD0iTTQ4IDMyLjdjLTQuMyAwLTkuMy0yLjEtMTAuOS04LjEtLjctMy41IDAtNi43IDItOS4xIDIuMi0yLjcgNS44LTQuMyA5LjctNC4zIDUuMiAwIDEwLjcgMy4xIDExLjEgMTAuMS4yIDIuOS0uNyA1LjUtMi43IDcuNi0yLjEgMi4zLTUuNiAzLjgtOS4yIDMuOHptLjgtMjAuOGMtMy43IDAtNy4xIDEuNS05LjIgNC0xLjkgMi4zLTIuNSA1LjItMS44IDguNUMzOS4yIDMwIDQ0IDMyIDQ4IDMyYzMuNCAwIDYuNy0xLjMgOC44LTMuNiAxLjgtMS45IDIuNy00LjQgMi41LTcuMS0uMi00LjMtMy4xLTkuNC0xMC41LTkuNHoiIGNsaXAtcGF0aD0idXJsKCNnby1vcmlnaW5hbC1iKSIvPjxwYXRoIGZpbGwtcnVsZT0iZXZlbm9kZCIgY2xpcC1ydWxlPSJldmVub2RkIiBmaWxsPSIjZmZmIiBkPSJNNjggMzkuMmMwIDEuOC40IDMuOS4xIDUuOS0uNS45LTEuNCAxLTIuMiAxLjMtMS4xLS4yLTItLjktMi41LTEuOS0uMy0yLjIuMS00LjQuMi02LjZsNC40IDEuM3oiIGNsaXAtcGF0aD0idXJsKCNnby1vcmlnaW5hbC1iKSIvPjxwYXRoIGQ9Ik02NS45IDQ2LjhjLTEuMy0uMi0yLjMtMS0yLjgtMi4xLS4yLTEuNi0uMS0zLjEgMC00LjYuMS0uNy4xLTEuNC4xLTIuMXYtLjRsNS4xIDEuNnYuMmMwIC42LjEgMS4yLjEgMS45LjEgMS4zLjIgMi43IDAgNHYuMWMtLjQuOC0xLjEgMS0xLjggMS4zLS4yLS4xLS40IDAtLjcuMXptLTIuMi0yLjRjLjQuOSAxLjIgMS41IDIuMSAxLjcuMi0uMS40LS4xLjUtLjIuNi0uMiAxLjEtLjQgMS40LS45LjItMS4yLjEtMi41IDAtMy44IDAtLjYtLjEtMS4yLS4xLTEuN2wtMy44LTEuMmMwIC42LS4xIDEuMi0uMSAxLjctLjEgMS42LS4yIDMgMCA0LjR6IiBjbGlwLXBhdGg9InVybCgjZ28tb3JpZ2luYWwtYikiLz48cGF0aCBmaWxsLXJ1bGU9ImV2ZW5vZGQiIGNsaXAtcnVsZT0iZXZlbm9kZCIgZD0iTTQ2LjMgMjIuNWMwIDItMS41IDMuNi0zLjMgMy42LTEuOCAwLTMuMy0xLjYtMy4zLTMuNnMxLjUtMy42IDMuMy0zLjZjMS44IDAgMy4zIDEuNiAzLjMgMy42IiBjbGlwLXBhdGg9InVybCgjZ28tb3JpZ2luYWwtYikiLz48cGF0aCBmaWxsLXJ1bGU9ImV2ZW5vZGQiIGNsaXAtcnVsZT0iZXZlbm9kZCIgZmlsbD0iI2ZmZiIgZD0iTTQ1LjIgMjMuM2MwIC41LS40LjktLjguOXMtLjgtLjQtLjgtLjkuNC0uOS44LS45Yy41IDAgLjguNC44LjkiIGNsaXAtcGF0aD0idXJsKCNnby1vcmlnaW5hbC1iKSIvPjxwYXRoIGZpbGwtcnVsZT0iZXZlbm9kZCIgY2xpcC1ydWxlPSJldmVub2RkIiBkPSJNNzQuMiAyMS42YzAgMi0xLjUgMy42LTMuMyAzLjYtMS44IDAtMy4zLTEuNi0zLjMtMy42czEuNS0zLjYgMy4zLTMuNmMxLjggMCAzLjMgMS42IDMuMyAzLjYiIGNsaXAtcGF0aD0idXJsKCNnby1vcmlnaW5hbC1iKSIvPjxwYXRoIGZpbGwtcnVsZT0iZXZlbm9kZCIgY2xpcC1ydWxlPSJldmVub2RkIiBmaWxsPSIjZmZmIiBkPSJNNzMuMiAyMi40YzAgLjUtLjMuOS0uOC45LS40IDAtLjgtLjQtLjgtLjlzLjMtLjkuOC0uOWMuNCAwIC44LjQuOC45TTU4LjQgMzljLTEuNSAzLjUuOCAxMC42IDQuOCA1LjQtLjMtMi4yLjEtNC40LjItNi42bC01IDEuMnoiIGNsaXAtcGF0aD0idXJsKCNnby1vcmlnaW5hbC1iKSIvPjxwYXRoIGQ9Ik02MC41IDQ2LjZjLS43IDAtMS40LS40LTEuOS0xLjItMS4xLTEuNi0xLjMtNC42LS41LTYuNWwuMS0uMiA1LjUtMS40di40bC0uMSAyLjJjLS4xIDEuNS0uMiAyLjkgMCA0LjR2LjFsLS4xLjFjLTEgMS40LTIgMi4xLTMgMi4xem0tMS44LTcuM2MtLjYgMS43LS40IDQuNC41IDUuNy40LjYuOC45IDEuMy45LjcgMCAxLjUtLjYgMi4zLTEuNi0uMi0xLjUtLjEtMyAuMS00LjRsLjEtMS43LTQuMyAxLjF6IiBjbGlwLXBhdGg9InVybCgjZ28tb3JpZ2luYWwtYikiLz48cGF0aCBmaWxsLXJ1bGU9ImV2ZW5vZGQiIGNsaXAtcnVsZT0iZXZlbm9kZCIgZmlsbD0iI0Y2RDJBMiIgZD0iTTU4LjkgMzIuMmMtMi43LjItNC45IDMuNS0zLjUgNiAxLjkgMy40IDYtLjMgOC42IDAgMyAuMSA1LjQgMy4yIDcuOC42IDIuNy0yLjktMS4yLTUuNy00LjEtN2wtOC44LjR6IiBjbGlwLXBhdGg9InVybCgjZ28tb3JpZ2luYWwtYikiLz48cGF0aCBmaWxsPSIjMjMxRjIwIiBkPSJNNjkuNyA0MC4yYy0uOSAwLTEuOC0uNC0yLjctLjgtLjktLjQtMS45LS44LTMtLjhoLS4zYy0uOCAwLTEuNy4zLTIuNy43LTEuMS40LTIuMi43LTMuMi43LTEuMiAwLTIuMS0uNS0yLjctMS42LS43LTEuMi0uNi0yLjYuMS0zLjkuOC0xLjUgMi4yLTIuNCAzLjctMi42bDguOS0uNGguMWMyLjIuOSA0LjcgMi42IDUuMiA0LjYuMiAxLS4xIDItLjkgMi45LS44LjktMS42IDEuMi0yLjUgMS4yek02NC4xIDM4YzEuMSAwIDIuMi41IDMuMi45LjkuNCAxLjcuNyAyLjUuNy43IDAgMS4zLS4zIDEuOS0uOS43LS43LjktMS41LjgtMi4zLS40LTEuNy0yLjgtMy4zLTQuNy00LjFsLTguNy40Yy0xLjMuMS0yLjUgMS0zLjIgMi4yLS42IDEuMS0uNiAyLjMtLjEgMy4zLjUuOSAxLjEgMS4zIDIuMSAxLjMuOSAwIDEuOS0uNCAyLjktLjcgMS4xLS40IDItLjcgMy0uNyAwLS4yLjEtLjIuMy0uMXoiIGNsaXAtcGF0aD0idXJsKCNnby1vcmlnaW5hbC1iKSIvPjxwYXRoIGZpbGwtcnVsZT0iZXZlbm9kZCIgY2xpcC1ydWxlPSJldmVub2RkIiBkPSJNNTguNiAzMi4xYy0uMi00LjcgOC44LTUuMyA5LjgtMS40IDEuMSA0LTkuNCA0LjktOS44IDEuNCIgY2xpcC1wYXRoPSJ1cmwoI2dvLW9yaWdpbmFsLWIpIi8+PC9zdmc+" parent="1" vertex="1">
          <mxGeometry x="629.66" width="88" height="88" as="geometry" />
        </mxCell>
        <mxCell id="wYl2I4Tb-yKRUeqkFYGQ-1" value="" style="shape=image;verticalLabelPosition=bottom;labelBackgroundColor=default;verticalAlign=top;aspect=fixed;imageAspect=0;image=https://www.vectorlogo.zone/logos/telegram/telegram-icon.svg;" parent="1" vertex="1">
          <mxGeometry x="709.66" y="-20" width="57.45" height="57.45" as="geometry" />
        </mxCell>
        <mxCell id="OOMBXD3BXPfqDJGDftCW-8" value="Producer" style="shape=image;verticalLabelPosition=bottom;verticalAlign=top;imageAspect=0;aspect=fixed;image=data:image/svg+xml,PHN2ZyB4bWxucz0iaHR0cDovL3d3dy53My5vcmcvMjAwMC9zdmciIHhtbG5zOnhsaW5rPSJodHRwOi8vd3d3LnczLm9yZy8xOTk5L3hsaW5rIiB2aWV3Qm94PSIwIDAgMTI4IDEyOCI+PGRlZnM+PHBhdGggaWQ9ImdvLW9yaWdpbmFsLWEiIGQ9Ik0xOC44IDFoOTAuNXYxMjZIMTguOHoiLz48L2RlZnM+PGNsaXBQYXRoIGlkPSJnby1vcmlnaW5hbC1iIj48dXNlIHhsaW5rOmhyZWY9IiNnby1vcmlnaW5hbC1hIiBvdmVyZmxvdz0idmlzaWJsZSIvPjwvY2xpcFBhdGg+PHBhdGggZmlsbC1ydWxlPSJldmVub2RkIiBjbGlwLXJ1bGU9ImV2ZW5vZGQiIGZpbGw9IiNGNkQyQTIiIGQ9Ik0yMS4xIDY4LjdjLjIgMy41IDMuNyAxLjkgNS4zLjggMS41LTEuMSAyLS4yIDIuMS0yLjMuMS0xLjQuMi0yLjcuMi00LjEtMi4zLS4yLTQuOC4zLTYuNyAxLjctLjkuNy0yLjggMy0uOSAzLjkiIGNsaXAtcGF0aD0idXJsKCNnby1vcmlnaW5hbC1iKSIvPjxwYXRoIGQ9Ik0yMyA3MS4yYy0uNyAwLTItLjMtMi4yLTIuMy0uNi0uNC0uOC0uOS0uOC0xLjItLjEtMS4yIDEuMi0yLjYgMS45LTMuMSAxLjYtMS4yIDMuNy0xLjggNS45LTEuOGgxLjN2LjNjLjEgMS4xIDAgMi4yLS4xIDMuMiAwIC4zIDAgLjYtLjEuOS0uMSAxLjUtLjQgMS43LTEuMSAyLS4zLjEtLjYuMi0xLjEuNi0uNS4zLTIuMiAxLjQtMy43IDEuNHptNC44LTcuOGMtMi4xIDAtNCAuNi01LjUgMS43LS43LjUtMS43IDEuNy0xLjYgMi41IDAgLjMuMi42LjYuOGwuMi4xdi4yYy4xIDEuNi45IDEuOCAxLjUgMS44IDEgMCAyLjQtLjcgMy4zLTEuMy42LS40IDEtLjUgMS4zLS42LjUtLjIuNi0uMi43LTEuNCAwLS4zIDAtLjYuMS0uOS4xLS45LjEtMS45LjEtMi44LS4zLS4xLS41LS4xLS43LS4xeiIgY2xpcC1wYXRoPSJ1cmwoI2dvLW9yaWdpbmFsLWIpIi8+PHBhdGggZmlsbC1ydWxlPSJldmVub2RkIiBjbGlwLXJ1bGU9ImV2ZW5vZGQiIGZpbGw9IiNDNkIxOTgiIGQ9Ik0yMS4xIDY4LjdjLjUtLjIgMS4xLS4zIDEuNC0uOCIgY2xpcC1wYXRoPSJ1cmwoI2dvLW9yaWdpbmFsLWIpIi8+PHBhdGggZD0iTTIxLjEgNjljLS4xIDAtLjMtLjEtLjMtLjItLjEtLjIgMC0uNC4yLS40LjEgMCAuMi0uMS4yLS4xLjQtLjIuOC0uMyAxLS42LjEtLjEuMy0uMi41LS4xLjEuMS4yLjMuMS41LS40LjUtLjkuNy0xLjMuOGwtLjIuMWgtLjJ6IiBjbGlwLXBhdGg9InVybCgjZ28tb3JpZ2luYWwtYikiLz48cGF0aCBmaWxsLXJ1bGU9ImV2ZW5vZGQiIGNsaXAtcnVsZT0iZXZlbm9kZCIgZmlsbD0iIzZBRDdFNSIgZD0iTTI5LjMgMjYuNGMtMTMuNi0zLjgtMy41LTIxLjEgNy40LTE0bC03LjQgMTR6IiBjbGlwLXBhdGg9InVybCgjZ28tb3JpZ2luYWwtYikiLz48cGF0aCBkPSJNMjkuNSAyNi44bC0uMy0uMWMtNy0yLTYuOS03LTYuNy04LjUuNS0zLjggNC4xLTcuOCA4LjktNy44IDEuOSAwIDMuNy42IDUuNSAxLjhsLjMuMi03LjcgMTQuNHptMS45LTE1LjdjLTQuNSAwLTcuOCAzLjctOC4zIDcuMi0uNSAzLjYgMS43IDYuNCA2IDcuN2w3LjEtMTMuNWMtMS41LS45LTMuMS0xLjQtNC44LTEuNHoiIGNsaXAtcGF0aD0idXJsKCNnby1vcmlnaW5hbC1iKSIvPjxwYXRoIGZpbGwtcnVsZT0iZXZlbm9kZCIgY2xpcC1ydWxlPSJldmVub2RkIiBmaWxsPSIjNkFEN0U1IiBkPSJNODkuNiAxMS4xYzEwLjctNy41IDIwLjUgOS41IDggMTMuOGwtOC0xMy44eiIgY2xpcC1wYXRoPSJ1cmwoI2dvLW9yaWdpbmFsLWIpIi8+PHBhdGggZD0iTTk3LjUgMjUuM0w4OS4yIDExbC4zLS4yYzEuOS0xLjMgMy44LTIgNS43LTIgNC42IDAgNy45IDMuOCA4LjYgNy41LjMgMS41LjYgNi42LTYgOC44bC0uMy4yem0tNy40LTE0bDcuNyAxMy4zYzMuOS0xLjQgNS45LTQuNCA1LjMtOC0uNi0zLjQtMy43LTYuOS03LjktNi45LTEuNy0uMS0zLjQuNC01LjEgMS42eiIgY2xpcC1wYXRoPSJ1cmwoI2dvLW9yaWdpbmFsLWIpIi8+PHBhdGggZmlsbC1ydWxlPSJldmVub2RkIiBjbGlwLXJ1bGU9ImV2ZW5vZGQiIGZpbGw9IiNGNkQyQTIiIGQ9Ik05MiAxMTIuM2MyLjcgMS43IDcuNyA2LjggMy42IDkuMy0zLjkgMy42LTYuMS00LTkuNi01IDEuNS0yIDMuNC0zLjkgNi00LjMiIGNsaXAtcGF0aD0idXJsKCNnby1vcmlnaW5hbC1iKSIvPjxwYXRoIGQ9Ik05My41IDEyMi45Yy0xLjYgMC0zLTEuNi00LjItMy4xLTEuMS0xLjItMi4yLTIuNS0zLjQtMi45bC0uNS0uMS4zLS40YzEuMi0xLjcgMy4yLTMuOSA2LjItNC40aC4xbC4xLjFjMS43IDEuMSA1LjQgNC4yIDUuMyA3LjEgMCAxLjEtLjYgMi0xLjcgMi43LS43LjctMS40IDEtMi4yIDF6bS03LTYuNWMxLjIuNSAyLjIgMS44IDMuMiAyLjkgMS4yIDEuNSAyLjQgMi44IDMuNyAyLjguNiAwIDEuMi0uMyAxLjgtLjloLjFjLjktLjYgMS40LTEuMyAxLjQtMi4yIDAtMi4zLTIuOS01LjItNC45LTYuNS0xLjguNS0zLjYgMS43LTUuMyAzLjl6bTkuMSA1LjVjLS4xIDAtLjItLjEtLjMtLjItLjItLjQtLjQtLjktLjUtMS4zLS4zLS44LS42LTEuNi0xLjItMi4yLS4xLS4xLS4xLS4zIDAtLjUuMS0uMS4zLS4xLjUgMCAuNy43IDEuMSAxLjYgMS40IDIuNWwuNSAxLjJjLjEuMiAwIC40LS4xLjVoLS4zeiIgY2xpcC1wYXRoPSJ1cmwoI2dvLW9yaWdpbmFsLWIpIi8+PHBhdGggZmlsbC1ydWxlPSJldmVub2RkIiBjbGlwLXJ1bGU9ImV2ZW5vZGQiIGZpbGw9IiNGNkQyQTIiIGQ9Ik00My4yIDExOC4xYy0zLjIuNS01IDMuNC03LjcgNC45LTIuNSAxLjUtMy41LS41LTMuNy0uOS0uNC0uMi0uNC4yLTEtLjQtMi4zLTMuNyAyLjQtNi40IDQuOS04LjIgMy41LS44IDUuNyAyLjIgNy41IDQuNiIgY2xpcC1wYXRoPSJ1cmwoI2dvLW9yaWdpbmFsLWIpIi8+PHBhdGggZD0iTTMzLjggMTIzLjhjLTEuMyAwLTItMS4xLTIuMi0xLjVoLS4xYy0uMyAwLS41LS4xLS45LS41di0uMWMtMi4yLTMuNSAxLjYtNi4yIDQuMS04bC45LS42aC4yYy40LS4xLjctLjEgMS4xLS4xIDMgMCA0LjkgMi42IDYuNSA0LjdsLjUuNy0uNi4xYy0xLjkuMy0zLjMgMS41LTQuNyAyLjctLjkuOC0xLjggMS41LTIuOCAyLjEtLjguMy0xLjQuNS0yIC41em0tMi4yLTIuMWMuMSAwIC4yIDAgLjQuMWguMWwuMS4xYy4yLjMuNyAxLjIgMS43IDEuMi41IDAgMS0uMiAxLjUtLjUgMS0uNSAxLjktMS4zIDIuNy0yIDEuMy0xLjEgMi43LTIuMyA0LjUtMi44LTEuNS0yLTMuMy00LjItNS44LTQuMi0uMyAwLS42IDAtLjkuMWwtLjguNmMtMi42IDEuOC01LjggNC4xLTMuOSA3LjEuMS4yLjIuMy40LjN6bS4yLjdjLS4yIDAtLjQtLjItLjMtLjQuMS0xIC42LTEuNyAxLjEtMi41LjMtLjQuNS0uOC43LTEuMi4xLS4yLjMtLjIuNC0uMi4yLjEuMi4zLjIuNC0uMi41LS41LjktLjggMS4zLS41LjctLjkgMS4zLTEgMi4xIDAgLjQtLjEuNS0uMy41eiIgY2xpcC1wYXRoPSJ1cmwoI2dvLW9yaWdpbmFsLWIpIi8+PHBhdGggZmlsbC1ydWxlPSJldmVub2RkIiBjbGlwLXJ1bGU9ImV2ZW5vZGQiIGQ9Ik0yOS45IDIxLjdjLTEuOC0uOS0zLjEtMi4yLTItNC4zIDEtMS45IDIuOS0xLjcgNC43LS44bC0yLjcgNS4xem02NC45LTEuOGMxLjgtLjkgMy4xLTIuMiAyLTQuMy0xLTEuOS0yLjktMS43LTQuNy0uOGwyLjcgNS4xeiIgY2xpcC1wYXRoPSJ1cmwoI2dvLW9yaWdpbmFsLWIpIi8+PHBhdGggZmlsbC1ydWxlPSJldmVub2RkIiBjbGlwLXJ1bGU9ImV2ZW5vZGQiIGZpbGw9IiNGNkQyQTIiIGQ9Ik0xMDcuMSA2OC4yYy0uMiAzLjUtMy43IDEuOS01LjMuOC0xLjUtMS4xLTItLjItMi4xLTIuMy0uMS0xLjQtLjItMi43LS4yLTQuMSAyLjMtLjIgNC44LjMgNi43IDEuNyAxIC44IDIuOCAzIC45IDMuOSIgY2xpcC1wYXRoPSJ1cmwoI2dvLW9yaWdpbmFsLWIpIi8+PHBhdGggZD0iTTEwNS4zIDcwLjdjLTEuNSAwLTMuMi0xLjEtMy43LTEuNC0uNS0uMy0uOC0uNS0xLjEtLjYtLjgtLjMtMS0uNS0xLjEtMiAwLS4zIDAtLjYtLjEtLjktLjEtMS0uMi0yLjEtLjEtMy4ydi0uM2gxLjNjMi4yIDAgNC4zLjYgNS45IDEuOC43LjUgMiAxLjkgMS45IDMuMSAwIC40LS4yLjktLjggMS4yLS4yIDItMS41IDIuMy0yLjIgMi4zek05OS44IDYzYzAgLjkgMCAxLjkuMSAyLjggMCAuMyAwIC42LjEuOS4xIDEuMi4yIDEuMi43IDEuNC4zLjEuNy4zIDEuMy42LjkuNiAyLjMgMS4zIDMuMyAxLjMuNiAwIDEuNC0uMiAxLjUtMS44VjY4bC4yLS4xYy40LS4yLjYtLjQuNi0uOC4xLS44LS45LTItMS42LTIuNS0xLjUtMS4xLTMuNS0xLjctNS41LTEuNy0uMi4xLS40LjEtLjcuMXoiIGNsaXAtcGF0aD0idXJsKCNnby1vcmlnaW5hbC1iKSIvPjxwYXRoIGZpbGwtcnVsZT0iZXZlbm9kZCIgY2xpcC1ydWxlPSJldmVub2RkIiBmaWxsPSIjQzZCMTk4IiBkPSJNMTA3LjEgNjguMmMtLjUtLjItMS4xLS4zLTEuNC0uOCIgY2xpcC1wYXRoPSJ1cmwoI2dvLW9yaWdpbmFsLWIpIi8+PHBhdGggZD0iTTEwNy4xIDY4LjZoLS4xbC0uMi0uMWMtLjUtLjItMS0uMy0xLjMtLjgtLjEtLjEtLjEtLjQuMS0uNS4xLS4xLjQtLjEuNS4xLjIuMy42LjQgMSAuNi4xIDAgLjIuMS4yLjEuMi4xLjMuMy4yLjQtLjEuMS0uMy4yLS40LjJ6IiBjbGlwLXBhdGg9InVybCgjZ28tb3JpZ2luYWwtYikiLz48cGF0aCBmaWxsLXJ1bGU9ImV2ZW5vZGQiIGNsaXAtcnVsZT0iZXZlbm9kZCIgZmlsbD0iIzZBRDdFNSIgZD0iTTYyLjggNGMxMy42IDAgMjYuMyAxLjkgMzMgMTUgNiAxNC42IDMuOCAzMC40IDQuOCA0NS45LjggMTMuMyAyLjUgMjguNi0zLjYgNDAuOS02LjUgMTIuOS0yMi43IDE2LjItMzYgMTUuNy0xMC41LS40LTIzLjEtMy44LTI5LjEtMTMuNC02LjktMTEuMi0zLjctMjcuOS0zLjItNDAuNC42LTE0LjgtNC0yOS43LjktNDQuMUMzNC41IDguNSA0OC4xIDUuMSA2Mi44IDQiIGNsaXAtcGF0aD0idXJsKCNnby1vcmlnaW5hbC1iKSIvPjxwYXRoIGQ9Ik02My4zIDEyMS45aC0yLjVjLTQuMS0uMS0xMC4zLS44LTE2LjQtMy4zLTUuOS0yLjQtMTAuMi01LjgtMTMtMTAuMy01LjYtOS4xLTQuNi0yMS42LTMuNy0zMi43LjItMi44LjQtNS40LjUtNy45LjItNS4yLS4yLTEwLjYtLjctMTUuNy0uOC05LjQtMS42LTE5LjEgMS41LTI4LjUgMi40LTcgNi43LTEyIDEzLjItMTUuMiA1LjEtMi41IDExLjQtMy45IDIwLjQtNC42Qzc2IDMuNiA4OS4zIDUuNSA5NiAxOC44YzQuNCAxMC43IDQuNCAyMi4yIDQuNSAzMy4zIDAgNC4yIDAgOC41LjMgMTIuNy4xIDEuMy4yIDIuNi4yIDMuOS44IDEyLjIgMS43IDI2LTMuOSAzNy4yLTIuOCA1LjctNy43IDkuOS0xNC40IDEyLjYtNS40IDIuMi0xMi4yIDMuNC0xOS40IDMuNHpNNjIuOCA0LjNjLTE0LjEgMS4xLTI3LjkgNC4yLTMzIDE5LjQtMy4xIDkuMy0yLjMgMTguOS0xLjUgMjguMi40IDUuMi45IDEwLjUuNyAxNS44LS4xIDIuNS0uMyA1LjEtLjUgNy45LS45IDExLTEuOSAyMy40IDMuNiAzMi4zIDIuMyAzLjcgOS43IDEyLjUgMjguOCAxMy4yaDIuNWMyMi4xIDAgMzAuMy05LjggMzMuMy0xNS42IDUuNS0xMSA0LjYtMjQuOCAzLjktMzYuOS0uMS0xLjMtLjItMi42LS4yLTMuOS0uMi00LjItLjMtOC41LS4zLTEyLjctLjEtMTEtLjEtMjIuNS00LjQtMzMuMUM5Mi43IDEzIDg4LjIgOSA4MiA2LjdjLTYuNC0yLjEtMTMuNi0yLjQtMTkuMi0yLjR6IiBjbGlwLXBhdGg9InVybCgjZ28tb3JpZ2luYWwtYikiLz48cGF0aCBmaWxsLXJ1bGU9ImV2ZW5vZGQiIGNsaXAtcnVsZT0iZXZlbm9kZCIgZmlsbD0iI2ZmZiIgZD0iTTY1LjIgMjIuMmMyLjQgMTQuMiAyNS42IDEwLjQgMjIuMy0zLjktMy0xMi44LTIzLjEtOS4yLTIyLjMgMy45IiBjbGlwLXBhdGg9InVybCgjZ28tb3JpZ2luYWwtYikiLz48cGF0aCBkPSJNNzYuMiAzMS41Yy00LjUgMC0xMC4yLTIuNC0xMS40LTkuMi0uMi0zLjIuOC02LjEgMi45LTguMyAyLjMtMi41IDUuOC0zLjkgOS40LTMuOSA0LjIgMCA5LjIgMi4yIDEwLjYgOC4zLjggMy40LjIgNi40LTEuNyA4LjgtMi4xIDIuNi01LjggNC4zLTkuOCA0LjN6bS0xMC43LTkuM2MuNSAyLjggMS44IDUgMy45IDYuNiAxLjggMS40IDQuMyAyLjEgNi44IDIuMSAzLjcgMCA3LjMtMS42IDkuMy00LjEgMS44LTIuMiAyLjMtNS4xIDEuNi04LjMtMS4zLTUuNy02LTcuNy0xMC03LjctMy40IDAtNi43IDEuNC04LjkgMy43LTEuOSAyLTIuOSA0LjctMi43IDcuN3oiIGNsaXAtcGF0aD0idXJsKCNnby1vcmlnaW5hbC1iKSIvPjxwYXRoIGZpbGwtcnVsZT0iZXZlbm9kZCIgY2xpcC1ydWxlPSJldmVub2RkIiBmaWxsPSIjZmZmIiBkPSJNMzcuNSAyNC41YzMuMiAxMi4zIDIyLjkgOS4yIDIyLjItMy4yLS45LTE0LjgtMjUuMy0xMi0yMi4yIDMuMiIgY2xpcC1wYXRoPSJ1cmwoI2dvLW9yaWdpbmFsLWIpIi8+PHBhdGggZD0iTTQ4IDMyLjdjLTQuMyAwLTkuMy0yLjEtMTAuOS04LjEtLjctMy41IDAtNi43IDItOS4xIDIuMi0yLjcgNS44LTQuMyA5LjctNC4zIDUuMiAwIDEwLjcgMy4xIDExLjEgMTAuMS4yIDIuOS0uNyA1LjUtMi43IDcuNi0yLjEgMi4zLTUuNiAzLjgtOS4yIDMuOHptLjgtMjAuOGMtMy43IDAtNy4xIDEuNS05LjIgNC0xLjkgMi4zLTIuNSA1LjItMS44IDguNUMzOS4yIDMwIDQ0IDMyIDQ4IDMyYzMuNCAwIDYuNy0xLjMgOC44LTMuNiAxLjgtMS45IDIuNy00LjQgMi41LTcuMS0uMi00LjMtMy4xLTkuNC0xMC41LTkuNHoiIGNsaXAtcGF0aD0idXJsKCNnby1vcmlnaW5hbC1iKSIvPjxwYXRoIGZpbGwtcnVsZT0iZXZlbm9kZCIgY2xpcC1ydWxlPSJldmVub2RkIiBmaWxsPSIjZmZmIiBkPSJNNjggMzkuMmMwIDEuOC40IDMuOS4xIDUuOS0uNS45LTEuNCAxLTIuMiAxLjMtMS4xLS4yLTItLjktMi41LTEuOS0uMy0yLjIuMS00LjQuMi02LjZsNC40IDEuM3oiIGNsaXAtcGF0aD0idXJsKCNnby1vcmlnaW5hbC1iKSIvPjxwYXRoIGQ9Ik02NS45IDQ2LjhjLTEuMy0uMi0yLjMtMS0yLjgtMi4xLS4yLTEuNi0uMS0zLjEgMC00LjYuMS0uNy4xLTEuNC4xLTIuMXYtLjRsNS4xIDEuNnYuMmMwIC42LjEgMS4yLjEgMS45LjEgMS4zLjIgMi43IDAgNHYuMWMtLjQuOC0xLjEgMS0xLjggMS4zLS4yLS4xLS40IDAtLjcuMXptLTIuMi0yLjRjLjQuOSAxLjIgMS41IDIuMSAxLjcuMi0uMS40LS4xLjUtLjIuNi0uMiAxLjEtLjQgMS40LS45LjItMS4yLjEtMi41IDAtMy44IDAtLjYtLjEtMS4yLS4xLTEuN2wtMy44LTEuMmMwIC42LS4xIDEuMi0uMSAxLjctLjEgMS42LS4yIDMgMCA0LjR6IiBjbGlwLXBhdGg9InVybCgjZ28tb3JpZ2luYWwtYikiLz48cGF0aCBmaWxsLXJ1bGU9ImV2ZW5vZGQiIGNsaXAtcnVsZT0iZXZlbm9kZCIgZD0iTTQ2LjMgMjIuNWMwIDItMS41IDMuNi0zLjMgMy42LTEuOCAwLTMuMy0xLjYtMy4zLTMuNnMxLjUtMy42IDMuMy0zLjZjMS44IDAgMy4zIDEuNiAzLjMgMy42IiBjbGlwLXBhdGg9InVybCgjZ28tb3JpZ2luYWwtYikiLz48cGF0aCBmaWxsLXJ1bGU9ImV2ZW5vZGQiIGNsaXAtcnVsZT0iZXZlbm9kZCIgZmlsbD0iI2ZmZiIgZD0iTTQ1LjIgMjMuM2MwIC41LS40LjktLjguOXMtLjgtLjQtLjgtLjkuNC0uOS44LS45Yy41IDAgLjguNC44LjkiIGNsaXAtcGF0aD0idXJsKCNnby1vcmlnaW5hbC1iKSIvPjxwYXRoIGZpbGwtcnVsZT0iZXZlbm9kZCIgY2xpcC1ydWxlPSJldmVub2RkIiBkPSJNNzQuMiAyMS42YzAgMi0xLjUgMy42LTMuMyAzLjYtMS44IDAtMy4zLTEuNi0zLjMtMy42czEuNS0zLjYgMy4zLTMuNmMxLjggMCAzLjMgMS42IDMuMyAzLjYiIGNsaXAtcGF0aD0idXJsKCNnby1vcmlnaW5hbC1iKSIvPjxwYXRoIGZpbGwtcnVsZT0iZXZlbm9kZCIgY2xpcC1ydWxlPSJldmVub2RkIiBmaWxsPSIjZmZmIiBkPSJNNzMuMiAyMi40YzAgLjUtLjMuOS0uOC45LS40IDAtLjgtLjQtLjgtLjlzLjMtLjkuOC0uOWMuNCAwIC44LjQuOC45TTU4LjQgMzljLTEuNSAzLjUuOCAxMC42IDQuOCA1LjQtLjMtMi4yLjEtNC40LjItNi42bC01IDEuMnoiIGNsaXAtcGF0aD0idXJsKCNnby1vcmlnaW5hbC1iKSIvPjxwYXRoIGQ9Ik02MC41IDQ2LjZjLS43IDAtMS40LS40LTEuOS0xLjItMS4xLTEuNi0xLjMtNC42LS41LTYuNWwuMS0uMiA1LjUtMS40di40bC0uMSAyLjJjLS4xIDEuNS0uMiAyLjkgMCA0LjR2LjFsLS4xLjFjLTEgMS40LTIgMi4xLTMgMi4xem0tMS44LTcuM2MtLjYgMS43LS40IDQuNC41IDUuNy40LjYuOC45IDEuMy45LjcgMCAxLjUtLjYgMi4zLTEuNi0uMi0xLjUtLjEtMyAuMS00LjRsLjEtMS43LTQuMyAxLjF6IiBjbGlwLXBhdGg9InVybCgjZ28tb3JpZ2luYWwtYikiLz48cGF0aCBmaWxsLXJ1bGU9ImV2ZW5vZGQiIGNsaXAtcnVsZT0iZXZlbm9kZCIgZmlsbD0iI0Y2RDJBMiIgZD0iTTU4LjkgMzIuMmMtMi43LjItNC45IDMuNS0zLjUgNiAxLjkgMy40IDYtLjMgOC42IDAgMyAuMSA1LjQgMy4yIDcuOC42IDIuNy0yLjktMS4yLTUuNy00LjEtN2wtOC44LjR6IiBjbGlwLXBhdGg9InVybCgjZ28tb3JpZ2luYWwtYikiLz48cGF0aCBmaWxsPSIjMjMxRjIwIiBkPSJNNjkuNyA0MC4yYy0uOSAwLTEuOC0uNC0yLjctLjgtLjktLjQtMS45LS44LTMtLjhoLS4zYy0uOCAwLTEuNy4zLTIuNy43LTEuMS40LTIuMi43LTMuMi43LTEuMiAwLTIuMS0uNS0yLjctMS42LS43LTEuMi0uNi0yLjYuMS0zLjkuOC0xLjUgMi4yLTIuNCAzLjctMi42bDguOS0uNGguMWMyLjIuOSA0LjcgMi42IDUuMiA0LjYuMiAxLS4xIDItLjkgMi45LS44LjktMS42IDEuMi0yLjUgMS4yek02NC4xIDM4YzEuMSAwIDIuMi41IDMuMi45LjkuNCAxLjcuNyAyLjUuNy43IDAgMS4zLS4zIDEuOS0uOS43LS43LjktMS41LjgtMi4zLS40LTEuNy0yLjgtMy4zLTQuNy00LjFsLTguNy40Yy0xLjMuMS0yLjUgMS0zLjIgMi4yLS42IDEuMS0uNiAyLjMtLjEgMy4zLjUuOSAxLjEgMS4zIDIuMSAxLjMuOSAwIDEuOS0uNCAyLjktLjcgMS4xLS40IDItLjcgMy0uNyAwLS4yLjEtLjIuMy0uMXoiIGNsaXAtcGF0aD0idXJsKCNnby1vcmlnaW5hbC1iKSIvPjxwYXRoIGZpbGwtcnVsZT0iZXZlbm9kZCIgY2xpcC1ydWxlPSJldmVub2RkIiBkPSJNNTguNiAzMi4xYy0uMi00LjcgOC44LTUuMyA5LjgtMS40IDEuMSA0LTkuNCA0LjktOS44IDEuNCIgY2xpcC1wYXRoPSJ1cmwoI2dvLW9yaWdpbmFsLWIpIi8+PC9zdmc+" parent="1" vertex="1">
          <mxGeometry x="210" y="166" width="88" height="88" as="geometry" />
        </mxCell>
        <mxCell id="OOMBXD3BXPfqDJGDftCW-10" value="Consumers" style="text;html=1;align=center;verticalAlign=middle;resizable=0;points=[];autosize=1;strokeColor=none;fillColor=none;" parent="1" vertex="1">
          <mxGeometry x="633.66" y="88" width="80" height="30" as="geometry" />
        </mxCell>
        <mxCell id="OOMBXD3BXPfqDJGDftCW-11" value="Consumers" style="text;html=1;align=center;verticalAlign=middle;resizable=0;points=[];autosize=1;strokeColor=none;fillColor=none;" parent="1" vertex="1">
          <mxGeometry x="633.66" y="254" width="80" height="30" as="geometry" />
        </mxCell>
        <mxCell id="b0Rr3NLikNiiPRwlbyJC-1" value="x3" style="ellipse;whiteSpace=wrap;html=1;aspect=fixed;fillColor=#1ba1e2;fontColor=#ffffff;strokeColor=#006EAF;" parent="1" vertex="1">
          <mxGeometry x="709.66" y="84.75" width="35" height="35" as="geometry" />
        </mxCell>
        <mxCell id="b0Rr3NLikNiiPRwlbyJC-2" value="x3" style="ellipse;whiteSpace=wrap;html=1;aspect=fixed;fillColor=#60a917;fontColor=#ffffff;strokeColor=#2D7600;" parent="1" vertex="1">
          <mxGeometry x="709.66" y="251.5" width="35" height="35" as="geometry" />
        </mxCell>
        <mxCell id="PqCmQ-qybaU1zqL3LrbR-5" value="" style="shape=image;verticalLabelPosition=bottom;labelBackgroundColor=default;verticalAlign=top;aspect=fixed;imageAspect=0;image=https://www.vectorlogo.zone/logos/telegram/telegram-icon.svg;" parent="1" vertex="1">
          <mxGeometry x="724.39" y="2.549999999999997" width="57.45" height="57.45" as="geometry" />
        </mxCell>
        <mxCell id="PqCmQ-qybaU1zqL3LrbR-6" value="" style="shape=image;verticalLabelPosition=bottom;labelBackgroundColor=default;verticalAlign=top;aspect=fixed;imageAspect=0;image=https://www.vectorlogo.zone/logos/telegram/telegram-icon.svg;" parent="1" vertex="1">
          <mxGeometry x="736.39" y="27.299999999999983" width="57.45" height="57.45" as="geometry" />
        </mxCell>
        <mxCell id="PqCmQ-qybaU1zqL3LrbR-7" value="" style="html=1;verticalLabelPosition=bottom;align=center;labelBackgroundColor=#ffffff;verticalAlign=top;strokeWidth=2;strokeColor=#2D7600;shadow=0;dashed=0;shape=mxgraph.ios7.icons.mail;fillColor=#60a917;fontColor=#ffffff;" parent="1" vertex="1">
          <mxGeometry x="709.66" y="166" width="70.91" height="39" as="geometry" />
        </mxCell>
        <mxCell id="PqCmQ-qybaU1zqL3LrbR-8" value="" style="html=1;verticalLabelPosition=bottom;align=center;labelBackgroundColor=#ffffff;verticalAlign=top;strokeWidth=2;strokeColor=#2D7600;shadow=0;dashed=0;shape=mxgraph.ios7.icons.mail;fillColor=#60a917;fontColor=#ffffff;" parent="1" vertex="1">
          <mxGeometry x="717.66" y="184.5" width="70.91" height="39" as="geometry" />
        </mxCell>
        <mxCell id="PqCmQ-qybaU1zqL3LrbR-9" value="" style="html=1;verticalLabelPosition=bottom;align=center;labelBackgroundColor=#ffffff;verticalAlign=top;strokeWidth=2;strokeColor=#2D7600;shadow=0;dashed=0;shape=mxgraph.ios7.icons.mail;fillColor=#60a917;fontColor=#ffffff;" parent="1" vertex="1">
          <mxGeometry x="729.66" y="205" width="70.91" height="39" as="geometry" />
        </mxCell>
        <mxCell id="PqCmQ-qybaU1zqL3LrbR-10" value="RabbitMQ" style="text;html=1;align=center;verticalAlign=middle;resizable=0;points=[];autosize=1;strokeColor=none;fillColor=none;" parent="1" vertex="1">
          <mxGeometry x="376" y="238.5" width="80" height="30" as="geometry" />
        </mxCell>
        <mxCell id="PqCmQ-qybaU1zqL3LrbR-11" value="" style="shape=image;verticalLabelPosition=bottom;verticalAlign=top;imageAspect=0;aspect=fixed;image=data:image/svg+xml,PHN2ZyB4bWxucz0iaHR0cDovL3d3dy53My5vcmcvMjAwMC9zdmciIHZpZXdCb3g9IjAgMCAxMjggMTI4Ij48bGluZWFyR3JhZGllbnQgaWQ9InB5dGhvbi1vcmlnaW5hbC1hIiBncmFkaWVudFVuaXRzPSJ1c2VyU3BhY2VPblVzZSIgeDE9IjcwLjI1MiIgeTE9IjEyMzcuNDc2IiB4Mj0iMTcwLjY1OSIgeTI9IjExNTEuMDg5IiBncmFkaWVudFRyYW5zZm9ybT0ibWF0cml4KC41NjMgMCAwIC0uNTY4IC0yOS4yMTUgNzA3LjgxNykiPjxzdG9wIG9mZnNldD0iMCIgc3RvcC1jb2xvcj0iIzVBOUZENCIvPjxzdG9wIG9mZnNldD0iMSIgc3RvcC1jb2xvcj0iIzMwNjk5OCIvPjwvbGluZWFyR3JhZGllbnQ+PGxpbmVhckdyYWRpZW50IGlkPSJweXRob24tb3JpZ2luYWwtYiIgZ3JhZGllbnRVbml0cz0idXNlclNwYWNlT25Vc2UiIHgxPSIyMDkuNDc0IiB5MT0iMTA5OC44MTEiIHgyPSIxNzMuNjIiIHkyPSIxMTQ5LjUzNyIgZ3JhZGllbnRUcmFuc2Zvcm09Im1hdHJpeCguNTYzIDAgMCAtLjU2OCAtMjkuMjE1IDcwNy44MTcpIj48c3RvcCBvZmZzZXQ9IjAiIHN0b3AtY29sb3I9IiNGRkQ0M0IiLz48c3RvcCBvZmZzZXQ9IjEiIHN0b3AtY29sb3I9IiNGRkU4NzMiLz48L2xpbmVhckdyYWRpZW50PjxwYXRoIGZpbGw9InVybCgjcHl0aG9uLW9yaWdpbmFsLWEpIiBkPSJNNjMuMzkxIDEuOTg4Yy00LjIyMi4wMi04LjI1Mi4zNzktMTEuOCAxLjAwNy0xMC40NSAxLjg0Ni0xMi4zNDYgNS43MS0xMi4zNDYgMTIuODM3djkuNDExaDI0LjY5M3YzLjEzN0gyOS45NzdjLTcuMTc2IDAtMTMuNDYgNC4zMTMtMTUuNDI2IDEyLjUyMS0yLjI2OCA5LjQwNS0yLjM2OCAxNS4yNzUgMCAyNS4wOTYgMS43NTUgNy4zMTEgNS45NDcgMTIuNTE5IDEzLjEyNCAxMi41MTloOC40OTFWNjcuMjM0YzAtOC4xNTEgNy4wNTEtMTUuMzQgMTUuNDI2LTE1LjM0aDI0LjY2NWM2Ljg2NiAwIDEyLjM0Ni01LjY1NCAxMi4zNDYtMTIuNTQ4VjE1LjgzM2MwLTYuNjkzLTUuNjQ2LTExLjcyLTEyLjM0Ni0xMi44MzctNC4yNDQtLjcwNi04LjY0NS0xLjAyNy0xMi44NjYtMS4wMDh6TTUwLjAzNyA5LjU1N2MyLjU1IDAgNC42MzQgMi4xMTcgNC42MzQgNC43MjEgMCAyLjU5My0yLjA4MyA0LjY5LTQuNjM0IDQuNjktMi41NiAwLTQuNjMzLTIuMDk3LTQuNjMzLTQuNjktLjAwMS0yLjYwNCAyLjA3My00LjcyMSA0LjYzMy00LjcyMXoiIHRyYW5zZm9ybT0idHJhbnNsYXRlKDAgMTAuMjYpIi8+PHBhdGggZmlsbD0idXJsKCNweXRob24tb3JpZ2luYWwtYikiIGQ9Ik05MS42ODIgMjguMzh2MTAuOTY2YzAgOC41LTcuMjA4IDE1LjY1NS0xNS40MjYgMTUuNjU1SDUxLjU5MWMtNi43NTYgMC0xMi4zNDYgNS43ODMtMTIuMzQ2IDEyLjU0OXYyMy41MTVjMCA2LjY5MSA1LjgxOCAxMC42MjggMTIuMzQ2IDEyLjU0NyA3LjgxNiAyLjI5NyAxNS4zMTIgMi43MTMgMjQuNjY1IDAgNi4yMTYtMS44MDEgMTIuMzQ2LTUuNDIzIDEyLjM0Ni0xMi41NDd2LTkuNDEySDYzLjkzOHYtMy4xMzhoMzcuMDEyYzcuMTc2IDAgOS44NTItNS4wMDUgMTIuMzQ4LTEyLjUxOSAyLjU3OC03LjczNSAyLjQ2Ny0xNS4xNzQgMC0yNS4wOTYtMS43NzQtNy4xNDUtNS4xNjEtMTIuNTIxLTEyLjM0OC0xMi41MjFoLTkuMjY4ek03Ny44MDkgODcuOTI3YzIuNTYxIDAgNC42MzQgMi4wOTcgNC42MzQgNC42OTIgMCAyLjYwMi0yLjA3NCA0LjcxOS00LjYzNCA0LjcxOS0yLjU1IDAtNC42MzMtMi4xMTctNC42MzMtNC43MTkgMC0yLjU5NSAyLjA4My00LjY5MiA0LjYzMy00LjY5MnoiIHRyYW5zZm9ybT0idHJhbnNsYXRlKDAgMTAuMjYpIi8+PHJhZGlhbEdyYWRpZW50IGlkPSJweXRob24tb3JpZ2luYWwtYyIgY3g9IjE4MjUuNjc4IiBjeT0iNDQ0LjQ1IiByPSIyNi43NDMiIGdyYWRpZW50VHJhbnNmb3JtPSJtYXRyaXgoMCAtLjI0IC0xLjA1NSAwIDUzMi45NzkgNTU3LjU3NikiIGdyYWRpZW50VW5pdHM9InVzZXJTcGFjZU9uVXNlIj48c3RvcCBvZmZzZXQ9IjAiIHN0b3AtY29sb3I9IiNCOEI4QjgiIHN0b3Atb3BhY2l0eT0iLjQ5OCIvPjxzdG9wIG9mZnNldD0iMSIgc3RvcC1jb2xvcj0iIzdGN0Y3RiIgc3RvcC1vcGFjaXR5PSIwIi8+PC9yYWRpYWxHcmFkaWVudD48cGF0aCBvcGFjaXR5PSIuNDQ0IiBmaWxsPSJ1cmwoI3B5dGhvbi1vcmlnaW5hbC1jKSIgZD0iTTk3LjMwOSAxMTkuNTk3YzAgMy41NDMtMTQuODE2IDYuNDE2LTMzLjA5MSA2LjQxNi0xOC4yNzYgMC0zMy4wOTItMi44NzMtMzMuMDkyLTYuNDE2IDAtMy41NDQgMTQuODE1LTYuNDE3IDMzLjA5Mi02LjQxNyAxOC4yNzUgMCAzMy4wOTEgMi44NzIgMzMuMDkxIDYuNDE3eiIvPjwvc3ZnPg==" parent="1" vertex="1">
          <mxGeometry x="-50" y="57.88" width="60" height="60" as="geometry" />
        </mxCell>
        <mxCell id="PqCmQ-qybaU1zqL3LrbR-17" value="Other Apps" style="image;aspect=fixed;html=1;points=[];align=center;fontSize=12;image=img/lib/azure2/identity/App_Registrations.svg;" parent="1" vertex="1">
          <mxGeometry x="-138.06" y="286.88" width="56.11" height="57" as="geometry" />
        </mxCell>
        <mxCell id="JmNyguJmU6QeXbeeKk7V-4" value="Zabbix" style="shape=image;verticalLabelPosition=bottom;labelBackgroundColor=default;verticalAlign=top;aspect=fixed;imageAspect=0;image=https://www.vectorlogo.zone/logos/zabbix/zabbix-icon.svg;" parent="1" vertex="1">
          <mxGeometry x="-202.59" y="177.88" width="60" height="60" as="geometry" />
        </mxCell>
        <mxCell id="JmNyguJmU6QeXbeeKk7V-5" value="" style="shape=image;verticalLabelPosition=bottom;verticalAlign=top;imageAspect=0;aspect=fixed;image=data:image/svg+xml,PHN2ZyB4bWxucz0iaHR0cDovL3d3dy53My5vcmcvMjAwMC9zdmciIHZpZXdCb3g9IjAgMCAxMjggMTI4Ij48cGF0aCBmaWxsPSIjMDA3NEJEIiBkPSJNNDcuNjE3IDk4LjEycy00Ljc2NyAyLjc3NCAzLjM5NyAzLjcxYzkuODkyIDEuMTMgMTQuOTQ3Ljk2OCAyNS44NDUtMS4wOTIgMCAwIDIuODcxIDEuNzk1IDYuODczIDMuMzUxLTI0LjQzOSAxMC40Ny01NS4zMDgtLjYwNy0zNi4xMTUtNS45Njl6bS0yLjk4OC0xMy42NjVzLTUuMzQ4IDMuOTU5IDIuODIzIDQuODA1YzEwLjU2NyAxLjA5MSAxOC45MSAxLjE4IDMzLjM1NC0xLjYgMCAwIDEuOTkzIDIuMDI1IDUuMTMyIDMuMTMxLTI5LjU0MiA4LjY0LTYyLjQ0Ni42OC00MS4zMDktNi4zMzZ6Ii8+PHBhdGggZmlsbD0iI0VBMkQyRSIgZD0iTTY5LjgwMiA2MS4yNzFjNi4wMjUgNi45MzUtMS41OCAxMy4xNy0xLjU4IDEzLjE3czE1LjI4OS03Ljg5MSA4LjI2OS0xNy43NzdjLTYuNTU5LTkuMjE1LTExLjU4Ny0xMy43OTIgMTUuNjM1LTI5LjU4IDAgLjAwMS00Mi43MzEgMTAuNjctMjIuMzI0IDM0LjE4N3oiLz48cGF0aCBmaWxsPSIjMDA3NEJEIiBkPSJNMTAyLjEyMyAxMDguMjI5czMuNTI5IDIuOTEtMy44ODggNS4xNTljLTE0LjEwMiA0LjI3Mi01OC43MDYgNS41Ni03MS4wOTQuMTcxLTQuNDUxLTEuOTM4IDMuODk5LTQuNjI1IDYuNTI2LTUuMTkyIDIuNzM5LS41OTMgNC4zMDMtLjQ4NSA0LjMwMy0uNDg1LTQuOTUzLTMuNDg3LTMyLjAxMyA2Ljg1LTEzLjc0MyA5LjgxNSA0OS44MjEgOC4wNzYgOTAuODE3LTMuNjM3IDc3Ljg5Ni05LjQ2OHpNNDkuOTEyIDcwLjI5NHMtMjIuNjg2IDUuMzg5LTguMDMzIDcuMzQ4YzYuMTg4LjgyOCAxOC41MTguNjM4IDMwLjAxMS0uMzI2IDkuMzktLjc4OSAxOC44MTMtMi40NzQgMTguODEzLTIuNDc0cy0zLjMwOCAxLjQxOS01LjcwNCAzLjA1M2MtMjMuMDQyIDYuMDYxLTY3LjU0NCAzLjIzOC01NC43MzEtMi45NTggMTAuODMyLTUuMjM5IDE5LjY0NC00LjY0MyAxOS42NDQtNC42NDN6bTQwLjY5NyAyMi43NDdjMjMuNDIxLTEyLjE2NyAxMi41OTEtMjMuODYgNS4wMzItMjIuMjg1LTEuODQ4LjM4NS0yLjY3Ny43Mi0yLjY3Ny43MnMuNjg4LTEuMDc5IDItMS41NDNjMTQuOTUzLTUuMjU1IDI2LjQ1MSAxNS41MDMtNC44MjMgMjMuNzI1IDAtLjAwMi4zNTktLjMyNy40NjgtLjYxN3oiLz48cGF0aCBmaWxsPSIjRUEyRDJFIiBkPSJNNzYuNDkxIDEuNTg3Uzg5LjQ1OSAxNC41NjMgNjQuMTg4IDM0LjUxYy0yMC4yNjYgMTYuMDA2LTQuNjIxIDI1LjEzLS4wMDcgMzUuNTU5LTExLjgzMS0xMC42NzMtMjAuNTA5LTIwLjA3LTE0LjY4OC0yOC44MTVDNTguMDQxIDI4LjQyIDgxLjcyMiAyMi4xOTUgNzYuNDkxIDEuNTg3eiIvPjxwYXRoIGZpbGw9IiMwMDc0QkQiIGQ9Ik01Mi4yMTQgMTI2LjAyMWMyMi40NzYgMS40MzcgNTctLjggNTcuODE3LTExLjQzNiAwIDAtMS41NzEgNC4wMzItMTguNTc3IDcuMjMxLTE5LjE4NiAzLjYxMi00Mi44NTQgMy4xOTEtNTYuODg3Ljg3NCAwIC4wMDEgMi44NzUgMi4zODEgMTcuNjQ3IDMuMzMxeiIvPjwvc3ZnPg==" parent="1" vertex="1">
          <mxGeometry x="-110" y="57.88000000000002" width="60" height="60" as="geometry" />
        </mxCell>
        <mxCell id="JmNyguJmU6QeXbeeKk7V-6" style="edgeStyle=orthogonalEdgeStyle;rounded=0;orthogonalLoop=1;jettySize=auto;html=1;exitX=0.5;exitY=1;exitDx=0;exitDy=0;" parent="1" source="JmNyguJmU6QeXbeeKk7V-5" target="JmNyguJmU6QeXbeeKk7V-5" edge="1">
          <mxGeometry relative="1" as="geometry" />
        </mxCell>
        <mxCell id="JmNyguJmU6QeXbeeKk7V-8" value="" style="shape=image;verticalLabelPosition=bottom;verticalAlign=top;imageAspect=0;aspect=fixed;image=data:image/svg+xml,PHN2ZyB4bWxucz0iaHR0cDovL3d3dy53My5vcmcvMjAwMC9zdmciIHZpZXdCb3g9IjAgMCAxMjggMTI4Ij48cGF0aCBmaWxsPSIjRjBEQjRGIiBkPSJNMS40MDggMS40MDhoMTI1LjE4NHYxMjUuMTg1SDEuNDA4eiIvPjxwYXRoIGZpbGw9IiMzMjMzMzAiIGQ9Ik0xMTYuMzQ3IDk2LjczNmMtLjkxNy01LjcxMS00LjY0MS0xMC41MDgtMTUuNjcyLTE0Ljk4MS0zLjgzMi0xLjc2MS04LjEwNC0zLjAyMi05LjM3Ny01LjkyNi0uNDUyLTEuNjktLjUxMi0yLjY0Mi0uMjI2LTMuNjY1LjgyMS0zLjMyIDQuNzg0LTQuMzU1IDcuOTI1LTMuNDAzIDIuMDIzLjY3OCAzLjkzOCAyLjIzNyA1LjA5MyA0LjcyNCA1LjQwMi0zLjQ5OCA1LjM5MS0zLjQ3NSA5LjE2My01Ljg3OS0xLjM4MS0yLjE0MS0yLjExOC0zLjEyOS0zLjAyMi00LjA0NS0zLjI0OS0zLjYyOS03LjY3Ni01LjQ5OC0xNC43NTYtNS4zNTVsLTMuNjg4LjQ3N2MtMy41MzQuODkzLTYuOTAyIDIuNzQ4LTguODc3IDUuMjM1LTUuOTI2IDYuNzI0LTQuMjM2IDE4LjQ5MiAyLjk3NSAyMy4zMzUgNy4xMDQgNS4zMzIgMTcuNTQgNi41NDUgMTguODczIDExLjUzMSAxLjI5NyA2LjEwNC00LjQ4NiA4LjA4LTEwLjIzNCA3LjM3OC00LjIzNi0uODgxLTYuNTkyLTMuMDM0LTkuMTM5LTYuOTQ5LTQuNjg4IDIuNzEzLTQuNjg4IDIuNzEzLTkuNTA4IDUuNDg1IDEuMTQzIDIuNDk5IDIuMzQ0IDMuNjMgNC4yNiA1Ljc5NSA5LjA2OCA5LjE5OCAzMS43NiA4Ljc0NiAzNS44My01LjE3Ni4xNjUtLjQ3OCAxLjI2MS0zLjY2Ni4zOC04LjU4MXpNNjkuNDYyIDU4Ljk0M0g1Ny43NTNsLS4wNDggMzAuMjcyYzAgNi40MzguMzMzIDEyLjM0LS43MTQgMTQuMTQ5LTEuNzEzIDMuNTU4LTYuMTUyIDMuMTE3LTguMTc1IDIuNDI3LTIuMDU5LTEuMDEyLTMuMTA2LTIuNDUxLTQuMzE5LTQuNDg1LS4zMzMtLjU4NC0uNTgzLTEuMDM2LS42NjctMS4wNzFsLTkuNTIgNS44M2MxLjU4MyAzLjI0OSAzLjkxNSA2LjA2OSA2LjkwMiA3LjkwMSA0LjQ2MiAyLjY3OCAxMC40NTkgMy40OTkgMTYuNzMxIDIuMDU5IDQuMDgyLTEuMTg5IDcuNjA0LTMuNjUyIDkuNDQ4LTcuNDAxIDIuNjY2LTQuOTE1IDIuMDk0LTEwLjg2NCAyLjA3LTE3LjQ0NC4wNi0xMC43MzUuMDAxLTIxLjQ2OC4wMDEtMzIuMjM3eiIvPjwvc3ZnPg==" parent="1" vertex="1">
          <mxGeometry x="-170" y="57.88" width="60" height="60" as="geometry" />
        </mxCell>
        <mxCell id="JmNyguJmU6QeXbeeKk7V-9" value="" style="shape=image;verticalLabelPosition=bottom;labelBackgroundColor=default;verticalAlign=top;aspect=fixed;imageAspect=0;image=https://www.vectorlogo.zone/logos/dotnet/dotnet-vertical.svg;" parent="1" vertex="1">
          <mxGeometry x="-230" y="57.88" width="60" height="59.37" as="geometry" />
        </mxCell>
        <mxCell id="JmNyguJmU6QeXbeeKk7V-10" value="Any language" style="text;html=1;align=center;verticalAlign=middle;resizable=0;points=[];autosize=1;strokeColor=none;fillColor=none;" parent="1" vertex="1">
          <mxGeometry x="-160" y="117.88" width="100" height="30" as="geometry" />
        </mxCell>
        <mxCell id="edXbKeQGwq4txhtlksnO-1" value="Prometheus" style="shape=image;verticalLabelPosition=bottom;verticalAlign=top;imageAspect=0;aspect=fixed;image=data:image/svg+xml,PHN2ZyB4bWxucz0iaHR0cDovL3d3dy53My5vcmcvMjAwMC9zdmciIHZpZXdCb3g9IjAgMCAxMjggMTI4Ij48cGF0aCBkPSJNNjMuNjYgMi40NzdjMzMuNDc3LjAwNyA2MC45NTcgMjcuMjk2IDYwLjkxNCA2MC41LS4wNDMgMzMuNzAzLTI3LjQxIDYwLjYxNy02MS42MTMgNjAuNTkzLTMzLjQ0MS0uMDIzLTYwLjQ3Ny0yNy4zNDMtNjAuNDUzLTYxLjA4NkMyLjUzIDI5LjQ4OCAzMC4wNjYgMi40NyA2My42NiAyLjQ3N3ptLTE4LjUwNCAyMS4yNWMuNzY2IDMuNzc3LjAyNCA3LjMtMS4xMTMgMTAuNzY1LS43ODUgMi4zOTktMS44NzEgNC43MTEtMi41MiA3LjE0NS0xLjA3IDQuMDA4LTIuMjggOC4wMzktMi43MjYgMTIuMTM2LS42NCA1Ljg5NSAxLjY3NiAxMS4wODYgNS42NCAxNi4yNWwtMTguMjIyLTMuODM1Yy4wMzEuNTc0IDAgLjc5Mi4wNjIuOTc2IDEuNzI3IDUuMDc0IDQuNzY2IDkuMzQ4IDguMTcyIDEzLjM3OS4zNi40MjYgMS4xOC42NDQgMS43OS42NDQgMTguMTY3LjAzNiAzNi4zMzUuMDMyIDU0LjUwMy4wMDguNTYzIDAgMS4zMTctLjEwNSAxLjY2LS40NjggMy44OTUtNC4wOTQgNi44NzEtOC43NTggOC43MzUtMTQuNjNsLTE5LjI5IDMuNzc4YzEuMjc0LTIuNDk2IDIuNzIzLTQuNjg4IDMuNTYtNy4wOTggMi44NTUtOC4yNDIgMS42NzEtMTYuMjEtMi40MjctMjMuNzI2LTMuMjg5LTYuMDMxLTYuMzI0LTEyLjAzNS00LjY4My0xOS4zMDUtMy40NzMgMy40MzQtNC44MDkgNy44LTUuNjU2IDEyLjMtLjgzMiA0LjQzNC0xLjMyNSA4LjkzLTEuOTcgMTMuNDMtLjA5My0uMTM2LS4yMS0uMjM4LS4yMy0uMzU1YTEzLjMxNyAxMy4zMTcgMCAwMS0uMTY4LTEuNDIyYy0uMzk0LTcuMzY3LTEuODMyLTE0LjQ2NS00Ljg3LTIxLjI0Ni0xLjc4Ni0zLjk4OC0zLjc1OC04LjA3LTEuOTE1LTEyLjgzMi0xLjI0Ni42Ni0yLjM3NSAxLjMxMy0zLjE4MyAyLjI0Ni0yLjQxIDIuNzg1LTMuNDA3IDYuMTMtMy42NjQgOS43OTMtLjIyIDMuMTMtLjUyIDYuMjc0LTEuMTAyIDkuMzUyLS42MSAzLjIzNC0xLjU3NCA2LjQwMi0zLjc1IDkuMzc1LS44NzUtNi4zNDgtLjk3My0xMi42My02LjYzMy0xNi42NnpNOTIgODYuNzVIMzUuMDE2djkuODk4SDkyem0tNDUuNjg0IDE1LjAxNmMtLjA0NiA4LjI0MiA4LjM0OCAxNC4zODIgMTguNzIzIDEzLjkzNyA4LjYwMi0uMzcxIDE2LjIxMS03LjEzNyAxNS41NTktMTMuOTM3em0wIDAiIGZpbGw9IiNlNzUyMjUiLz48L3N2Zz4=" parent="1" vertex="1">
          <mxGeometry x="-140" y="177.88" width="60" height="60" as="geometry" />
        </mxCell>
        <mxCell id="edXbKeQGwq4txhtlksnO-2" value="Grafana" style="shape=image;verticalLabelPosition=bottom;verticalAlign=top;imageAspect=0;aspect=fixed;image=data:image/svg+xml,PHN2ZyB4bWxucz0iaHR0cDovL3d3dy53My5vcmcvMjAwMC9zdmciIHZpZXdCb3g9IjAgMCAxMjggMTI4Ij48bGluZWFyR3JhZGllbnQgaWQ9ImdyYWZhbmEtb3JpZ2luYWwtYSIgZ3JhZGllbnRVbml0cz0idXNlclNwYWNlT25Vc2UiIHgxPSI0NS44NDIiIHkxPSI4OS41NyIgeDI9IjQ1Ljg0MiIgeTI9IjguODAyIiBncmFkaWVudFRyYW5zZm9ybT0idHJhbnNsYXRlKC0uMjMgMjguNDYyKSBzY2FsZSgxLjQwMTEpIj48c3RvcCBvZmZzZXQ9IjAiIHN0b3AtY29sb3I9IiNmY2VlMWYiLz48c3RvcCBvZmZzZXQ9IjEiIHN0b3AtY29sb3I9IiNmMTViMmEiLz48L2xpbmVhckdyYWRpZW50PjxwYXRoIGZpbGw9InVybCgjZ3JhZmFuYS1vcmlnaW5hbC1hKSIgZD0iTTEyMC44IDU2LjljLS4yLTIuMS0uNi00LjUtMS4yLTcuMnMtMS44LTUuNS0zLjItOC42Yy0xLjUtMy0zLjQtNi4yLTUuOS05LjEtMS0xLjItMi4xLTIuMy0zLjItMy41IDEuOC02LjktMi4xLTEzLTIuMS0xMy02LjctLjQtMTAuOSAyLjEtMTIuNCAzLjItLjItLjEtLjYtLjItLjgtLjMtMS4xLS40LTIuMy0uOS0zLjUtMS4zLTEuMi0uMy0yLjQtLjgtMy42LTEtMS4yLS4zLTIuNS0uNi0zLjktLjgtLjIgMC0uNC0uMS0uNy0uMUM3Ny41IDYgNjkuMSAyIDY5LjEgMmMtOS42IDYuMi0xMS40IDE0LjQtMTEuNCAxNC40czAgLjItLjEuNGMtLjYuMS0xIC4zLTEuNS40LS43LjItMS40LjQtMi4xLjhsLTIuMS45Yy0xLjQuNy0yLjggMS4zLTQuMiAyLjEtMS4zLjgtMi42IDEuNS0zLjkgMi40LS4yLS4xLS4zLS4yLS4zLS4yLTEyLjktNS0yNC4zIDEtMjQuMyAxLTEgMTMuOCA1LjIgMjIuMyA2LjQgMjMuOS0uMy45LS42IDEuNy0uOSAyLjUtMSAzLjEtMS43IDYuMy0yLjEgOS42LS4xLjQtLjEgMS0uMiAxLjRDMTAuNSA2Ny41IDcgNzkuNiA3IDc5LjYgMTYuOSA5MSAyOC41IDkxLjcgMjguNSA5MS43YzEuNCAyLjYgMy4yIDUuMiA1LjEgNy41LjggMSAxLjcgMS45IDIuNSAyLjktMy42IDEwLjMuNiAxOSAuNiAxOSAxMS4xLjQgMTguNC00LjggMTkuOS02LjEgMS4xLjMgMi4yLjcgMy4zIDEgMy40LjkgNi45IDEuNCAxMC4zIDEuNWg0LjVjNS4yIDcuNSAxNC40IDguNSAxNC40IDguNSA2LjUtNi45IDYuOS0xMy42IDYuOS0xNS4ydi0uNmMxLjMtMSAyLjYtMiA0LTMuMSAyLjYtMi4zIDQuOC01LjEgNi44LTcuOS4yLS4yLjMtLjYuNi0uOCA3LjQuNCAxMi41LTQuNiAxMi41LTQuNi0xLjItNy43LTUuNi0xMS40LTYuNS0xMi4xbC0uMS0uMS0uMS0uMS0uMS0uMWMwLS40LjEtLjkuMS0xLjQuMS0uOS4xLTEuNy4xLTIuNXYtMy4zYzAtLjIgMC0uNC0uMS0uN2wtLjEtLjctLjEtLjdjLS4xLS45LS4zLTEuNy0uNC0yLjUtLjgtMy4zLTIuMS02LjUtMy43LTkuMi0xLjgtMi45LTMuOS01LjMtNi4zLTcuNS0yLjQtMi4xLTUuMS0zLjktNy45LTUuMS0yLjktMS4zLTUuNy0yLjEtOC43LTIuNC0xLjQtLjItMy0uMi00LjQtLjJoLTIuM2MtLjguMS0xLjUuMi0yLjIuMy0zIC42LTUuNyAxLjctOC4xIDMuMS0yLjQgMS40LTQuNSAzLjMtNi4zIDUuNC0xLjggMi4xLTMuMSA0LjMtNCA2LjctLjkgMi4zLTEuNCA0LjgtMS41IDcuMnYyLjZjMCAuMyAwIC42LjEuOS4xIDEuMi4zIDIuMy43IDMuNC43IDIuMiAxLjcgNC4yIDMgNS45czIuOCAzLjEgNC40IDQuMmMxLjcgMS4xIDMuMyAxLjkgNS4xIDIuNHMzLjQuOCA1IC43aDIuM2MuMiAwIC40LS4xLjYtLjEuMiAwIC4zLS4xLjYtLjEuMy0uMS44LS4yIDEuMS0uMy43LS4yIDEuMy0uNiAyLS44LjctLjMgMS4yLS43IDEuNy0xIC4xLS4xLjMtLjIuNC0uMy42LS40LjctMS4yLjItMS44LS40LS40LTEuMS0uNi0xLjctLjMtLjEuMS0uMi4xLS40LjItLjQuMi0xIC40LTEuNC42LS42LjEtMS4xLjMtMS43LjQtLjMgMC0uNi4xLS45LjFoLTEuOHMtLjEgMCAwIDBoLS43Yy0uMSAwLS4zIDAtLjQtLjEtMS4yLS4yLTIuNS0uNi0zLjctMS4xLTEuMi0uNi0yLjQtMS4zLTMuNC0yLjMtMS4xLTEtMi0yLjEtMi44LTMuNC0uOC0xLjMtMS4yLTIuOC0xLjQtNC4yLS4xLS44LS4yLTEuNS0uMS0yLjN2LS43YzAgLjEgMCAwIDAgMFY3MGMwLS40LjEtLjguMi0xLjIuNi0zLjMgMi4yLTYuNSA0LjctOC45LjctLjcgMS4zLTEuMiAyLjEtMS43LjgtLjYgMS41LTEgMi4zLTEuMy44LS4zIDEuNy0uNyAyLjUtLjkuOS0uMiAxLjgtLjQgMi42LS40LjQgMCAuOS0uMSAxLjMtLjFoLjhjLjEgMCAwIDAgMCAwaC40YzEgLjEgMiAuMiAyLjkuNCAxLjkuNCAzLjcgMS4xIDUuNSAyLjEgMy41IDIgNi41IDUgOC4zIDguNi45IDEuOCAxLjUgMy43IDEuOSA1LjguMS42LjEgMSAuMiAxLjV2Mi43YzAgLjYtLjEgMS4xLS4xIDEuNy0uMS42LS4xIDEuMS0uMiAxLjdzLS4yIDEuMS0uMyAxLjdjLS4yIDEuMS0uNyAyLjEtMSAzLjItLjggMi4xLTEuOSA0LjEtMy4yIDUuOC0yLjYgMy42LTYuMyA2LjYtMTAuMyA4LjUtMi4xLjktNC4yIDEuNy02LjQgMi0xLjEuMi0yLjIuMy0zLjMuM2gtMS42Yy4xIDAgMCAwIDAgMGgtLjFjLS42IDAtMS4yIDAtMS44LS4xLTIuNC0uMi00LjctLjctNy0xLjMtMi4zLS43LTQuNS0xLjUtNi42LTIuNi00LjItMi4yLTcuOS01LjQtMTAuOS05LTEuNC0xLjktMi44LTMuOS0zLjktNS45cy0xLjktNC4zLTIuNS02LjVjLS43LTIuMi0xLTQuNS0xLjEtNi44di0zLjVjMC0xLjEuMS0yLjMuMy0zLjUuMS0xLjIuMy0yLjMuNi0zLjUuMi0xLjIuNi0yLjMuOS0zLjUuNy0yLjMgMS40LTQuNSAyLjQtNi42IDItNC4yIDQuNS03LjkgNy41LTEwLjkuOC0uOCAxLjUtMS40IDIuNC0yLjEuMy0uMyAxLjEtMSAyLTEuNXMxLjgtMS4xIDIuOC0xLjVjLjQtLjIuOS0uNCAxLjQtLjcuMi0uMS40LS4yLjgtLjMuMi0uMS40LS4yLjgtLjMgMS0uNCAyLS44IDMtMS4xLjItLjEuNi0uMS44LS4yLjItLjEuNi0uMS44LS4yLjYtLjEgMS0uMiAxLjUtLjQuMi0uMS42LS4xLjgtLjIuMiAwIC42LS4xLjgtLjEuMiAwIC42LS4xLjgtLjFsLjQtLjEuNC0uMWMuMiAwIC42LS4xLjgtLjEuMyAwIC42LS4xLjktLjEuMiAwIC43LS4xLjktLjEuMiAwIC4zIDAgLjYtLjFoLjdjLjMgMCAuNiAwIC45LS4xaC40cy4xIDAgMCAwaDQuMWMyIC4xIDQgLjMgNS44LjcgMy43LjcgNy40IDEuOSAxMC42IDMuNSAzLjIgMS41IDYuMiAzLjUgOC42IDUuNi4xLjEuMy4yLjQuNC4xLjEuMy4yLjQuNC4zLjIuNi42LjkuOC4zLjIuNi42LjkuOC4yLjMuNi42LjguOSAxLjEgMS4xIDIuMSAyLjMgMyAzLjQgMS44IDIuMyAzLjIgNC42IDQuMyA2LjguMS4xLjEuMi4yLjQuMS4xLjEuMi4yLjRzLjIuNi40LjhjLjEuMi4yLjYuMy44LjEuMi4yLjYuMy44LjQgMSAuOCAyIDEuMSAzIC42IDEuNS45IDIuOSAxLjIgNCAuMS40LjYuOCAxIC44LjYgMCAuOS0uNC45LTEtLjMtMS43LS4zLTMuMS0uNC00Ljh6Ii8+PC9zdmc+" parent="1" vertex="1">
          <mxGeometry x="-80" y="177.88" width="60" height="60" as="geometry" />
        </mxCell>
        <mxCell id="edXbKeQGwq4txhtlksnO-5" value="1" style="html=1;whiteSpace=wrap;fillColor=#10739E;strokeColor=none;shadow=0;fontSize=17;fontColor=#FFFFFF;align=center;fontStyle=1;rounded=0;" parent="1" vertex="1">
          <mxGeometry x="30" y="141" width="40" height="40" as="geometry" />
        </mxCell>
        <mxCell id="edXbKeQGwq4txhtlksnO-6" value="Telegram" style="shape=mxgraph.infographic.ribbonSimple;notch1=0;notch2=10;notch=0;html=1;whiteSpace=wrap;fillColor=#64BBE2;strokeColor=none;shadow=0;fontSize=17;fontColor=#FFFFFF;align=left;spacingLeft=10;fontStyle=1;" parent="1" vertex="1">
          <mxGeometry x="75" y="141" width="112.41" height="40" as="geometry" />
        </mxCell>
        <mxCell id="edXbKeQGwq4txhtlksnO-7" value="3" style="html=1;whiteSpace=wrap;fillColor=#F2931E;strokeColor=none;shadow=0;fontSize=17;fontColor=#FFFFFF;align=center;fontStyle=1;rounded=0;" parent="1" vertex="1">
          <mxGeometry x="30" y="239" width="40" height="40" as="geometry" />
        </mxCell>
        <mxCell id="edXbKeQGwq4txhtlksnO-8" value="ANY" style="shape=mxgraph.infographic.ribbonSimple;notch1=0;notch2=10;notch=0;html=1;whiteSpace=wrap;fillColor=#F8C382;strokeColor=none;shadow=0;fontSize=17;fontColor=#FFFFFF;align=left;spacingLeft=10;fontStyle=1;" parent="1" vertex="1">
          <mxGeometry x="75" y="239" width="72.41" height="40" as="geometry" />
        </mxCell>
        <mxCell id="edXbKeQGwq4txhtlksnO-13" value="2" style="html=1;whiteSpace=wrap;fillColor=#008a00;strokeColor=#005700;shadow=0;fontSize=17;fontColor=#ffffff;align=center;fontStyle=1;rounded=0;" parent="1" vertex="1">
          <mxGeometry x="30" y="189" width="40" height="40" as="geometry" />
        </mxCell>
        <mxCell id="edXbKeQGwq4txhtlksnO-14" value="Email" style="shape=mxgraph.infographic.ribbonSimple;notch1=0;notch2=10;notch=0;html=1;whiteSpace=wrap;fillColor=#60a917;strokeColor=#2D7600;shadow=0;fontSize=17;fontColor=#ffffff;align=left;spacingLeft=10;fontStyle=1;" parent="1" vertex="1">
          <mxGeometry x="75" y="189" width="92.41" height="40" as="geometry" />
        </mxCell>
        <mxCell id="edXbKeQGwq4txhtlksnO-15" value="HTTP" style="text;html=1;align=center;verticalAlign=middle;resizable=0;points=[];autosize=1;strokeColor=none;fillColor=none;" parent="1" vertex="1">
          <mxGeometry x="175" y="195" width="50" height="30" as="geometry" />
        </mxCell>
      </root>
    </mxGraphModel>
  </diagram>
  <diagram id="bL1cc0D6Y017aAPHv3Oy" name="producer-consumer">
    <mxGraphModel dx="2391" dy="-237" grid="1" gridSize="10" guides="1" tooltips="1" connect="1" arrows="1" fold="1" page="0" pageScale="1" pageWidth="827" pageHeight="1169" math="0" shadow="0">
      <root>
        <mxCell id="0" />
        <mxCell id="1" parent="0" />
        <mxCell id="ZOmHD8dTaM563qhe6zxO-3" value="" style="rounded=1;whiteSpace=wrap;html=1;fillColor=default;shadow=1;arcSize=4;" parent="1" vertex="1">
          <mxGeometry x="-300" y="1319" width="350" height="310" as="geometry" />
        </mxCell>
        <mxCell id="ZOmHD8dTaM563qhe6zxO-4" style="edgeStyle=orthogonalEdgeStyle;rounded=0;orthogonalLoop=1;jettySize=auto;html=1;fontStyle=0;strokeWidth=2;fillColor=#1ba1e2;strokeColor=#006EAF;" parent="1" source="ZOmHD8dTaM563qhe6zxO-5" target="ZOmHD8dTaM563qhe6zxO-6" edge="1">
          <mxGeometry relative="1" as="geometry" />
        </mxCell>
        <mxCell id="ZOmHD8dTaM563qhe6zxO-5" value="Producer" style="rounded=1;whiteSpace=wrap;html=1;fillColor=#dae8fc;strokeColor=#6c8ebf;shadow=1;gradientColor=none;" parent="1" vertex="1">
          <mxGeometry x="-500" y="1451.5" width="110" height="55" as="geometry" />
        </mxCell>
        <mxCell id="ZOmHD8dTaM563qhe6zxO-6" value="Exchange" style="ellipse;whiteSpace=wrap;html=1;aspect=fixed;fillColor=#ffe6cc;strokeColor=#d79b00;shadow=1;fontStyle=1" parent="1" vertex="1">
          <mxGeometry x="-280" y="1439" width="80" height="80" as="geometry" />
        </mxCell>
        <mxCell id="ZOmHD8dTaM563qhe6zxO-7" value="" style="rounded=0;whiteSpace=wrap;html=1;" parent="1" vertex="1">
          <mxGeometry x="-200" y="1374" width="90" height="210" as="geometry" />
        </mxCell>
        <mxCell id="ZOmHD8dTaM563qhe6zxO-8" value="Routing" style="text;html=1;align=center;verticalAlign=middle;resizable=0;points=[];autosize=1;strokeColor=none;fillColor=none;fontStyle=1" parent="1" vertex="1">
          <mxGeometry x="-190" y="1374" width="70" height="30" as="geometry" />
        </mxCell>
        <mxCell id="ZOmHD8dTaM563qhe6zxO-9" value="Binding" style="text;html=1;align=center;verticalAlign=middle;resizable=0;points=[];autosize=1;strokeColor=none;fillColor=none;fontStyle=1" parent="1" vertex="1">
          <mxGeometry x="-190" y="1554" width="70" height="30" as="geometry" />
        </mxCell>
        <mxCell id="ZOmHD8dTaM563qhe6zxO-10" value="exchangeName" style="text;html=1;align=center;verticalAlign=middle;resizable=0;points=[];autosize=1;strokeColor=none;fillColor=none;fontSize=8;" parent="1" vertex="1">
          <mxGeometry x="-280" y="1519" width="80" height="20" as="geometry" />
        </mxCell>
        <mxCell id="ZOmHD8dTaM563qhe6zxO-11" value="" style="html=1;verticalLabelPosition=bottom;align=center;labelBackgroundColor=#ffffff;verticalAlign=top;strokeWidth=2;strokeColor=#0080F0;shadow=0;dashed=0;shape=mxgraph.ios7.icons.mail;" parent="1" vertex="1">
          <mxGeometry x="-360" y="1459" width="30" height="16.5" as="geometry" />
        </mxCell>
        <mxCell id="ZOmHD8dTaM563qhe6zxO-12" style="edgeStyle=orthogonalEdgeStyle;rounded=0;orthogonalLoop=1;jettySize=auto;html=1;fillColor=#1ba1e2;strokeColor=#006EAF;strokeWidth=2;" parent="1" source="ZOmHD8dTaM563qhe6zxO-13" target="ZOmHD8dTaM563qhe6zxO-27" edge="1">
          <mxGeometry relative="1" as="geometry" />
        </mxCell>
        <mxCell id="ZOmHD8dTaM563qhe6zxO-13" value="" style="outlineConnect=0;dashed=0;verticalLabelPosition=bottom;verticalAlign=top;align=center;html=1;shape=mxgraph.aws3.queue;fillColor=#1ba1e2;fontColor=#ffffff;strokeColor=#006EAF;" parent="1" vertex="1">
          <mxGeometry x="-60" y="1374" width="73.5" height="48" as="geometry" />
        </mxCell>
        <mxCell id="ZOmHD8dTaM563qhe6zxO-16" style="edgeStyle=orthogonalEdgeStyle;rounded=0;orthogonalLoop=1;jettySize=auto;html=1;" parent="1" source="ZOmHD8dTaM563qhe6zxO-17" target="ZOmHD8dTaM563qhe6zxO-29" edge="1">
          <mxGeometry relative="1" as="geometry" />
        </mxCell>
        <mxCell id="ZOmHD8dTaM563qhe6zxO-17" value="" style="outlineConnect=0;dashed=0;verticalLabelPosition=bottom;verticalAlign=top;align=center;html=1;shape=mxgraph.aws3.queue;fillColor=#008a00;fontColor=#ffffff;strokeColor=#005700;" parent="1" vertex="1">
          <mxGeometry x="-60" y="1536" width="73.5" height="48" as="geometry" />
        </mxCell>
        <mxCell id="ZOmHD8dTaM563qhe6zxO-18" value="telegram-notification" style="text;html=1;align=center;verticalAlign=middle;resizable=0;points=[];autosize=1;strokeColor=none;fillColor=none;fontSize=8;fontStyle=1" parent="1" vertex="1">
          <mxGeometry x="-73.25" y="1354" width="100" height="20" as="geometry" />
        </mxCell>
        <mxCell id="ZOmHD8dTaM563qhe6zxO-20" value="email-notification" style="text;html=1;align=center;verticalAlign=middle;resizable=0;points=[];autosize=1;strokeColor=none;fillColor=none;fontSize=8;" parent="1" vertex="1">
          <mxGeometry x="-63.25" y="1516" width="80" height="20" as="geometry" />
        </mxCell>
        <mxCell id="ZOmHD8dTaM563qhe6zxO-21" style="rounded=0;orthogonalLoop=1;jettySize=auto;html=1;exitX=1;exitY=0.5;exitDx=0;exitDy=0;entryX=0;entryY=0.5;entryDx=0;entryDy=0;entryPerimeter=0;strokeWidth=2;fillColor=#1ba1e2;strokeColor=#006EAF;" parent="1" source="ZOmHD8dTaM563qhe6zxO-6" target="ZOmHD8dTaM563qhe6zxO-13" edge="1">
          <mxGeometry relative="1" as="geometry" />
        </mxCell>
        <mxCell id="ZOmHD8dTaM563qhe6zxO-23" style="rounded=0;orthogonalLoop=1;jettySize=auto;html=1;exitX=1;exitY=0.5;exitDx=0;exitDy=0;entryX=0;entryY=0.5;entryDx=0;entryDy=0;entryPerimeter=0;" parent="1" source="ZOmHD8dTaM563qhe6zxO-6" target="ZOmHD8dTaM563qhe6zxO-17" edge="1">
          <mxGeometry relative="1" as="geometry" />
        </mxCell>
        <mxCell id="ZOmHD8dTaM563qhe6zxO-24" value="telegram" style="text;html=1;align=center;verticalAlign=middle;resizable=0;points=[];autosize=1;strokeColor=none;fillColor=none;fontSize=8;fontStyle=1;spacing=0;" parent="1" vertex="1">
          <mxGeometry x="-177" y="1414" width="50" height="20" as="geometry" />
        </mxCell>
        <mxCell id="ZOmHD8dTaM563qhe6zxO-26" value="email" style="text;html=1;align=center;verticalAlign=middle;resizable=0;points=[];autosize=1;strokeColor=none;fillColor=none;fontSize=8;" parent="1" vertex="1">
          <mxGeometry x="-170" y="1516" width="40" height="20" as="geometry" />
        </mxCell>
        <mxCell id="ZOmHD8dTaM563qhe6zxO-27" value="Consumer" style="rounded=1;whiteSpace=wrap;html=1;shadow=1;fillColor=#d5e8d4;strokeColor=#82b366;" parent="1" vertex="1">
          <mxGeometry x="113" y="1368" width="120" height="60" as="geometry" />
        </mxCell>
        <mxCell id="ZOmHD8dTaM563qhe6zxO-29" value="&lt;span style=&quot;color: rgb(0, 0, 0); font-family: Helvetica; font-size: 12px; font-style: normal; font-variant-ligatures: normal; font-variant-caps: normal; font-weight: 400; letter-spacing: normal; orphans: 2; text-align: center; text-indent: 0px; text-transform: none; widows: 2; word-spacing: 0px; -webkit-text-stroke-width: 0px; text-decoration-thickness: initial; text-decoration-style: initial; text-decoration-color: initial; float: none; display: inline !important;&quot;&gt;Consumer&lt;/span&gt;" style="rounded=1;whiteSpace=wrap;html=1;shadow=1;fillColor=#d5e8d4;strokeColor=#82b366;" parent="1" vertex="1">
          <mxGeometry x="113" y="1530" width="120" height="60" as="geometry" />
        </mxCell>
        <mxCell id="ZOmHD8dTaM563qhe6zxO-30" value="" style="html=1;verticalLabelPosition=bottom;align=center;labelBackgroundColor=#ffffff;verticalAlign=top;strokeWidth=2;strokeColor=#0080F0;shadow=0;dashed=0;shape=mxgraph.ios7.icons.mail;" parent="1" vertex="1">
          <mxGeometry x="65" y="1374" width="30" height="16.5" as="geometry" />
        </mxCell>
        <mxCell id="ZOmHD8dTaM563qhe6zxO-32" value="" style="html=1;verticalLabelPosition=bottom;align=center;labelBackgroundColor=#ffffff;verticalAlign=top;strokeWidth=2;strokeColor=#0080F0;shadow=0;dashed=0;shape=mxgraph.ios7.icons.mail;" parent="1" vertex="1">
          <mxGeometry x="65" y="1536" width="30" height="16.5" as="geometry" />
        </mxCell>
        <mxCell id="ZOmHD8dTaM563qhe6zxO-40" style="edgeStyle=orthogonalEdgeStyle;rounded=0;orthogonalLoop=1;jettySize=auto;html=1;entryX=1;entryY=0.5;entryDx=0;entryDy=0;exitX=1;exitY=0.5;exitDx=0;exitDy=0;endArrow=oval;endFill=1;startArrow=oval;startFill=1;" parent="1" source="ZOmHD8dTaM563qhe6zxO-42" target="ZOmHD8dTaM563qhe6zxO-27" edge="1">
          <mxGeometry relative="1" as="geometry">
            <mxPoint x="238.25" y="1749" as="sourcePoint" />
            <Array as="points">
              <mxPoint x="260" y="1820" />
              <mxPoint x="260" y="1398" />
            </Array>
          </mxGeometry>
        </mxCell>
        <mxCell id="ZOmHD8dTaM563qhe6zxO-37" value="x5" style="ellipse;whiteSpace=wrap;html=1;aspect=fixed;fillColor=#1ba1e2;fontColor=#ffffff;strokeColor=#006EAF;" parent="1" vertex="1">
          <mxGeometry x="210" y="1355.5" width="35" height="35" as="geometry" />
        </mxCell>
        <mxCell id="ZOmHD8dTaM563qhe6zxO-39" value="x3" style="ellipse;whiteSpace=wrap;html=1;aspect=fixed;fillColor=#60a917;fontColor=#ffffff;strokeColor=#2D7600;" parent="1" vertex="1">
          <mxGeometry x="210" y="1519" width="35" height="35" as="geometry" />
        </mxCell>
        <mxCell id="ZOmHD8dTaM563qhe6zxO-42" value="&lt;div style=&quot;background-color: rgb(30, 31, 34); color: rgb(188, 190, 196); font-size: 9px;&quot;&gt;&lt;pre style=&quot;font-family: &amp;quot;JetBrains Mono&amp;quot;, monospace; font-size: 9px;&quot;&gt;&lt;div&gt;&lt;pre style=&quot;font-family:&#39;JetBrains Mono&#39;,monospace;font-size:9,8pt;&quot;&gt;{&lt;br&gt;  &quot;rabbitmq&quot;: {&lt;br&gt;    &lt;span style=&quot;color:#c77dbb;&quot;&gt;&quot;user&quot;&lt;/span&gt;: &lt;span style=&quot;color:#6aab73;&quot;&gt;&quot;user&quot;&lt;/span&gt;,&lt;br&gt;    &lt;span style=&quot;color:#c77dbb;&quot;&gt;&quot;password&quot;&lt;/span&gt;: &lt;span style=&quot;color:#6aab73;&quot;&gt;&quot;password&quot;&lt;/span&gt;,&lt;br&gt;    &lt;span style=&quot;color:#c77dbb;&quot;&gt;&quot;host&quot;&lt;/span&gt;: &lt;span style=&quot;color:#6aab73;&quot;&gt;&quot;domain&quot;&lt;/span&gt;,&lt;br&gt;    &lt;span style=&quot;color:#c77dbb;&quot;&gt;&quot;port&quot;&lt;/span&gt;: &lt;span style=&quot;color:#2aacb8;&quot;&gt;5671&lt;/span&gt;,&lt;br&gt;    &lt;span style=&quot;color:#c77dbb;&quot;&gt;&quot;vhost&quot;&lt;/span&gt;: &lt;span style=&quot;color:#6aab73;&quot;&gt;&quot;&quot;&lt;/span&gt;,&lt;br&gt;    &lt;span style=&quot;color:#c77dbb;&quot;&gt;&quot;cacert&quot;&lt;/span&gt;: &lt;span style=&quot;color:#6aab73;&quot;&gt;&quot;./rabbitmq-settings/root.crt&quot;&lt;/span&gt;,&lt;br&gt;    &lt;span style=&quot;color:#c77dbb;&quot;&gt;&quot;certFile&quot;&lt;/span&gt;: &lt;span style=&quot;color:#6aab73;&quot;&gt;&quot;./rabbitmq-settings/client.crt&quot;&lt;/span&gt;,&lt;br&gt;    &lt;span style=&quot;color:#c77dbb;&quot;&gt;&quot;keyFile&quot;&lt;/span&gt;: &lt;span style=&quot;color:#6aab73;&quot;&gt;&quot;./rabbitmq-settings/client.key&quot;&lt;br&gt;&lt;/span&gt;&lt;span style=&quot;color:#6aab73;&quot;&gt;  &lt;/span&gt;},&lt;br&gt;  &lt;span style=&quot;color:#c77dbb;&quot;&gt;&quot;exchange&quot;&lt;/span&gt;: {&lt;br&gt;    &lt;span style=&quot;color:#c77dbb;&quot;&gt;&quot;name&quot;&lt;/span&gt;: &lt;span style=&quot;color:#6aab73;&quot;&gt;&quot;exchangeName&quot;&lt;/span&gt;,&lt;br&gt;    &lt;span style=&quot;color:#c77dbb;&quot;&gt;&quot;type&quot;&lt;/span&gt;: &lt;span style=&quot;color:#6aab73;&quot;&gt;&quot;direct&quot;&lt;br&gt;&lt;/span&gt;&lt;span style=&quot;color:#6aab73;&quot;&gt;  &lt;/span&gt;},&lt;br&gt;  &lt;span style=&quot;color:#c77dbb;&quot;&gt;&quot;consumer&quot;&lt;/span&gt;: {&lt;br&gt;    &lt;span style=&quot;color:#c77dbb;&quot;&gt;&quot;connectionName&quot;&lt;/span&gt;: &lt;span style=&quot;color:#6aab73;&quot;&gt;&quot;consumerName&quot;&lt;/span&gt;,&lt;br&gt;    &lt;span style=&quot;color:#c77dbb;&quot;&gt;&quot;routingKey&quot;&lt;/span&gt;: &lt;span style=&quot;color:#6aab73;&quot;&gt;&quot;key&quot;&lt;/span&gt;,&lt;br&gt;    &lt;span style=&quot;color:#c77dbb;&quot;&gt;&quot;queue&quot;&lt;/span&gt;: &lt;span style=&quot;color:#6aab73;&quot;&gt;&quot;queueName&quot;&lt;/span&gt;,&lt;br&gt;    &lt;span style=&quot;color:#c77dbb;&quot;&gt;&quot;count&quot;&lt;/span&gt;: &lt;span style=&quot;color:#2aacb8;&quot;&gt;5&lt;/span&gt;,&lt;br&gt;    &lt;span style=&quot;color:#c77dbb;&quot;&gt;&quot;prefetchCount&quot;&lt;/span&gt;: &lt;span style=&quot;color:#2aacb8;&quot;&gt;5&lt;/span&gt;,&lt;br&gt;    &lt;span style=&quot;color:#c77dbb;&quot;&gt;&quot;expireAfterSeconds&quot;&lt;/span&gt;: &lt;span style=&quot;color:#2aacb8;&quot;&gt;0&lt;br&gt;&lt;/span&gt;&lt;span style=&quot;color:#2aacb8;&quot;&gt;  &lt;/span&gt;}&lt;br&gt;}&lt;/pre&gt;&lt;/div&gt;&lt;/pre&gt;&lt;/div&gt;" style="text;whiteSpace=wrap;html=1;fontSize=9;" parent="1" vertex="1">
          <mxGeometry x="-44" y="1679" width="267" height="280" as="geometry" />
        </mxCell>
        <mxCell id="ZOmHD8dTaM563qhe6zxO-45" style="edgeStyle=orthogonalEdgeStyle;rounded=0;orthogonalLoop=1;jettySize=auto;html=1;exitX=0;exitY=0.153;exitDx=0;exitDy=0;entryX=0.5;entryY=1;entryDx=0;entryDy=0;startArrow=oval;startFill=1;endArrow=oval;endFill=1;exitPerimeter=0;" parent="1" source="ZOmHD8dTaM563qhe6zxO-43" target="ZOmHD8dTaM563qhe6zxO-5" edge="1">
          <mxGeometry relative="1" as="geometry" />
        </mxCell>
        <mxCell id="ZOmHD8dTaM563qhe6zxO-43" value="&lt;div style=&quot;background-color: rgb(30, 31, 34); color: rgb(188, 190, 196); font-size: 9px;&quot;&gt;&lt;pre style=&quot;font-family: &amp;quot;JetBrains Mono&amp;quot;, monospace; font-size: 9px;&quot;&gt;&lt;div&gt;&lt;pre style=&quot;font-family:&#39;JetBrains Mono&#39;,monospace;font-size:9,8pt;&quot;&gt;{&lt;br&gt;  &quot;rabbitmq&quot;: {&lt;br&gt;    &lt;span style=&quot;color:#c77dbb;&quot;&gt;&quot;user&quot;&lt;/span&gt;: &lt;span style=&quot;color:#6aab73;&quot;&gt;&quot;user&quot;&lt;/span&gt;,&lt;br&gt;    &lt;span style=&quot;color:#c77dbb;&quot;&gt;&quot;password&quot;&lt;/span&gt;: &lt;span style=&quot;color:#6aab73;&quot;&gt;&quot;password&quot;&lt;/span&gt;,&lt;br&gt;    &lt;span style=&quot;color:#c77dbb;&quot;&gt;&quot;host&quot;&lt;/span&gt;: &lt;span style=&quot;color:#6aab73;&quot;&gt;&quot;domain&quot;&lt;/span&gt;,&lt;br&gt;    &lt;span style=&quot;color:#c77dbb;&quot;&gt;&quot;port&quot;&lt;/span&gt;: &lt;span style=&quot;color:#2aacb8;&quot;&gt;5671&lt;/span&gt;,&lt;br&gt;    &lt;span style=&quot;color:#c77dbb;&quot;&gt;&quot;vhost&quot;&lt;/span&gt;: &lt;span style=&quot;color:#6aab73;&quot;&gt;&quot;&quot;&lt;/span&gt;,&lt;br&gt;    &lt;span style=&quot;color:#c77dbb;&quot;&gt;&quot;cacert&quot;&lt;/span&gt;: &lt;span style=&quot;color:#6aab73;&quot;&gt;&quot;./rabbitmq-settings/root.crt&quot;&lt;/span&gt;,&lt;br&gt;    &lt;span style=&quot;color:#c77dbb;&quot;&gt;&quot;certFile&quot;&lt;/span&gt;: &lt;span style=&quot;color:#6aab73;&quot;&gt;&quot;./rabbitmq-settings/client.crt&quot;&lt;/span&gt;,&lt;br&gt;    &lt;span style=&quot;color:#c77dbb;&quot;&gt;&quot;keyFile&quot;&lt;/span&gt;: &lt;span style=&quot;color:#6aab73;&quot;&gt;&quot;./rabbitmq-settings/client.key&quot;&lt;br&gt;&lt;/span&gt;&lt;span style=&quot;color:#6aab73;&quot;&gt;  &lt;/span&gt;},&lt;br&gt;  &lt;span style=&quot;color:#c77dbb;&quot;&gt;&quot;exchange&quot;&lt;/span&gt;: {&lt;br&gt;    &lt;span style=&quot;color:#c77dbb;&quot;&gt;&quot;name&quot;&lt;/span&gt;: &lt;span style=&quot;color:#6aab73;&quot;&gt;&quot;exchangeName&quot;&lt;/span&gt;,&lt;br&gt;    &lt;span style=&quot;color:#c77dbb;&quot;&gt;&quot;type&quot;&lt;/span&gt;: &lt;span style=&quot;color:#6aab73;&quot;&gt;&quot;direct&quot;&lt;br&gt;&lt;/span&gt;&lt;span style=&quot;color:#6aab73;&quot;&gt;  &lt;/span&gt;},&lt;br&gt;  &lt;span style=&quot;color:#c77dbb;&quot;&gt;&quot;producer&quot;&lt;/span&gt;: {&lt;br&gt;    &lt;span style=&quot;color:#c77dbb;&quot;&gt;&quot;authToken&quot;&lt;/span&gt;: &lt;span style=&quot;color:#6aab73;&quot;&gt;&quot;***************&quot;&lt;br&gt;&lt;/span&gt;&lt;span style=&quot;color:#6aab73;&quot;&gt;  &lt;/span&gt;}&lt;br&gt;}&lt;/pre&gt;&lt;/div&gt;&lt;/pre&gt;&lt;/div&gt;" style="text;whiteSpace=wrap;html=1;fontSize=9;" parent="1" vertex="1">
          <mxGeometry x="-400" y="1679" width="270" height="230" as="geometry" />
        </mxCell>
        <mxCell id="ZOmHD8dTaM563qhe6zxO-48" style="edgeStyle=orthogonalEdgeStyle;rounded=1;orthogonalLoop=1;jettySize=auto;html=1;dashed=1;curved=0;" parent="1" source="ZOmHD8dTaM563qhe6zxO-24" edge="1">
          <mxGeometry relative="1" as="geometry">
            <mxPoint x="-27.166666666666515" y="1882.8333333333335" as="targetPoint" />
            <Array as="points">
              <mxPoint x="-152" y="1439" />
              <mxPoint x="-90" y="1439" />
              <mxPoint x="-90" y="1883" />
            </Array>
          </mxGeometry>
        </mxCell>
        <mxCell id="ZOmHD8dTaM563qhe6zxO-49" style="edgeStyle=orthogonalEdgeStyle;rounded=1;orthogonalLoop=1;jettySize=auto;html=1;curved=0;dashed=1;fillColor=#e3c800;strokeColor=#B09500;" parent="1" source="ZOmHD8dTaM563qhe6zxO-10" edge="1">
          <mxGeometry relative="1" as="geometry">
            <mxPoint x="-23.86206896551721" y="1827.7931034482758" as="targetPoint" />
            <Array as="points">
              <mxPoint x="-240" y="1659" />
              <mxPoint x="-110" y="1659" />
              <mxPoint x="-110" y="1828" />
            </Array>
          </mxGeometry>
        </mxCell>
        <mxCell id="ZOmHD8dTaM563qhe6zxO-50" style="edgeStyle=orthogonalEdgeStyle;rounded=1;orthogonalLoop=1;jettySize=auto;html=1;curved=0;dashed=1;fillColor=#1ba1e2;strokeColor=#006EAF;" parent="1" source="ZOmHD8dTaM563qhe6zxO-18" edge="1">
          <mxGeometry relative="1" as="geometry">
            <mxPoint x="159" y="1893" as="targetPoint" />
            <Array as="points">
              <mxPoint x="40" y="1364" />
              <mxPoint x="40" y="1659" />
              <mxPoint x="240" y="1659" />
              <mxPoint x="240" y="1893" />
            </Array>
          </mxGeometry>
        </mxCell>
        <mxCell id="ZOmHD8dTaM563qhe6zxO-51" style="edgeStyle=orthogonalEdgeStyle;rounded=1;orthogonalLoop=1;jettySize=auto;html=1;curved=0;fillColor=#e3c800;strokeColor=#B09500;dashed=1;" parent="1" source="ZOmHD8dTaM563qhe6zxO-10" edge="1">
          <mxGeometry relative="1" as="geometry">
            <mxPoint x="-252" y="1829" as="targetPoint" />
            <Array as="points">
              <mxPoint x="-240" y="1659" />
              <mxPoint x="-110" y="1659" />
              <mxPoint x="-110" y="1829" />
            </Array>
          </mxGeometry>
        </mxCell>
        <mxCell id="ZOmHD8dTaM563qhe6zxO-52" style="edgeStyle=orthogonalEdgeStyle;rounded=1;orthogonalLoop=1;jettySize=auto;html=1;dashed=1;curved=0;fillColor=#1ba1e2;strokeColor=#006EAF;" parent="1" source="ZOmHD8dTaM563qhe6zxO-37" edge="1">
          <mxGeometry relative="1" as="geometry">
            <mxPoint x="42" y="1905" as="targetPoint" />
            <Array as="points">
              <mxPoint x="270" y="1373" />
              <mxPoint x="270" y="1905" />
            </Array>
          </mxGeometry>
        </mxCell>
        <mxCell id="ZOmHD8dTaM563qhe6zxO-55" value="&lt;div style=&quot;background-color: rgb(30, 31, 34); font-size: 9px;&quot;&gt;&lt;pre style=&quot;font-family: &amp;quot;JetBrains Mono&amp;quot;, monospace; font-size: 9px;&quot;&gt;&lt;font color=&quot;#bcbec4&quot; style=&quot;font-size: 9px;&quot;&gt;{ &lt;br style=&quot;font-size: 9px;&quot;&gt;  &lt;/font&gt;&lt;span style=&quot;color: rgb(199, 125, 187); font-size: 9px;&quot;&gt;&quot;chatId&quot;&lt;/span&gt;&lt;font color=&quot;#bcbec4&quot; style=&quot;font-size: 9px;&quot;&gt;: &lt;/font&gt;&lt;font color=&quot;#2aacb8&quot; style=&quot;font-size: 9px;&quot;&gt;123123123123&lt;/font&gt;&lt;font color=&quot;#bcbec4&quot; style=&quot;font-size: 9px;&quot;&gt;, &lt;br style=&quot;font-size: 9px;&quot;&gt;  &lt;/font&gt;&lt;span style=&quot;color: rgb(199, 125, 187); font-size: 9px;&quot;&gt;&quot;message&quot;&lt;/span&gt;&lt;font color=&quot;#bcbec4&quot; style=&quot;font-size: 9px;&quot;&gt;: &lt;/font&gt;&lt;span style=&quot;color: rgb(106, 171, 115); font-size: 9px;&quot;&gt;&quot;hello&quot;&lt;/span&gt;&lt;font color=&quot;#bcbec4&quot; style=&quot;font-size: 9px;&quot;&gt;, &lt;br style=&quot;font-size: 9px;&quot;&gt;  &lt;/font&gt;&lt;span style=&quot;color: rgb(199, 125, 187); font-size: 9px;&quot;&gt;&quot;parseMode&quot;&lt;/span&gt;&lt;font color=&quot;#bcbec4&quot; style=&quot;font-size: 9px;&quot;&gt;: &lt;/font&gt;&lt;span style=&quot;color: rgb(106, 171, 115); font-size: 9px;&quot;&gt;&quot;MarkdownV2&quot;&lt;/span&gt;&lt;font color=&quot;#bcbec4&quot; style=&quot;font-size: 9px;&quot;&gt;, &lt;br style=&quot;font-size: 9px;&quot;&gt;  &lt;/font&gt;&lt;span style=&quot;color: rgb(199, 125, 187); font-size: 9px;&quot;&gt;&quot;token&quot;&lt;/span&gt;&lt;font color=&quot;#bcbec4&quot; style=&quot;font-size: 9px;&quot;&gt;: &lt;/font&gt;&lt;span style=&quot;color: rgb(106, 171, 115); font-size: 9px;&quot;&gt;&quot;34347686&quot;&lt;br style=&quot;font-size: 9px;&quot;&gt;&lt;/span&gt;&lt;font color=&quot;#bcbec4&quot; style=&quot;font-size: 9px;&quot;&gt;}&lt;/font&gt;&lt;/pre&gt;&lt;/div&gt;" style="text;whiteSpace=wrap;html=1;fontSize=9;" parent="1" vertex="1">
          <mxGeometry x="-485" y="1332" width="160" height="81" as="geometry" />
        </mxCell>
        <mxCell id="ZOmHD8dTaM563qhe6zxO-56" style="edgeStyle=orthogonalEdgeStyle;rounded=0;orthogonalLoop=1;jettySize=auto;html=1;endArrow=oval;endFill=1;startArrow=oval;startFill=1;fillColor=#1ba1e2;strokeColor=#006EAF;" parent="1" edge="1">
          <mxGeometry relative="1" as="geometry">
            <mxPoint x="-345" y="1413" as="sourcePoint" />
            <mxPoint x="-345" y="1457" as="targetPoint" />
            <Array as="points">
              <mxPoint x="-345" y="1413" />
            </Array>
          </mxGeometry>
        </mxCell>
        <mxCell id="ZOmHD8dTaM563qhe6zxO-57" value="RoutingKey: &lt;font color=&quot;#cc00cc&quot;&gt;telegram&lt;/font&gt;" style="text;html=1;align=left;verticalAlign=middle;resizable=0;points=[];autosize=1;strokeColor=none;fillColor=none;fontSize=9;fontStyle=1" parent="1" vertex="1">
          <mxGeometry x="-484" y="1330" width="120" height="20" as="geometry" />
        </mxCell>
        <mxCell id="ZOmHD8dTaM563qhe6zxO-58" value="" style="html=1;verticalLabelPosition=bottom;align=center;labelBackgroundColor=#ffffff;verticalAlign=top;strokeWidth=2;strokeColor=#0080F0;shadow=0;dashed=0;shape=mxgraph.ios7.icons.mail;" parent="1" vertex="1">
          <mxGeometry x="-125" y="1397.5" width="30" height="16.5" as="geometry" />
        </mxCell>
        <mxCell id="ZOmHD8dTaM563qhe6zxO-59" value="" style="shape=image;verticalLabelPosition=bottom;labelBackgroundColor=default;verticalAlign=top;aspect=fixed;imageAspect=0;image=data:image/png,iVBORw0KGgoAAAANSUhEUgAAAUEAAABwCAYAAACAX8KNAAAAAXNSR0IArs4c6QAAAARnQU1BAACxjwv8YQUAAAAJcEhZcwAADsMAAA7DAcdvqGQAABqXSURBVHhe7Z0HeBzVtcf/gy1ZLrhLsiz33gGDHSDEFNNikgAJSd5Lz0vhUR/EIRA6hBhICCShhjQgBUIIoQRjqhs2uIKNjLsNLiqWu2zLRfa8e3buWneuZmfvzM6u1p7z49uPe0e7O7vr3f+cc+8pli0AwzBMTDlG/p9hGCaWsAgyDBNrWAQZhok1LIIMw8QaFkGGYWINiyDDMLGGRZBhmFjDIsgwTKxhEWQYJtawCDIME2tYBBmGiTUsggzDxBoWQYZhYg2LIMMwsYZFkGGYWMMiyDBMrImmqOr+PcCUe4C1c4CGffJgCrr2A864Auh9ojwQkA2LgKkPAZtWiYnPS29RCPQdC5x/A9CqnTzIMAzjJnMRPLAXmDQGqKyQBwyZOBUYdIacGLJyJnDfODkxpGwocNNCoKBIHmAYhmkkc3d45uPBBZD450Q5CMBzP5aDAFQtdSxHhmEYDzIXwTACSKwT1llQNn4oBwH5ZL4cMAzDuMlcBA+kWQP0g1zpIBw8IAcBCXoehmFiQ/PuDluWHDAMwzQPHCLDMEysaWYRZEuQYZjmhd1hhmFiDbvDDMPEGrYEGYaJNbwmyDBMrGF3mGGYWMPuMMMwsYbdYYZhYg27wwzDxBp2hxmGiTVsCTIME2tYBBmGiTXNJ4LsCjMMkwc0oyXIIsgwTPPD7jDDMLGG3WGGYWINu8MMw8QadocZhok17A4zDBMZBw8eROWmKsxbvBDT587CzHnvYkHFB1i+ZiU2Vldi3/798p75Q+bN1//8beC9p+QkAC0LgYcDdqq7rAA41CAnATjuQuDyF+QkD5nxO9hPXyknPhS2AXqdCPQdA5QOhtVH/L98pPxj82PfdwawehYw4rOwrnhJHo0W+/bhQM0KYMBnYE18Wx6NFvuBs8X7mO1MTvwKrO8+4YyzzPsfLcaadR/LmUOPbt3xqeNPkrNo2bxtC2YvmIMDDY2/qc4dO+Fkcb7WRa3lETN27qrDstUrsL5qozySmr49emP4oKFoVSg0IA/I3BIMa9E1hLgihBFA4mD+XX1U7Pefl6M07N8DrJoJvHE/8NdLYd81GvaDE/Kjr3L9DkcAiYpXnf9Hza5aRwAJ+hzqtzvjKJn2MLBiutPelW5z/wbsqJJ/zC7btjd9PxuE9fTxhk/kLFqWrV7pEkBi6/ZtRkKmUrFiKd54Z6rx49aK9/PazLewsaZSHmlemndNcMlrcmDAsrfkIARr3gP21slJHtIQsp8y8dEbsO85BTZZ5Ls2y4PNgH1IDiTZ6PV86KAcSLJxDi/Bq9skB9nFFv95sWZ99CLYcLABNZu939fefWYe2p699Xhr9vSEqxuUAwcO4L3352Plx6vkkeYjc3f4ie8A7z4pJwHpNgQ49bvCPh4rD3hAL2+luOpPuUd8cvXyYAh6jQY++1OgXVd5IAt07Sf8iV5yYo79q7McyybJedcBLVvJiUB8YbF7ixA5caMf5Kp35B80OpQJF3EqUNxfHsghe7bBnlgiJ+KL9Vtx0SkokrOI2FkN+/qeciLOce96oH03OYuIl2+DPXmSnDhYty8BSgfJWfYgQdm+U1jUHpw3bjzatWkrZ5mzvmoD5i5aKGdu+vXsgxOGj5Kz1Lw5axp21O2UM4eWLVqiV3kP8Ry90b7dsfKoMOA31yYswMqaanmkkRNHHo8+5cF/N1HRvCJ4NDLwM8DlLwJtOskD6bHvHy+EfoYzoXW+n6QQuSTkFpNlPP1RYKlmIXcbDOu2CjnJIcI1tX9ULCdHsAiKf4fEv0eSVu1g/XqbnBhA1ni9EIZicUEMiJ8IDh0wCMMGCKMhIuYuWuByX9u0bo099Y6RQYJEwuTHBx99iNXr1sqZw4hBQ9GvV++EEKaC3t/8ig+ws87tmY0/9XR0bN9BznILh8hEDVmtbz4gJyFoUSAHPtAGyajPA1dNBr7xmBAbZRG7ejns138pJ81I1ALoxTEt5CBCBo6D9c3HYY271LmRZW3K27+FfdMAYEWAx6RAFwQvCyoTqmtr5AjoXtJNiKD4ThlSu7W2iQCOGXUCBvXt7yuABL2vcWNORYdj28sjDgsrFslR7mERzAabAq6RqMa4vu6VDlpO+PJ9ciJ5+0E5yCEZOhR5BX2m//2Qc+vpbxEdZt4zsP85UVjpu+WBzOjUoSNKujQu3ZDbWb83g+UghU1bal0bIt1Lg1nTi5d9JEcOwwcNQc+ycjlLT2FBAU4dPRYtWzYK5rad27O2AZSOzEXwaPryRwXtKoYlzOd52veFv3S2nAhocX/xy3LC5AJ74XNyFB1lwkJTqayJZpdatyrLSsrkKD20lqi67GTRDe4rrN+AtC4qwkjhPqssWblcjnILW4J5gSJ8+i6rKad8Sw4c7CA771Ggi3eYEKig5NMF2GXBR5MIQDGCKpWbonGJ1dCU4s5dEpaZ+lmm2qUmPt6wXo4chvQfKEfB6dOjF1oVNm4A7t23N2Gl5hoWwbwggh/NiAlyIKldLQc5Qo8XpWD4qNHXAK08+voWKju3x0TzuopaFaFT+45yRm7sZjRocX1BIStODYHpXiqtQOXfz0rxfaSwFlWkaP2vPPn4EFjinAN695UzB3WtMlewCOYbYS3BomPd4Tn5HBd5NGJHbwkS3bu5XeKq2sysQd2lPiyCBlZ19Wa3QJV2bYwGCIsuotW1uYnJVGERzAeiyqNWLaNs7Jz6EdV78CUX5wjJgYApoIZ019brMt0lVl1q2qlt45Eel8odJktUJQoRbNe2res11O3eFdkGkCksgkcTamZD+1I5MIBi2xa95ASk/+dO5zblbnHsxejcaoptnPYw7L/8APaDF8D+xzXAjMfEpX+ZvEMIvMIxalY6uez0HqY+BFBK4tZ18o9ZZP37ciBEZH104R4UcKwGSafK8jCBMjzU4OZUu8Kp3GFKqVPpVtwYHJ8JJZqY5npdkEXwaGHDYkdoknQfLgc+bFiUyD22ryuD/diXYL94C+xXfubcXrxVHLsE9q1DYN/UH5j5uHxQCN77SyJ+LiF8s58APnrdEcSnr4J9x0jYFHC/M8NF/5XTYd9zMuzbh8F+8nvOe3j2WtiPfzXx+hPn2GoYgjHvadiXFSRuWOKdB23fOerwfRL327ZB/kUw9UHX31y3+06Xd2pKKvE57LIKKLRl05ZwQlhZ487VVa1M1fbzyp+gtUgqkpCkqFWrxJplFKiZJUTd7mjCjExhETxamPE7OXCwhp0nR97Y/74R9s9PSuQep0VYUvbfr4D9+/+SB8yhwG37yf8R1qbP1X3O32BPGgOsa7SmgmC/chfs+88GPlkgj3hA57j300aWrU0B70kql8iBAgle1VI5CQhZqgHR1802hnSJVVeaMkT0gGU/duxyp8e1jTCF79i27eTIYdceFsF4E6ZSzpaPgXf+ICcCysnud7KcNMX+++WAnlXS/1TgrKthff1RWNe+DuuHz4pjQjRUFv4L9lPflxMDKK1PiO1hWndMnAPn/cQd10jsqIb9wPjAImG/fLtwfe+QM0HiHFcB51/f9Bw7a5yUOPF/XyhXO4lX8HqnHkC7kOthHd1hLy5SLHlSeSvV6qoKESpDO7u1W7fIGQmr+3WkW23V1+mizGNu28adrbKbRZAJzBPflQMH69yJcuTBfCFuM38vJwLKjb16MqwfT4f15V85gdeDzgROuFgcmwbrihfdP1zKE/eyjnRqVsD+lxC7JGdfC9y1ArhEiO+FPwOuegWYtMYpbJFkb51wwS+WEwMWPAdM/rmcCM75EfDzVeIc9wFfuFOeYy3QW6nHt30j7L/8UE7CY/1sGazf7ID16AFYdy5378yL95o47nW7KVzZM0ptS1K/d2+TwgXpqNJCT3TrMt3eMJ1TJUoRLFAyRwi2BBlzyC379bmNBUAJEpVTviMnTbG1vGbr+38XFtM5cubBiAmwLnVnQ9gG64P2H78hzA/5w/n2n4Av3iOsNC1BvmM5cM3rTtGIJNVCUKaapf3Zf7tMjgRk+V18txMqpEICLixbDDhNHhBUTAbmivdtQqpd7yLhSlION0HFEgY0Ws1WFqr4lGuhMkGzR9Rd4cLCQnTp1FnOJGlUUBfBKAuiqgHTRKaxkEHJXARzEhoRIZTYT5bBoNO9b/SDzEXyf0oMPs+1cwBaZ6MNCyoAmqR8JCyyflJBbrNagJXKQ434rJz4QJ/Jp74uJwKTIrDJ3dIzr3Q/VodE68qXXVV37NcCFoA47guO5ZcKCmQmi7Z9426m8Tksw1AjYVFnk5IuJS6LKWj2SI0Sf6dalaZQ2XyVY3IdgpVF4mUJTrgZeKgeuHEeMHGa9+2nc537UO3B5oCsO8r7XTHD2bSgDY9nrwFeES7kX/8XuHkg8MtxiYV+F1RCi6wqv3qJVLxVqThjkXVmiDVG2RTZIX6A9QZVnTuIHxu52OkgAaR1vCSU+7z+AzlJA4nPd/4sJz7Q/c5WlgkqK1LXZcyUsAHvaayxbsWNYU9O5odZUVnKwqAiqknKPUNj/E9+UFsbbRFRVkwqdNHNJpm/k3zK3/Tj5G86a1GmXDQJUH/42UT9DKl46mOXCDdXuKgPfQ545mpg2qNCBO8CZosfux7z1rYzrIvugnXDe/4CSJQOhHX7h7CufRPW3cIqpHJcpuibJLs1EfT6Hoy/Vg4MOOXbciCp8LFoVcgKNLXCThYuuoJN66NRob7/sCKYxgko76bvEpu5xKrV2LJFCyGmXiLof/JDh9zvqUWL7IrgoRzqSnwsQXLLgnKmYp3kI92Hw7pRWK7nXW8uBJ17O24/rccFgdxW9TEmu9haUQdfaMdVWLNJ7ArDAhAnfVUODKCLRO8T5URAweDpyCO3r7SrOwC+yjBURt1NLlWsyUzItBZzOrL9/CqZi+CRsiZYNkwOAtDrBDnIUyqXOEU8F/5LHsgybRqT+dNCGxHCSg2Eam2ueTe9y01u9Ijz5cQQqvydZHslsNldHDQSwv6A0zyMrDi1vNamrZubNErS2bpjm6tggrcrTKduPLlX2lwLcW6Vhiy7q/qOcTaJjztsUrFZR+3zkU3UCwn1CfltnXd4xQNbYF0t3ETNjU0EMb92r5xlEbWCtX7x0+f9T5GDAJQ2WoIJaKdYRU+TO/4iOQhAiVb6SUl388T0Iq/ez/QxOgYPU0WMrKUaraiBjm4tlnm6wu5Te2Wu6BWjsymCLYT1TRVmckV83OEjhS59Uu9OU1jG0HNhXfY8rOumuywt+4Wbzdy7TNi3Sw4MKA5eaJPWLF1sc9eua4JJaqBOidYwqcpdJbkJprvDKmFbwxrQtNCqv0usrgeWdi1xVXMOQmGh24iIMoxFF9SCgtxZgQSLYN5haFn3OxXWpe6FffuFm+QoAqizH7mK5JZWTE7k47qKHaTzALr0loMA6Bs7W9Lk+upWnQkdtSDhujTJ+jm0SEwoLChEcefGz0kPglbZvWePK983aBl9Fb0Z+4FM2sRqUDaLSkHLEF5bBrAI5gOqoGi7cL4MPB044YtyIiD3Mdm1LigUkjLlbtiPfhH2jX1hX90e9i2DYP9yHOyHL3Qqs6jo6WS6KLbtIgcBIEtXwd6qWYL6OXTL0QR9AymdCOYhqpiRRVarlbhKUrlJqx0YIj4wSZsit3eyz7A3sQn79rufK8pAbBNYBPMOQ0tQYp1+qRw52JRKZgq1sKTKMSR6k8YkKsckYhTViihhCbopQugZJQfTlOgPk5mhZ5Ska2yVzuJNotZyNH1MSPS831SB02pWCdUOzKTqS+tWbkuwPkIR1NPk2rUxjHSICBbBfMDlcgV0vwaf5ba6lhpUhRHYz9/g9PClGoK66JFbSgUVKLZygnCxL7i5aRyfju42tgqTW5rGmtTPsSdAP+AkeshLmhaRxu5wDkv9U5Mitey+V7zg/gP7sXnbVjlLbwWmk229JWeURQ6okKoKFVrNJfERQcpyCAplLuSaMIG2St4qNq1KFAnwgwqb4g0tk4Nyji+eBNy5DPiFeDz12/3WH4DPCevwgluAbz4eLLYwzJpRMtdYYjWxJjVB2h1CBOu1tgPpmuSnsxS9CPOYgKguMVV40Qsq6JVm1JqEnqSxXilERhVeEq6DQZZufNi+0/3a9dJa2SZzEcyzheOUrJopBwFYPk0Osoz6BQwjgmoBAoI2M1Jgv3G/U9g0Ce1EUxGFG8RjzpkIdHU3vnHR4OMC6T+iBrOULhe6eOsiqIc57fZeC/NFK95qUZC2L+lsJEkULnCAp9BFTV//U3eNqQBqkNqBqcrrU0kvlS2KpZkJtVol6WKl33IuiI8lSGWdqIy8KbRg/tyP5STLZHghsfqOlSMHO1Vx0b3iiks5yCpUN3D0l+TEB7LS/D4/3aJKY416ou8Gd9Csl2TVliR1IURQry5NRSSiIApjIMBT6GX3qza5d4nVMvzlWuvOsHTp5P43jqIz3NYd210hMp07dOTd4axBru2tQwAKI6FCnH63F24U9xU/jkxLvpvisgRDWBRqvTwilQjOe8Yd6zfuUmC4fwXqw6jVZxJ4vE51Y2NDiD4b+mP6eQRcU1GGJKtnyUEA9P4fuhWtE8rCC/OY4Kg1AbcJMUkWVKiurXa5quUZ7AqrdO3kttDWVYW40GlsrHaX/C+NqG9JEDIXwSjcgFxBxQleneRUIva7vXo3sMegSkpUqFZEGHeYQkvKlG7+KcrU28unypGECp2aotYsTOBhtqjNndYZVoFRWTtXDgS0Rqnv5BJqEHaYBvNqCBFZmp16ykkKwlh4YQsoBKSpS+xctCtrGi00Sj8r7pJ5VziCNmRKlefav38/1q437NviAYX3fLzRHQbVp1wpTpsj4mMJ5jOuC0nIi4pqDVLOLW2Q6Khxd1Rbz2/9T+edP8pBEo/Xqb6GoNkrZKmvnSMngoHj5ECDWgck2fihk/9rCm2OqfUXh50rBz6EucjnyDBwyu43pnYm1wHVAGo9wyQVpq+4by93EPzyNR7fM0OWrFzmCpQmAdR3oXMBi2A+EMF6kr4uiHUL5UBB/XEeCvBDnXKvU5DVRdPXbA05S44Eu7c6pfxN0UTWGnyGHLmxBmni+OF/5MCA138hBw5W0OILhtj7lK5/AQjzLVA7xtE6IDVnV+sMlpWYVY1Rz52q6x1BMYrqJgu18Zy3OHiDLLIAV69zf6eG9A8R/B4BLIJHC9ralr3OY12wi+JqUPc3k14hVIb+pVvlRMErP3bkBDmQUN9fE8hCfes3ciKgOEVVUFVGhDwHvdepD8uJ4Fjh1o2+RE58MA13UYtt1GiFHwwJYz/qqXCzFyhLCgK1EKsf6rlT7Q4nGTXEnbO9vmojFlaYrwGTAOr3JwGMsoNdEFgE842wMWa9lDp5hMfmiEUB0Cp/+pazY5wKsgC1Jk6+UAc2Naia3FtqzOQHbdT87suu12GN/z+4Ktao0ObLZ34gJwJKFaR1XD/27wYed9cdtKgpU4RY7ZV1NwrHqt8hJ9mFiiKkKjtV2rW4SfWXKCjpUox+vfrImQMJ21uzZ/h2wttZV4e5ixY2EcBOHTpi+EBlTTvHsAjmG5msJ/X9lBwIvHaI9VAYKjF/zylOXjCFBNFjFr3kVLO+ZZDbAqQ+xgZpahbFGqo8IwSNntMLWrf8tXhetZwVBWSPv0ZOvLEoi0UNl5k8CdAaSB2mdg3wwDniXEorz5IBwDkRhz+pF6Gdm2D/WVwMaEkgAGEXRVKt++kd5fwwdYeTnDBsFLp2dmf0UMD2u+/Px8tvvYY5HyzA0lUrULFiKWbNn4PJ097Am7OnY4O2G0xVbU4ccXyi2APtcJNLv65yA1Z9skY8fjnWrNeXYaKHRfBoQhVBsrD0Hr4dujs9f1VIiJ4SltX1PYB7haVIVhn1NVFj9oSrbf3wH+4QmFSUDYX19UfkREDVaOg5qd8vCRXt6JIL+8hFwO3CrVJDb9p0gnX5C04Atx9CKC3KblF5/gZg0ljg7QeBiikABYU/ciFwm7Aw1AuCEEDrGrPUwkAMEe9Pbbv54SuwbxkM++krncZU1IT+5TucPskpCHv5S1UdxruMvjdB3OEkp4/9NPr2aFotiCrMUCrf0tUrsGLtatRsqXUVdlWhHeI3Z03DlBlv4u13Z+Cd+e9h3uKFWLS0Ah8JEXx/yeImBRaihkUwH1Cb1oQp/iqxhoofoson8+SgkYQVReX1Tfn092BdP9vJBVZDP/w2c04TokpNrVSoqREJ1cNfAP4prMWKV+UfJEJArOtmAD2PlwfScMYVsL6iWX8UZ0gB7iR+//6pI4YqA06D9ZNZTil/P1QXMkBOsPU1Zc2RoF16cUGxhStuUxP6yXcBs/Rd9kZU1zVIwDCV3dcrP5OLSSEtphyjfAf15/Jj9IjjMPa40Sld8ihoaMhuGiKLYD7QT1mrG/U5OQgBbRokdzwpg8Mr11e4kdRoCecLQfKz7Miio6bs33hMHhD0lO0GWndMKyTW529zehrTOqEf1A6TmpXfIlxiNfzFhDOvdBqfm2S8nPMjWJQPbVDdxiKrjiC3OV0wtcrw82FR5zt6T6nwyanuJgOFqbKy3lTJDyq7P6Rf485qQUEBhg0IlglTIlPVqNJMz7J0qYRu6P4TzjwPp510Mgb3HYCunTpH1o2OhLxtm+yGzVh2ph1NaO1DrzUXd+hHqTUsz1sW/wc2WWlUMLXHcbDaCvGkOoVR9ldZNQs2NTynsJ0GWR6rXRdYJ30FGClEP4o+z9XLYS94NnEuHBRCQ20Kug8T72mUsHzPMG9EFQW0ySPcfpuC1qlyNVnNx5Ymsl2sAeKCNzR1fCKtq9EuKQlbrqHKMEVFrbPeTjPfYBHMBkeSCDJMzMlc8mN21TAih7XlGIbJjMx/rXqlDyZY3T2GYZqVzEVw7NfkgDkMVWRmGOaIIPM1QYJKGlGhzkTSfuZPd2RiAcX9nIyJVMn/DMPkHdGIIMMwzBEKr+AzDBNrWAQZhok1LIIMw8QaFkGGYWINiyDDMLGGRZBhmFjDIsgwTKxhEWQYJtawCDIME2tYBBmGiTUsggzDxBoWQYZhYg2LIMMwsYZFkGGYWMMiyDBMrGERZBgm1rAIMgwTa1gEGYaJNSyCDMPEGhZBhmFiDPD/Qa+e/p+bIjIAAAAASUVORK5CYII=;" parent="1" vertex="1">
          <mxGeometry x="-290" y="1321.66" width="150" height="52.34" as="geometry" />
        </mxCell>
        <mxCell id="V6iCQ2j33ObSl8fL3kni-1" value="http://localhost:9090/&lt;font color=&quot;#cc00cc&quot;&gt;telegram&lt;/font&gt;" style="text;html=1;align=center;verticalAlign=middle;resizable=0;points=[];autosize=1;strokeColor=none;fillColor=none;fontStyle=1" parent="1" vertex="1">
          <mxGeometry x="-685" y="1459" width="190" height="30" as="geometry" />
        </mxCell>
        <mxCell id="V6iCQ2j33ObSl8fL3kni-3" value="HTTP" style="edgeStyle=orthogonalEdgeStyle;rounded=0;orthogonalLoop=1;jettySize=auto;html=1;" parent="1" source="V6iCQ2j33ObSl8fL3kni-2" target="V6iCQ2j33ObSl8fL3kni-1" edge="1">
          <mxGeometry relative="1" as="geometry" />
        </mxCell>
        <mxCell id="V6iCQ2j33ObSl8fL3kni-2" value="&lt;div style=&quot;background-color: rgb(30, 31, 34); font-size: 9px;&quot;&gt;&lt;pre style=&quot;font-family: &amp;quot;JetBrains Mono&amp;quot;, monospace; font-size: 9px;&quot;&gt;&lt;font color=&quot;#bcbec4&quot; style=&quot;font-size: 9px;&quot;&gt;{ &lt;br style=&quot;font-size: 9px;&quot;&gt;  &lt;/font&gt;&lt;span style=&quot;color: rgb(199, 125, 187); font-size: 9px;&quot;&gt;&quot;chatId&quot;&lt;/span&gt;&lt;font color=&quot;#bcbec4&quot; style=&quot;font-size: 9px;&quot;&gt;: &lt;/font&gt;&lt;font color=&quot;#2aacb8&quot; style=&quot;font-size: 9px;&quot;&gt;123123123123&lt;/font&gt;&lt;font color=&quot;#bcbec4&quot; style=&quot;font-size: 9px;&quot;&gt;, &lt;br style=&quot;font-size: 9px;&quot;&gt;  &lt;/font&gt;&lt;span style=&quot;color: rgb(199, 125, 187); font-size: 9px;&quot;&gt;&quot;message&quot;&lt;/span&gt;&lt;font color=&quot;#bcbec4&quot; style=&quot;font-size: 9px;&quot;&gt;: &lt;/font&gt;&lt;span style=&quot;color: rgb(106, 171, 115); font-size: 9px;&quot;&gt;&quot;hello&quot;&lt;/span&gt;&lt;font color=&quot;#bcbec4&quot; style=&quot;font-size: 9px;&quot;&gt;, &lt;br style=&quot;font-size: 9px;&quot;&gt;  &lt;/font&gt;&lt;span style=&quot;color: rgb(199, 125, 187); font-size: 9px;&quot;&gt;&quot;parseMode&quot;&lt;/span&gt;&lt;font color=&quot;#bcbec4&quot; style=&quot;font-size: 9px;&quot;&gt;: &lt;/font&gt;&lt;span style=&quot;color: rgb(106, 171, 115); font-size: 9px;&quot;&gt;&quot;MarkdownV2&quot;&lt;/span&gt;&lt;font color=&quot;#bcbec4&quot; style=&quot;font-size: 9px;&quot;&gt;, &lt;br style=&quot;font-size: 9px;&quot;&gt;  &lt;/font&gt;&lt;span style=&quot;color: rgb(199, 125, 187); font-size: 9px;&quot;&gt;&quot;token&quot;&lt;/span&gt;&lt;font color=&quot;#bcbec4&quot; style=&quot;font-size: 9px;&quot;&gt;: &lt;/font&gt;&lt;span style=&quot;color: rgb(106, 171, 115); font-size: 9px;&quot;&gt;&quot;34347686&quot;&lt;br style=&quot;font-size: 9px;&quot;&gt;&lt;/span&gt;&lt;font color=&quot;#bcbec4&quot; style=&quot;font-size: 9px;&quot;&gt;}&lt;/font&gt;&lt;/pre&gt;&lt;/div&gt;" style="text;whiteSpace=wrap;html=1;fontSize=9;" parent="1" vertex="1">
          <mxGeometry x="-670" y="1684" width="160" height="81" as="geometry" />
        </mxCell>
        <mxCell id="TH48GUt2ua6ftUKFUb1A-1" value="&amp;nbsp; Headers&lt;br&gt;&amp;nbsp; Authorization: Token &lt;font face=&quot;Courier New&quot;&gt;******&lt;/font&gt;" style="text;html=1;align=left;verticalAlign=middle;resizable=0;points=[];autosize=1;strokeColor=#9673a6;fillColor=#e1d5e7;fontStyle=1;spacing=0;" parent="1" vertex="1">
          <mxGeometry x="-680" y="1659" width="190" height="40" as="geometry" />
        </mxCell>
        <mxCell id="TH48GUt2ua6ftUKFUb1A-2" value="method: POST" style="text;html=1;align=center;verticalAlign=middle;resizable=0;points=[];autosize=1;strokeColor=#6c8ebf;fillColor=#dae8fc;fontStyle=1;spacing=0;" parent="1" vertex="1">
          <mxGeometry x="-680" y="1639" width="100" height="20" as="geometry" />
        </mxCell>
        <mxCell id="TH48GUt2ua6ftUKFUb1A-3" style="edgeStyle=orthogonalEdgeStyle;rounded=1;orthogonalLoop=1;jettySize=auto;html=1;entryX=0.624;entryY=-0.025;entryDx=0;entryDy=0;entryPerimeter=0;curved=0;strokeColor=default;dashed=1;" parent="1" source="V6iCQ2j33ObSl8fL3kni-1" target="ZOmHD8dTaM563qhe6zxO-57" edge="1">
          <mxGeometry relative="1" as="geometry">
            <Array as="points">
              <mxPoint x="-530" y="1310" />
              <mxPoint x="-409" y="1310" />
            </Array>
          </mxGeometry>
        </mxCell>
        <mxCell id="TH48GUt2ua6ftUKFUb1A-5" value="" style="shape=image;verticalLabelPosition=bottom;labelBackgroundColor=default;verticalAlign=top;aspect=fixed;imageAspect=0;image=https://www.vectorlogo.zone/logos/telegram/telegram-tile.svg;" parent="1" vertex="1">
          <mxGeometry x="205" y="1404" width="21.5" height="21.5" as="geometry" />
        </mxCell>
        <mxCell id="TH48GUt2ua6ftUKFUb1A-4" style="edgeStyle=orthogonalEdgeStyle;rounded=1;orthogonalLoop=1;jettySize=auto;html=1;curved=0;dashed=1;strokeColor=#CC00CC;" parent="1" edge="1">
          <mxGeometry relative="1" as="geometry">
            <mxPoint x="-378" y="1872" as="targetPoint" />
            <Array as="points">
              <mxPoint x="-480" y="1687" />
              <mxPoint x="-480" y="1872" />
            </Array>
            <mxPoint x="-499" y="1687" as="sourcePoint" />
          </mxGeometry>
        </mxCell>
      </root>
    </mxGraphModel>
  </diagram>
  <diagram id="c7wP0vb8JoUHodc5TvZ0" name="only-producer">
    <mxGraphModel dx="2234" dy="-330" grid="1" gridSize="10" guides="1" tooltips="1" connect="1" arrows="1" fold="1" page="0" pageScale="1" pageWidth="827" pageHeight="1169" math="0" shadow="0">
      <root>
        <mxCell id="0" />
        <mxCell id="1" parent="0" />
        <mxCell id="ti9OboQDYDclVUYqYlf7-1" value="" style="rounded=1;whiteSpace=wrap;html=1;fillColor=default;shadow=1;arcSize=4;" parent="1" vertex="1">
          <mxGeometry x="-300" y="1319" width="350" height="310" as="geometry" />
        </mxCell>
        <mxCell id="ti9OboQDYDclVUYqYlf7-2" style="edgeStyle=orthogonalEdgeStyle;rounded=0;orthogonalLoop=1;jettySize=auto;html=1;fontStyle=0;strokeWidth=2;fillColor=#f0a30a;strokeColor=#BD7000;" parent="1" source="ti9OboQDYDclVUYqYlf7-3" target="ti9OboQDYDclVUYqYlf7-4" edge="1">
          <mxGeometry relative="1" as="geometry" />
        </mxCell>
        <mxCell id="ti9OboQDYDclVUYqYlf7-3" value="Producer" style="rounded=1;whiteSpace=wrap;html=1;fillColor=#ffe6cc;strokeColor=#d79b00;shadow=1;" parent="1" vertex="1">
          <mxGeometry x="-500" y="1451.5" width="110" height="55" as="geometry" />
        </mxCell>
        <mxCell id="ti9OboQDYDclVUYqYlf7-4" value="Exchange" style="ellipse;whiteSpace=wrap;html=1;aspect=fixed;fillColor=#ffe6cc;strokeColor=#d79b00;shadow=1;fontStyle=1" parent="1" vertex="1">
          <mxGeometry x="-280" y="1439" width="80" height="80" as="geometry" />
        </mxCell>
        <mxCell id="ti9OboQDYDclVUYqYlf7-5" value="" style="rounded=0;whiteSpace=wrap;html=1;" parent="1" vertex="1">
          <mxGeometry x="-200" y="1374" width="90" height="210" as="geometry" />
        </mxCell>
        <mxCell id="ti9OboQDYDclVUYqYlf7-6" value="Routing" style="text;html=1;align=center;verticalAlign=middle;resizable=0;points=[];autosize=1;strokeColor=none;fillColor=none;fontStyle=1" parent="1" vertex="1">
          <mxGeometry x="-190" y="1374" width="70" height="30" as="geometry" />
        </mxCell>
        <mxCell id="ti9OboQDYDclVUYqYlf7-7" value="Binding" style="text;html=1;align=center;verticalAlign=middle;resizable=0;points=[];autosize=1;strokeColor=none;fillColor=none;fontStyle=1" parent="1" vertex="1">
          <mxGeometry x="-190" y="1554" width="70" height="30" as="geometry" />
        </mxCell>
        <mxCell id="ti9OboQDYDclVUYqYlf7-8" value="exchangeName" style="text;html=1;align=center;verticalAlign=middle;resizable=0;points=[];autosize=1;strokeColor=none;fillColor=none;fontSize=8;" parent="1" vertex="1">
          <mxGeometry x="-280" y="1519" width="80" height="20" as="geometry" />
        </mxCell>
        <mxCell id="ti9OboQDYDclVUYqYlf7-9" value="" style="html=1;verticalLabelPosition=bottom;align=center;labelBackgroundColor=#ffffff;verticalAlign=top;strokeWidth=2;strokeColor=#FF8000;shadow=0;dashed=0;shape=mxgraph.ios7.icons.mail;" parent="1" vertex="1">
          <mxGeometry x="-360" y="1459" width="30" height="16.5" as="geometry" />
        </mxCell>
        <mxCell id="ti9OboQDYDclVUYqYlf7-10" style="edgeStyle=orthogonalEdgeStyle;rounded=0;orthogonalLoop=1;jettySize=auto;html=1;fillColor=#f0a30a;strokeColor=#BD7000;strokeWidth=2;" parent="1" source="ti9OboQDYDclVUYqYlf7-11" target="ti9OboQDYDclVUYqYlf7-20" edge="1">
          <mxGeometry relative="1" as="geometry" />
        </mxCell>
        <mxCell id="ti9OboQDYDclVUYqYlf7-11" value="" style="outlineConnect=0;dashed=0;verticalLabelPosition=bottom;verticalAlign=top;align=center;html=1;shape=mxgraph.aws3.queue;fillColor=#f0a30a;fontColor=#000000;strokeColor=#BD7000;" parent="1" vertex="1">
          <mxGeometry x="-60" y="1374" width="73.5" height="48" as="geometry" />
        </mxCell>
        <mxCell id="ti9OboQDYDclVUYqYlf7-12" style="edgeStyle=orthogonalEdgeStyle;rounded=0;orthogonalLoop=1;jettySize=auto;html=1;" parent="1" source="ti9OboQDYDclVUYqYlf7-13" target="ti9OboQDYDclVUYqYlf7-21" edge="1">
          <mxGeometry relative="1" as="geometry" />
        </mxCell>
        <mxCell id="ti9OboQDYDclVUYqYlf7-13" value="" style="outlineConnect=0;dashed=0;verticalLabelPosition=bottom;verticalAlign=top;align=center;html=1;shape=mxgraph.aws3.queue;fillColor=#008a00;fontColor=#ffffff;strokeColor=#005700;" parent="1" vertex="1">
          <mxGeometry x="-60" y="1536" width="73.5" height="48" as="geometry" />
        </mxCell>
        <mxCell id="ti9OboQDYDclVUYqYlf7-14" value="any-queue-1" style="text;html=1;align=center;verticalAlign=middle;resizable=0;points=[];autosize=1;strokeColor=none;fillColor=none;fontSize=8;fontStyle=0" parent="1" vertex="1">
          <mxGeometry x="-58.25" y="1354" width="70" height="20" as="geometry" />
        </mxCell>
        <mxCell id="ti9OboQDYDclVUYqYlf7-15" value="any-queue-2" style="text;html=1;align=center;verticalAlign=middle;resizable=0;points=[];autosize=1;strokeColor=none;fillColor=none;fontSize=8;" parent="1" vertex="1">
          <mxGeometry x="-58.25" y="1516" width="70" height="20" as="geometry" />
        </mxCell>
        <mxCell id="ti9OboQDYDclVUYqYlf7-16" style="rounded=0;orthogonalLoop=1;jettySize=auto;html=1;exitX=1;exitY=0.5;exitDx=0;exitDy=0;entryX=0;entryY=0.5;entryDx=0;entryDy=0;entryPerimeter=0;strokeWidth=2;fillColor=#f0a30a;strokeColor=#BD7000;" parent="1" source="ti9OboQDYDclVUYqYlf7-4" target="ti9OboQDYDclVUYqYlf7-11" edge="1">
          <mxGeometry relative="1" as="geometry" />
        </mxCell>
        <mxCell id="ti9OboQDYDclVUYqYlf7-17" style="rounded=0;orthogonalLoop=1;jettySize=auto;html=1;exitX=1;exitY=0.5;exitDx=0;exitDy=0;entryX=0;entryY=0.5;entryDx=0;entryDy=0;entryPerimeter=0;fillColor=#60a917;strokeColor=#2D7600;strokeWidth=2;" parent="1" source="ti9OboQDYDclVUYqYlf7-4" target="ti9OboQDYDclVUYqYlf7-13" edge="1">
          <mxGeometry relative="1" as="geometry" />
        </mxCell>
        <mxCell id="ti9OboQDYDclVUYqYlf7-20" value="Consumer" style="rounded=1;whiteSpace=wrap;html=1;shadow=1;fillColor=#d5e8d4;strokeColor=#82b366;" parent="1" vertex="1">
          <mxGeometry x="113" y="1368" width="120" height="60" as="geometry" />
        </mxCell>
        <mxCell id="ti9OboQDYDclVUYqYlf7-21" value="&lt;span style=&quot;color: rgb(0, 0, 0); font-family: Helvetica; font-size: 12px; font-style: normal; font-variant-ligatures: normal; font-variant-caps: normal; font-weight: 400; letter-spacing: normal; orphans: 2; text-align: center; text-indent: 0px; text-transform: none; widows: 2; word-spacing: 0px; -webkit-text-stroke-width: 0px; text-decoration-thickness: initial; text-decoration-style: initial; text-decoration-color: initial; float: none; display: inline !important;&quot;&gt;Consumer&lt;/span&gt;" style="rounded=1;whiteSpace=wrap;html=1;shadow=1;fillColor=#d5e8d4;strokeColor=#82b366;" parent="1" vertex="1">
          <mxGeometry x="113" y="1530" width="120" height="60" as="geometry" />
        </mxCell>
        <mxCell id="ti9OboQDYDclVUYqYlf7-22" value="" style="html=1;verticalLabelPosition=bottom;align=center;labelBackgroundColor=#ffffff;verticalAlign=top;strokeWidth=2;strokeColor=#FF8000;shadow=0;dashed=0;shape=mxgraph.ios7.icons.mail;" parent="1" vertex="1">
          <mxGeometry x="65" y="1374" width="30" height="16.5" as="geometry" />
        </mxCell>
        <mxCell id="ti9OboQDYDclVUYqYlf7-23" value="" style="html=1;verticalLabelPosition=bottom;align=center;labelBackgroundColor=#ffffff;verticalAlign=top;strokeWidth=2;strokeColor=#82b366;shadow=0;dashed=0;shape=mxgraph.ios7.icons.mail;fillColor=#d5e8d4;" parent="1" vertex="1">
          <mxGeometry x="65" y="1536" width="30" height="16.5" as="geometry" />
        </mxCell>
        <mxCell id="ti9OboQDYDclVUYqYlf7-28" style="edgeStyle=orthogonalEdgeStyle;rounded=0;orthogonalLoop=1;jettySize=auto;html=1;exitX=0;exitY=0.153;exitDx=0;exitDy=0;entryX=0.5;entryY=1;entryDx=0;entryDy=0;startArrow=oval;startFill=1;endArrow=oval;endFill=1;exitPerimeter=0;" parent="1" source="ti9OboQDYDclVUYqYlf7-29" target="ti9OboQDYDclVUYqYlf7-3" edge="1">
          <mxGeometry relative="1" as="geometry" />
        </mxCell>
        <mxCell id="ti9OboQDYDclVUYqYlf7-29" value="&lt;div style=&quot;background-color: rgb(30, 31, 34); color: rgb(188, 190, 196); font-size: 9px;&quot;&gt;&lt;pre style=&quot;font-family: &amp;quot;JetBrains Mono&amp;quot;, monospace; font-size: 9px;&quot;&gt;&lt;div&gt;&lt;pre style=&quot;font-family:&#39;JetBrains Mono&#39;,monospace;font-size:9,8pt;&quot;&gt;{&lt;br&gt;  &quot;rabbitmq&quot;: {&lt;br&gt;    &lt;span style=&quot;color:#c77dbb;&quot;&gt;&quot;user&quot;&lt;/span&gt;: &lt;span style=&quot;color:#6aab73;&quot;&gt;&quot;user&quot;&lt;/span&gt;,&lt;br&gt;    &lt;span style=&quot;color:#c77dbb;&quot;&gt;&quot;password&quot;&lt;/span&gt;: &lt;span style=&quot;color:#6aab73;&quot;&gt;&quot;password&quot;&lt;/span&gt;,&lt;br&gt;    &lt;span style=&quot;color:#c77dbb;&quot;&gt;&quot;host&quot;&lt;/span&gt;: &lt;span style=&quot;color:#6aab73;&quot;&gt;&quot;domain&quot;&lt;/span&gt;,&lt;br&gt;    &lt;span style=&quot;color:#c77dbb;&quot;&gt;&quot;port&quot;&lt;/span&gt;: &lt;span style=&quot;color:#2aacb8;&quot;&gt;5671&lt;/span&gt;,&lt;br&gt;    &lt;span style=&quot;color:#c77dbb;&quot;&gt;&quot;vhost&quot;&lt;/span&gt;: &lt;span style=&quot;color:#6aab73;&quot;&gt;&quot;&quot;&lt;/span&gt;,&lt;br&gt;    &lt;span style=&quot;color:#c77dbb;&quot;&gt;&quot;cacert&quot;&lt;/span&gt;: &lt;span style=&quot;color:#6aab73;&quot;&gt;&quot;./rabbitmq-settings/root.crt&quot;&lt;/span&gt;,&lt;br&gt;    &lt;span style=&quot;color:#c77dbb;&quot;&gt;&quot;certFile&quot;&lt;/span&gt;: &lt;span style=&quot;color:#6aab73;&quot;&gt;&quot;./rabbitmq-settings/client.crt&quot;&lt;/span&gt;,&lt;br&gt;    &lt;span style=&quot;color:#c77dbb;&quot;&gt;&quot;keyFile&quot;&lt;/span&gt;: &lt;span style=&quot;color:#6aab73;&quot;&gt;&quot;./rabbitmq-settings/client.key&quot;&lt;br&gt;&lt;/span&gt;&lt;span style=&quot;color:#6aab73;&quot;&gt;  &lt;/span&gt;},&lt;br&gt;  &lt;span style=&quot;color:#c77dbb;&quot;&gt;&quot;exchange&quot;&lt;/span&gt;: {&lt;br&gt;    &lt;span style=&quot;color:#c77dbb;&quot;&gt;&quot;name&quot;&lt;/span&gt;: &lt;span style=&quot;color:#6aab73;&quot;&gt;&quot;exchangeName&quot;&lt;/span&gt;,&lt;br&gt;    &lt;span style=&quot;color:#c77dbb;&quot;&gt;&quot;type&quot;&lt;/span&gt;: &lt;span style=&quot;color:#6aab73;&quot;&gt;&quot;direct&quot;&lt;br&gt;&lt;/span&gt;&lt;span style=&quot;color:#6aab73;&quot;&gt;  &lt;/span&gt;},&lt;br&gt;  &lt;span style=&quot;color:#c77dbb;&quot;&gt;&quot;producer&quot;&lt;/span&gt;: {&lt;br&gt;    &lt;span style=&quot;color:#c77dbb;&quot;&gt;&quot;authToken&quot;&lt;/span&gt;: &lt;span style=&quot;color:#6aab73;&quot;&gt;&quot;***************&quot;&lt;br&gt;&lt;/span&gt;&lt;span style=&quot;color:#6aab73;&quot;&gt;  &lt;/span&gt;}&lt;br&gt;}&lt;/pre&gt;&lt;/div&gt;&lt;/pre&gt;&lt;/div&gt;" style="text;whiteSpace=wrap;html=1;fontSize=9;" parent="1" vertex="1">
          <mxGeometry x="-400" y="1679" width="270" height="230" as="geometry" />
        </mxCell>
        <mxCell id="ti9OboQDYDclVUYqYlf7-33" style="edgeStyle=orthogonalEdgeStyle;rounded=1;orthogonalLoop=1;jettySize=auto;html=1;curved=0;fillColor=#e3c800;strokeColor=#B09500;dashed=1;" parent="1" source="ti9OboQDYDclVUYqYlf7-8" edge="1">
          <mxGeometry relative="1" as="geometry">
            <mxPoint x="-252" y="1829" as="targetPoint" />
            <Array as="points">
              <mxPoint x="-240" y="1659" />
              <mxPoint x="-110" y="1659" />
              <mxPoint x="-110" y="1829" />
            </Array>
          </mxGeometry>
        </mxCell>
        <mxCell id="ti9OboQDYDclVUYqYlf7-36" style="edgeStyle=orthogonalEdgeStyle;rounded=0;orthogonalLoop=1;jettySize=auto;html=1;endArrow=oval;endFill=1;startArrow=oval;startFill=1;fillColor=#f0a30a;strokeColor=#BD7000;" parent="1" edge="1">
          <mxGeometry relative="1" as="geometry">
            <mxPoint x="-345" y="1413" as="sourcePoint" />
            <mxPoint x="-345" y="1457" as="targetPoint" />
            <Array as="points">
              <mxPoint x="-345" y="1413" />
            </Array>
          </mxGeometry>
        </mxCell>
        <mxCell id="ti9OboQDYDclVUYqYlf7-37" value="RoutingKey: &lt;font color=&quot;#cc00cc&quot;&gt;key&lt;/font&gt;" style="text;html=1;align=left;verticalAlign=middle;resizable=0;points=[];autosize=1;strokeColor=none;fillColor=none;fontSize=9;fontStyle=1" parent="1" vertex="1">
          <mxGeometry x="-484" y="1330" width="90" height="20" as="geometry" />
        </mxCell>
        <mxCell id="ti9OboQDYDclVUYqYlf7-39" value="" style="shape=image;verticalLabelPosition=bottom;labelBackgroundColor=default;verticalAlign=top;aspect=fixed;imageAspect=0;image=data:image/png,iVBORw0KGgoAAAANSUhEUgAAAUEAAABwCAYAAACAX8KNAAAAAXNSR0IArs4c6QAAAARnQU1BAACxjwv8YQUAAAAJcEhZcwAADsMAAA7DAcdvqGQAABqXSURBVHhe7Z0HeBzVtcf/gy1ZLrhLsiz33gGDHSDEFNNikgAJSd5Lz0vhUR/EIRA6hBhICCShhjQgBUIIoQRjqhs2uIKNjLsNLiqWu2zLRfa8e3buWneuZmfvzM6u1p7z49uPe0e7O7vr3f+cc+8pli0AwzBMTDlG/p9hGCaWsAgyDBNrWAQZhok1LIIMw8QaFkGGYWINiyDDMLGGRZBhmFjDIsgwTKxhEWQYJtawCDIME2tYBBmGiTUsggzDxBoWQYZhYg2LIMMwsYZFkGGYWMMiyDBMrImmqOr+PcCUe4C1c4CGffJgCrr2A864Auh9ojwQkA2LgKkPAZtWiYnPS29RCPQdC5x/A9CqnTzIMAzjJnMRPLAXmDQGqKyQBwyZOBUYdIacGLJyJnDfODkxpGwocNNCoKBIHmAYhmkkc3d45uPBBZD450Q5CMBzP5aDAFQtdSxHhmEYDzIXwTACSKwT1llQNn4oBwH5ZL4cMAzDuMlcBA+kWQP0g1zpIBw8IAcBCXoehmFiQ/PuDluWHDAMwzQPHCLDMEysaWYRZEuQYZjmhd1hhmFiDbvDDMPEGrYEGYaJNbwmyDBMrGF3mGGYWMPuMMMwsYbdYYZhYg27wwzDxBp2hxmGiTVsCTIME2tYBBmGiTXNJ4LsCjMMkwc0oyXIIsgwTPPD7jDDMLGG3WGGYWINu8MMw8QadocZhok17A4zDBMZBw8eROWmKsxbvBDT587CzHnvYkHFB1i+ZiU2Vldi3/798p75Q+bN1//8beC9p+QkAC0LgYcDdqq7rAA41CAnATjuQuDyF+QkD5nxO9hPXyknPhS2AXqdCPQdA5QOhtVH/L98pPxj82PfdwawehYw4rOwrnhJHo0W+/bhQM0KYMBnYE18Wx6NFvuBs8X7mO1MTvwKrO8+4YyzzPsfLcaadR/LmUOPbt3xqeNPkrNo2bxtC2YvmIMDDY2/qc4dO+Fkcb7WRa3lETN27qrDstUrsL5qozySmr49emP4oKFoVSg0IA/I3BIMa9E1hLgihBFA4mD+XX1U7Pefl6M07N8DrJoJvHE/8NdLYd81GvaDE/Kjr3L9DkcAiYpXnf9Hza5aRwAJ+hzqtzvjKJn2MLBiutPelW5z/wbsqJJ/zC7btjd9PxuE9fTxhk/kLFqWrV7pEkBi6/ZtRkKmUrFiKd54Z6rx49aK9/PazLewsaZSHmlemndNcMlrcmDAsrfkIARr3gP21slJHtIQsp8y8dEbsO85BTZZ5Ls2y4PNgH1IDiTZ6PV86KAcSLJxDi/Bq9skB9nFFv95sWZ99CLYcLABNZu939fefWYe2p699Xhr9vSEqxuUAwcO4L3352Plx6vkkeYjc3f4ie8A7z4pJwHpNgQ49bvCPh4rD3hAL2+luOpPuUd8cvXyYAh6jQY++1OgXVd5IAt07Sf8iV5yYo79q7McyybJedcBLVvJiUB8YbF7ixA5caMf5Kp35B80OpQJF3EqUNxfHsghe7bBnlgiJ+KL9Vtx0SkokrOI2FkN+/qeciLOce96oH03OYuIl2+DPXmSnDhYty8BSgfJWfYgQdm+U1jUHpw3bjzatWkrZ5mzvmoD5i5aKGdu+vXsgxOGj5Kz1Lw5axp21O2UM4eWLVqiV3kP8Ry90b7dsfKoMOA31yYswMqaanmkkRNHHo8+5cF/N1HRvCJ4NDLwM8DlLwJtOskD6bHvHy+EfoYzoXW+n6QQuSTkFpNlPP1RYKlmIXcbDOu2CjnJIcI1tX9ULCdHsAiKf4fEv0eSVu1g/XqbnBhA1ni9EIZicUEMiJ8IDh0wCMMGCKMhIuYuWuByX9u0bo099Y6RQYJEwuTHBx99iNXr1sqZw4hBQ9GvV++EEKaC3t/8ig+ws87tmY0/9XR0bN9BznILh8hEDVmtbz4gJyFoUSAHPtAGyajPA1dNBr7xmBAbZRG7ejns138pJ81I1ALoxTEt5CBCBo6D9c3HYY271LmRZW3K27+FfdMAYEWAx6RAFwQvCyoTqmtr5AjoXtJNiKD4ThlSu7W2iQCOGXUCBvXt7yuABL2vcWNORYdj28sjDgsrFslR7mERzAabAq6RqMa4vu6VDlpO+PJ9ciJ5+0E5yCEZOhR5BX2m//2Qc+vpbxEdZt4zsP85UVjpu+WBzOjUoSNKujQu3ZDbWb83g+UghU1bal0bIt1Lg1nTi5d9JEcOwwcNQc+ycjlLT2FBAU4dPRYtWzYK5rad27O2AZSOzEXwaPryRwXtKoYlzOd52veFv3S2nAhocX/xy3LC5AJ74XNyFB1lwkJTqayJZpdatyrLSsrkKD20lqi67GTRDe4rrN+AtC4qwkjhPqssWblcjnILW4J5gSJ8+i6rKad8Sw4c7CA771Ggi3eYEKig5NMF2GXBR5MIQDGCKpWbonGJ1dCU4s5dEpaZ+lmm2qUmPt6wXo4chvQfKEfB6dOjF1oVNm4A7t23N2Gl5hoWwbwggh/NiAlyIKldLQc5Qo8XpWD4qNHXAK08+voWKju3x0TzuopaFaFT+45yRm7sZjRocX1BIStODYHpXiqtQOXfz0rxfaSwFlWkaP2vPPn4EFjinAN695UzB3WtMlewCOYbYS3BomPd4Tn5HBd5NGJHbwkS3bu5XeKq2sysQd2lPiyCBlZ19Wa3QJV2bYwGCIsuotW1uYnJVGERzAeiyqNWLaNs7Jz6EdV78CUX5wjJgYApoIZ019brMt0lVl1q2qlt45Eel8odJktUJQoRbNe2res11O3eFdkGkCksgkcTamZD+1I5MIBi2xa95ASk/+dO5zblbnHsxejcaoptnPYw7L/8APaDF8D+xzXAjMfEpX+ZvEMIvMIxalY6uez0HqY+BFBK4tZ18o9ZZP37ciBEZH104R4UcKwGSafK8jCBMjzU4OZUu8Kp3GFKqVPpVtwYHJ8JJZqY5npdkEXwaGHDYkdoknQfLgc+bFiUyD22ryuD/diXYL94C+xXfubcXrxVHLsE9q1DYN/UH5j5uHxQCN77SyJ+LiF8s58APnrdEcSnr4J9x0jYFHC/M8NF/5XTYd9zMuzbh8F+8nvOe3j2WtiPfzXx+hPn2GoYgjHvadiXFSRuWOKdB23fOerwfRL327ZB/kUw9UHX31y3+06Xd2pKKvE57LIKKLRl05ZwQlhZ487VVa1M1fbzyp+gtUgqkpCkqFWrxJplFKiZJUTd7mjCjExhETxamPE7OXCwhp0nR97Y/74R9s9PSuQep0VYUvbfr4D9+/+SB8yhwG37yf8R1qbP1X3O32BPGgOsa7SmgmC/chfs+88GPlkgj3hA57j300aWrU0B70kql8iBAgle1VI5CQhZqgHR1802hnSJVVeaMkT0gGU/duxyp8e1jTCF79i27eTIYdceFsF4E6ZSzpaPgXf+ICcCysnud7KcNMX+++WAnlXS/1TgrKthff1RWNe+DuuHz4pjQjRUFv4L9lPflxMDKK1PiO1hWndMnAPn/cQd10jsqIb9wPjAImG/fLtwfe+QM0HiHFcB51/f9Bw7a5yUOPF/XyhXO4lX8HqnHkC7kOthHd1hLy5SLHlSeSvV6qoKESpDO7u1W7fIGQmr+3WkW23V1+mizGNu28adrbKbRZAJzBPflQMH69yJcuTBfCFuM38vJwLKjb16MqwfT4f15V85gdeDzgROuFgcmwbrihfdP1zKE/eyjnRqVsD+lxC7JGdfC9y1ArhEiO+FPwOuegWYtMYpbJFkb51wwS+WEwMWPAdM/rmcCM75EfDzVeIc9wFfuFOeYy3QW6nHt30j7L/8UE7CY/1sGazf7ID16AFYdy5378yL95o47nW7KVzZM0ptS1K/d2+TwgXpqNJCT3TrMt3eMJ1TJUoRLFAyRwi2BBlzyC379bmNBUAJEpVTviMnTbG1vGbr+38XFtM5cubBiAmwLnVnQ9gG64P2H78hzA/5w/n2n4Av3iOsNC1BvmM5cM3rTtGIJNVCUKaapf3Zf7tMjgRk+V18txMqpEICLixbDDhNHhBUTAbmivdtQqpd7yLhSlION0HFEgY0Ws1WFqr4lGuhMkGzR9Rd4cLCQnTp1FnOJGlUUBfBKAuiqgHTRKaxkEHJXARzEhoRIZTYT5bBoNO9b/SDzEXyf0oMPs+1cwBaZ6MNCyoAmqR8JCyyflJBbrNagJXKQ434rJz4QJ/Jp74uJwKTIrDJ3dIzr3Q/VodE68qXXVV37NcCFoA47guO5ZcKCmQmi7Z9426m8Tksw1AjYVFnk5IuJS6LKWj2SI0Sf6dalaZQ2XyVY3IdgpVF4mUJTrgZeKgeuHEeMHGa9+2nc537UO3B5oCsO8r7XTHD2bSgDY9nrwFeES7kX/8XuHkg8MtxiYV+F1RCi6wqv3qJVLxVqThjkXVmiDVG2RTZIX6A9QZVnTuIHxu52OkgAaR1vCSU+7z+AzlJA4nPd/4sJz7Q/c5WlgkqK1LXZcyUsAHvaayxbsWNYU9O5odZUVnKwqAiqknKPUNj/E9+UFsbbRFRVkwqdNHNJpm/k3zK3/Tj5G86a1GmXDQJUH/42UT9DKl46mOXCDdXuKgPfQ545mpg2qNCBO8CZosfux7z1rYzrIvugnXDe/4CSJQOhHX7h7CufRPW3cIqpHJcpuibJLs1EfT6Hoy/Vg4MOOXbciCp8LFoVcgKNLXCThYuuoJN66NRob7/sCKYxgko76bvEpu5xKrV2LJFCyGmXiLof/JDh9zvqUWL7IrgoRzqSnwsQXLLgnKmYp3kI92Hw7pRWK7nXW8uBJ17O24/rccFgdxW9TEmu9haUQdfaMdVWLNJ7ArDAhAnfVUODKCLRO8T5URAweDpyCO3r7SrOwC+yjBURt1NLlWsyUzItBZzOrL9/CqZi+CRsiZYNkwOAtDrBDnIUyqXOEU8F/5LHsgybRqT+dNCGxHCSg2Eam2ueTe9y01u9Ijz5cQQqvydZHslsNldHDQSwv6A0zyMrDi1vNamrZubNErS2bpjm6tggrcrTKduPLlX2lwLcW6Vhiy7q/qOcTaJjztsUrFZR+3zkU3UCwn1CfltnXd4xQNbYF0t3ETNjU0EMb92r5xlEbWCtX7x0+f9T5GDAJQ2WoIJaKdYRU+TO/4iOQhAiVb6SUl388T0Iq/ez/QxOgYPU0WMrKUaraiBjm4tlnm6wu5Te2Wu6BWjsymCLYT1TRVmckV83OEjhS59Uu9OU1jG0HNhXfY8rOumuywt+4Wbzdy7TNi3Sw4MKA5eaJPWLF1sc9eua4JJaqBOidYwqcpdJbkJprvDKmFbwxrQtNCqv0usrgeWdi1xVXMOQmGh24iIMoxFF9SCgtxZgQSLYN5haFn3OxXWpe6FffuFm+QoAqizH7mK5JZWTE7k47qKHaTzALr0loMA6Bs7W9Lk+upWnQkdtSDhujTJ+jm0SEwoLChEcefGz0kPglbZvWePK983aBl9Fb0Z+4FM2sRqUDaLSkHLEF5bBrAI5gOqoGi7cL4MPB044YtyIiD3Mdm1LigUkjLlbtiPfhH2jX1hX90e9i2DYP9yHOyHL3Qqs6jo6WS6KLbtIgcBIEtXwd6qWYL6OXTL0QR9AymdCOYhqpiRRVarlbhKUrlJqx0YIj4wSZsit3eyz7A3sQn79rufK8pAbBNYBPMOQ0tQYp1+qRw52JRKZgq1sKTKMSR6k8YkKsckYhTViihhCbopQugZJQfTlOgPk5mhZ5Ska2yVzuJNotZyNH1MSPS831SB02pWCdUOzKTqS+tWbkuwPkIR1NPk2rUxjHSICBbBfMDlcgV0vwaf5ba6lhpUhRHYz9/g9PClGoK66JFbSgUVKLZygnCxL7i5aRyfju42tgqTW5rGmtTPsSdAP+AkeshLmhaRxu5wDkv9U5Mitey+V7zg/gP7sXnbVjlLbwWmk229JWeURQ6okKoKFVrNJfERQcpyCAplLuSaMIG2St4qNq1KFAnwgwqb4g0tk4Nyji+eBNy5DPiFeDz12/3WH4DPCevwgluAbz4eLLYwzJpRMtdYYjWxJjVB2h1CBOu1tgPpmuSnsxS9CPOYgKguMVV40Qsq6JVm1JqEnqSxXilERhVeEq6DQZZufNi+0/3a9dJa2SZzEcyzheOUrJopBwFYPk0Osoz6BQwjgmoBAoI2M1Jgv3G/U9g0Ce1EUxGFG8RjzpkIdHU3vnHR4OMC6T+iBrOULhe6eOsiqIc57fZeC/NFK95qUZC2L+lsJEkULnCAp9BFTV//U3eNqQBqkNqBqcrrU0kvlS2KpZkJtVol6WKl33IuiI8lSGWdqIy8KbRg/tyP5STLZHghsfqOlSMHO1Vx0b3iiks5yCpUN3D0l+TEB7LS/D4/3aJKY416ou8Gd9Csl2TVliR1IURQry5NRSSiIApjIMBT6GX3qza5d4nVMvzlWuvOsHTp5P43jqIz3NYd210hMp07dOTd4axBru2tQwAKI6FCnH63F24U9xU/jkxLvpvisgRDWBRqvTwilQjOe8Yd6zfuUmC4fwXqw6jVZxJ4vE51Y2NDiD4b+mP6eQRcU1GGJKtnyUEA9P4fuhWtE8rCC/OY4Kg1AbcJMUkWVKiurXa5quUZ7AqrdO3kttDWVYW40GlsrHaX/C+NqG9JEDIXwSjcgFxBxQleneRUIva7vXo3sMegSkpUqFZEGHeYQkvKlG7+KcrU28unypGECp2aotYsTOBhtqjNndYZVoFRWTtXDgS0Rqnv5BJqEHaYBvNqCBFZmp16ykkKwlh4YQsoBKSpS+xctCtrGi00Sj8r7pJ5VziCNmRKlefav38/1q437NviAYX3fLzRHQbVp1wpTpsj4mMJ5jOuC0nIi4pqDVLOLW2Q6Khxd1Rbz2/9T+edP8pBEo/Xqb6GoNkrZKmvnSMngoHj5ECDWgck2fihk/9rCm2OqfUXh50rBz6EucjnyDBwyu43pnYm1wHVAGo9wyQVpq+4by93EPzyNR7fM0OWrFzmCpQmAdR3oXMBi2A+EMF6kr4uiHUL5UBB/XEeCvBDnXKvU5DVRdPXbA05S44Eu7c6pfxN0UTWGnyGHLmxBmni+OF/5MCA138hBw5W0OILhtj7lK5/AQjzLVA7xtE6IDVnV+sMlpWYVY1Rz52q6x1BMYrqJgu18Zy3OHiDLLIAV69zf6eG9A8R/B4BLIJHC9ralr3OY12wi+JqUPc3k14hVIb+pVvlRMErP3bkBDmQUN9fE8hCfes3ciKgOEVVUFVGhDwHvdepD8uJ4Fjh1o2+RE58MA13UYtt1GiFHwwJYz/qqXCzFyhLCgK1EKsf6rlT7Q4nGTXEnbO9vmojFlaYrwGTAOr3JwGMsoNdEFgE842wMWa9lDp5hMfmiEUB0Cp/+pazY5wKsgC1Jk6+UAc2Naia3FtqzOQHbdT87suu12GN/z+4Ktao0ObLZ34gJwJKFaR1XD/27wYed9cdtKgpU4RY7ZV1NwrHqt8hJ9mFiiKkKjtV2rW4SfWXKCjpUox+vfrImQMJ21uzZ/h2wttZV4e5ixY2EcBOHTpi+EBlTTvHsAjmG5msJ/X9lBwIvHaI9VAYKjF/zylOXjCFBNFjFr3kVLO+ZZDbAqQ+xgZpahbFGqo8IwSNntMLWrf8tXhetZwVBWSPv0ZOvLEoi0UNl5k8CdAaSB2mdg3wwDniXEorz5IBwDkRhz+pF6Gdm2D/WVwMaEkgAGEXRVKt++kd5fwwdYeTnDBsFLp2dmf0UMD2u+/Px8tvvYY5HyzA0lUrULFiKWbNn4PJ097Am7OnY4O2G0xVbU4ccXyi2APtcJNLv65yA1Z9skY8fjnWrNeXYaKHRfBoQhVBsrD0Hr4dujs9f1VIiJ4SltX1PYB7haVIVhn1NVFj9oSrbf3wH+4QmFSUDYX19UfkREDVaOg5qd8vCRXt6JIL+8hFwO3CrVJDb9p0gnX5C04Atx9CKC3KblF5/gZg0ljg7QeBiikABYU/ciFwm7Aw1AuCEEDrGrPUwkAMEe9Pbbv54SuwbxkM++krncZU1IT+5TucPskpCHv5S1UdxruMvjdB3OEkp4/9NPr2aFotiCrMUCrf0tUrsGLtatRsqXUVdlWhHeI3Z03DlBlv4u13Z+Cd+e9h3uKFWLS0Ah8JEXx/yeImBRaihkUwH1Cb1oQp/iqxhoofoson8+SgkYQVReX1Tfn092BdP9vJBVZDP/w2c04TokpNrVSoqREJ1cNfAP4prMWKV+UfJEJArOtmAD2PlwfScMYVsL6iWX8UZ0gB7iR+//6pI4YqA06D9ZNZTil/P1QXMkBOsPU1Zc2RoF16cUGxhStuUxP6yXcBs/Rd9kZU1zVIwDCV3dcrP5OLSSEtphyjfAf15/Jj9IjjMPa40Sld8ihoaMhuGiKLYD7QT1mrG/U5OQgBbRokdzwpg8Mr11e4kdRoCecLQfKz7Miio6bs33hMHhD0lO0GWndMKyTW529zehrTOqEf1A6TmpXfIlxiNfzFhDOvdBqfm2S8nPMjWJQPbVDdxiKrjiC3OV0wtcrw82FR5zt6T6nwyanuJgOFqbKy3lTJDyq7P6Rf485qQUEBhg0IlglTIlPVqNJMz7J0qYRu6P4TzjwPp510Mgb3HYCunTpH1o2OhLxtm+yGzVh2ph1NaO1DrzUXd+hHqTUsz1sW/wc2WWlUMLXHcbDaCvGkOoVR9ldZNQs2NTynsJ0GWR6rXRdYJ30FGClEP4o+z9XLYS94NnEuHBRCQ20Kug8T72mUsHzPMG9EFQW0ySPcfpuC1qlyNVnNx5Ymsl2sAeKCNzR1fCKtq9EuKQlbrqHKMEVFrbPeTjPfYBHMBkeSCDJMzMlc8mN21TAih7XlGIbJjMx/rXqlDyZY3T2GYZqVzEVw7NfkgDkMVWRmGOaIIPM1QYJKGlGhzkTSfuZPd2RiAcX9nIyJVMn/DMPkHdGIIMMwzBEKr+AzDBNrWAQZhok1LIIMw8QaFkGGYWINiyDDMLGGRZBhmFjDIsgwTKxhEWQYJtawCDIME2tYBBmGiTUsggzDxBoWQYZhYg2LIMMwsYZFkGGYWMMiyDBMrGERZBgm1rAIMgwTa1gEGYaJNSyCDMPEGhZBhmFiDPD/Qa+e/p+bIjIAAAAASUVORK5CYII=;" parent="1" vertex="1">
          <mxGeometry x="-290" y="1321.66" width="150" height="52.34" as="geometry" />
        </mxCell>
        <mxCell id="ti9OboQDYDclVUYqYlf7-40" value="http://localhost:9090/&lt;font color=&quot;#cc00cc&quot;&gt;key&lt;/font&gt;" style="text;html=1;align=center;verticalAlign=middle;resizable=0;points=[];autosize=1;strokeColor=none;fillColor=none;fontStyle=1" parent="1" vertex="1">
          <mxGeometry x="-670" y="1459" width="160" height="30" as="geometry" />
        </mxCell>
        <mxCell id="ti9OboQDYDclVUYqYlf7-41" value="HTTP" style="edgeStyle=orthogonalEdgeStyle;rounded=0;orthogonalLoop=1;jettySize=auto;html=1;" parent="1" target="ti9OboQDYDclVUYqYlf7-40" edge="1">
          <mxGeometry relative="1" as="geometry">
            <mxPoint x="-590" y="1684" as="sourcePoint" />
          </mxGeometry>
        </mxCell>
        <mxCell id="ti9OboQDYDclVUYqYlf7-43" value="&amp;nbsp; Headers&lt;br&gt;&amp;nbsp; Authorization: Token &lt;font face=&quot;Courier New&quot;&gt;******&lt;/font&gt;" style="text;html=1;align=left;verticalAlign=middle;resizable=0;points=[];autosize=1;strokeColor=#9673a6;fillColor=#e1d5e7;fontStyle=1;spacing=0;" parent="1" vertex="1">
          <mxGeometry x="-680" y="1659" width="190" height="40" as="geometry" />
        </mxCell>
        <mxCell id="ti9OboQDYDclVUYqYlf7-44" value="method: POST" style="text;html=1;align=center;verticalAlign=middle;resizable=0;points=[];autosize=1;strokeColor=#6c8ebf;fillColor=#dae8fc;fontStyle=1;spacing=0;" parent="1" vertex="1">
          <mxGeometry x="-680" y="1639" width="100" height="20" as="geometry" />
        </mxCell>
        <mxCell id="ti9OboQDYDclVUYqYlf7-45" style="edgeStyle=orthogonalEdgeStyle;rounded=1;orthogonalLoop=1;jettySize=auto;html=1;entryX=0.624;entryY=-0.025;entryDx=0;entryDy=0;entryPerimeter=0;curved=0;strokeColor=default;dashed=1;" parent="1" source="ti9OboQDYDclVUYqYlf7-40" target="ti9OboQDYDclVUYqYlf7-37" edge="1">
          <mxGeometry relative="1" as="geometry">
            <Array as="points">
              <mxPoint x="-530" y="1310" />
              <mxPoint x="-428" y="1310" />
            </Array>
          </mxGeometry>
        </mxCell>
        <mxCell id="ti9OboQDYDclVUYqYlf7-47" style="edgeStyle=orthogonalEdgeStyle;rounded=1;orthogonalLoop=1;jettySize=auto;html=1;curved=0;dashed=1;strokeColor=#CC00CC;" parent="1" edge="1">
          <mxGeometry relative="1" as="geometry">
            <mxPoint x="-378" y="1872" as="targetPoint" />
            <Array as="points">
              <mxPoint x="-480" y="1687" />
              <mxPoint x="-480" y="1872" />
            </Array>
            <mxPoint x="-499" y="1687" as="sourcePoint" />
          </mxGeometry>
        </mxCell>
        <mxCell id="ti9OboQDYDclVUYqYlf7-49" value="Any Body" style="rounded=0;whiteSpace=wrap;html=1;fillColor=#f0a30a;fontColor=#000000;strokeColor=#BD7000;" parent="1" vertex="1">
          <mxGeometry x="-680" y="1699" width="190" height="51" as="geometry" />
        </mxCell>
        <mxCell id="ti9OboQDYDclVUYqYlf7-50" value="Any Body" style="rounded=0;whiteSpace=wrap;html=1;fillColor=#f0a30a;fontColor=#000000;strokeColor=#BD7000;" parent="1" vertex="1">
          <mxGeometry x="-484" y="1356" width="164" height="56" as="geometry" />
        </mxCell>
      </root>
    </mxGraphModel>
  </diagram>
</mxfile>
